<svg viewBox="0 0 25 30" xmlns="http://www.w3.org/2000/svg"><path d="M16.416 3.278c1.419-.204 2.762-.278 3.957-.278.634 0 1.267.022 1.883.064 1.424.098 2.574 1.202 2.676 2.569.108 1.457.122 3.428-.218 5.612l-8.298-7.967zm-16.129 15.477c-.341 2.183-.327 4.155-.218 5.612.102 1.367 1.252 2.472 2.676 2.569.615.042 1.249.064 1.883.064 1.195 0 2.538-.074 3.957-.278l-8.298-7.967zm24.117-5.913c-.688 2.964-2.089 6.17-4.797 8.95l-.033.032c-2.883 2.588-6.215 3.938-9.326 4.601l-9.652-9.268c.688-2.964 2.089-6.169 4.797-8.95l.033-.032c2.883-2.588 6.215-3.938 9.326-4.601l9.652 9.268zm-6.73.052l-.998-.958.776-.745c.272-.262.272-.686 0-.947-.273-.261-.714-.261-.987 0l-.776.745-.997-.958c-.272-.261-.714-.261-.987 0-.273.262-.273.686 0 .947l.997.958-1.14 1.095-.997-.958c-.272-.261-.714-.261-.987 0-.272.262-.272.686 0 .947l.998.958-1.14 1.095-.998-.958c-.272-.261-.714-.261-.986 0-.273.262-.273.686 0 .947l.998.958-1.14 1.095-.997-.958c-.272-.262-.714-.262-.987 0-.272.261-.272.686 0 .947l.997.958-.776.745c-.272.262-.272.686 0 .947.136.131.315.196.493.196.179 0 .357-.065.493-.196l.776-.745.998.958c.136.131.315.196.493.196.179 0 .357-.065.493-.196.273-.262.273-.686 0-.947l-.997-.958 1.14-1.095.998.958c.136.131.315.196.493.196.179 0 .357-.065.493-.196.272-.262.272-.686 0-.947l-.998-.958 1.14-1.095.998.958c.136.131.315.196.493.196s.357-.065.493-.196c.272-.262.272-.686 0-.947l-.998-.958 1.14-1.095.997.958c.136.131.315.196.493.196s.357-.065.493-.196c.272-.262.272-.686-.001-.947z"/></svg>