<svg viewBox="0 0 22 30" xmlns="http://www.w3.org/2000/svg"><path d="M17.668 22.276c-3.171 3.46-8.354 4.724-12.148 4.724-1.574 0-2.896-.22-3.746-.591 2.063-4.501 2.466-6.223 4.761-9.162l1.892 1.835.593-.755-1.89-1.833c.184-.225 1.325-1.405 1.506-1.618l1.877 1.819.594-.755-1.846-1.79c.164-.187 1.283-1.331 1.448-1.512l1.866 1.809.594-.753-1.811-1.76c.217-.229 1.39-1.41 1.604-1.627l1.815 1.765.593-.759-1.728-1.68c.197-.19 1.348-1.337 1.543-1.515l1.68 1.635.594-.755-1.565-1.528c4.112-3.67 5.33-3.055 5.333-3.058 1.431 2.516 1.208 12.666-3.559 17.865zm-4.052-16.941l-.594.758 1.16 1.084-1.534 1.525-1.119-1.048-.595.755 1.045.978c-.214.223-1.385 1.407-1.595 1.636l-1.056-.99-.594.757 1.006.939-1.44 1.517-1.035-.967-.594.757 1.01.944c-.184.22-1.325 1.401-1.502 1.623l-1-.934-.596.755.997.934c-4.291 5.524-4.954 8.945-4.954 8.945-1.265-2.93-.898-12.56 3.703-17.579 3.17-3.46 8.35-4.724 12.143-4.724 1.604 0 2.955.228 3.805.61-2.628 1.09-3.168.901-5.391 2.919l-1.271-1.194z"/></svg>