<svg viewBox="0 0 24 30" xmlns="http://www.w3.org/2000/svg"><path d="M21.937 21.72c-1.86-2.114-2.999-4.879-2.999-7.91 0-2.488.762-4.802 2.064-6.721 1.861 2.115 2.999 4.879 2.999 7.911 0 2.489-.762 4.802-2.063 6.72zm-1.802 2.077c-2.14 1.98-4.994 3.203-8.135 3.203-2.928 0-5.612-1.056-7.697-2.804 2.022-2.523 3.24-5.718 3.24-9.195 0-3.478-1.218-6.671-3.241-9.195 2.086-1.749 4.769-2.806 7.698-2.806 2.601 0 5.003.84 6.97 2.251-1.734 2.417-2.765 5.367-2.765 8.561 0 3.855 1.5 7.356 3.93 9.986zm-17.73-1.621c-1.503-2.005-2.405-4.485-2.405-7.177 0-2.693.902-5.172 2.405-7.177 1.503 2.005 2.404 4.485 2.404 7.177 0 2.692-.902 5.172-2.404 7.177z"/></svg>