<svg viewBox="0 0 24 30" xmlns="http://www.w3.org/2000/svg"><path d="M23.044 19.701c-.565-1.458-1.334-2.85-2.298-4.138-2.773-3.699-6.817-6.103-11.393-6.759l-.595-.072c.45-.794.97-1.542 1.549-2.236 2.709.525 4.509.582 5.495.173.038-.015 3.667-1.477 5.914 1.333l.021-.015c1.424 1.973 2.261 4.395 2.264 7.014 0 1.666-.34 3.257-.956 4.7zm-7.626-13.96c-.514.213-1.681.343-4.327-.12.906-.934 1.927-1.752 3.043-2.433 1.863.336 3.579 1.098 5.036 2.19-1.482-.283-2.915.014-3.752.362zm-5.478-.345c-1.751-.401-1.607-1.627-1.583-1.769 0 0 1.344-.628 3.644-.628l.592.015c-.968.694-1.859 1.495-2.652 2.382zm-2.28 3.257l-.471-.008c-2.322 0-4.431.606-6.273 1.752 1.208-2.909 3.528-5.236 6.424-6.46.043.768.477 1.805 1.892 2.298-.593.757-1.117 1.566-1.572 2.418zm-1.809 5.869c-2.079.269-3.545 1.091-4.355 2.443-.451.758-.643 1.585-.689 2.376-.521-1.348-.806-2.812-.806-4.34 0-1.054.135-2.075.391-3.045 1.834-1.458 4.085-2.301 6.78-2.307-.678 1.517-1.132 3.155-1.32 4.873zm-.08 1.025c-.011.255-.019.508-.018.764 0 4.011 1.302 7.596 3.525 10.382-2.965-.688-5.509-2.476-7.178-4.909-.259-.933-.613-2.848.261-4.305.618-1.031 1.765-1.682 3.41-1.932zm1.01-.094c2.052-.04 5.004.815 6.001 5.77.533 2.657 1.755 4.306 3.646 4.934-1.371.544-2.866.843-4.426.843-.402 0-.798-.023-1.188-.059-2.574-2.759-4.056-6.505-4.056-10.634 0-.286.008-.571.024-.854zm6.985 5.572c-1.147-5.688-4.739-6.579-6.898-6.572.204-1.687.679-3.287 1.383-4.759.312.025.632.059.956.105 6.376.916 11.362 5.411 13.21 11.161-1.067 1.861-2.616 3.41-4.48 4.472-2.259-.158-3.607-1.592-4.171-4.408z"/></svg>