<svg viewBox="0 0 26 30" xmlns="http://www.w3.org/2000/svg"><path d="M9.136 26.026c.25.241.233.482-.054.722l-1.181 1.084c-.25.241-.501.224-.751-.052l-6.976-7.172c-.251-.275-.233-.533.053-.774l1.181-1.084c.25-.241.501-.224.751.052l6.976 7.224zm8.854-13.57c.25.241.25.482 0 .722l-7.513 6.759c-.286.241-.555.241-.805 0l-1.771-1.858c-.25-.275-.25-.533 0-.774l7.512-6.759c.286-.241.555-.224.805.052l1.771 1.857zm-6.278 11.248c.25.241.232.482-.054.722l-1.18 1.083c-.286.241-.555.241-.805 0l-6.922-7.223c-.25-.241-.25-.481 0-.722l1.234-1.084c.25-.241.501-.241.751 0l6.976 7.224zm11.537-10.99c.25.241.25.481 0 .722l-1.234 1.084c-.25.241-.501.241-.751 0l-6.922-7.224c-.251-.241-.251-.481 0-.722l1.18-1.083c.286-.241.554-.241.805 0l6.922 7.224zm2.576-2.322c.25.275.233.533-.053.774l-1.181 1.084c-.25.241-.501.224-.751-.052l-6.976-7.172c-.25-.275-.232-.533.054-.774l1.181-1.084c.25-.241.501-.224.751.052l6.976 7.172z"/></svg>