<svg viewBox="0 0 24 30" xmlns="http://www.w3.org/2000/svg"><path d="M20.8 21.865c-1.504 1.522-3.857 1.791-5.304 2.471l-4.46 3.664c-1.401-.821-2.626-1.763-3.705-2.854-1.078-1.091-2.009-2.33-2.821-3.747l3.622-4.511c1.684-6.251 3.646-5.714 4.414-5.331 0 0-.022-.358.205-1.22.473-1.804 3.408-4.46 8.52.71 4.627 4.68 2.612 7.698-.471 10.817zm-6.754-.831c-.303-.306-.794-.307-1.099-.002l-1.296-.254-.251-1.311c.302-.308.301-.804-.002-1.111-.304-.307-.796-.307-1.1 0-.304.307-.304.806 0 1.113.072.073.155.128.243.166l.184.962-.951-.186c-.038-.09-.092-.173-.164-.246-.304-.308-.797-.308-1.101 0-.304.308-.304.806 0 1.113.069.069.147.122.23.16l.177 1.017-1.005-.179c-.037-.084-.09-.164-.158-.233-.304-.307-.797-.307-1.101 0-.304.307-.304.806 0 1.113.304.307.797.307 1.101 0l.007-.008 1.317.234.231 1.332-.008.008c-.304.307-.304.806 0 1.113.304.307.797.307 1.101 0 .304-.308.304-.806 0-1.113-.069-.07-.147-.122-.23-.16l-.176-1.016 1.005.178c.038.085.09.164.158.233.304.308.797.308 1.101 0 .304-.307.304-.806 0-1.113-.072-.073-.155-.128-.243-.166l-.184-.962.951.186c.038.089.092.173.164.246.304.307.796.307 1.101 0 .304-.308.304-.806 0-1.113zm-4.213 1.583l-.231-1.332.006-.006 1.297.254.251 1.311-.005.006-1.317-.234zm-3.74-4.451l-.812 1.012-.79-1.068.003-.008 1.27-.366.33.43zm5.898-8.034l-.102.425-.15-.005-.349.027c-2.334-1.015-4.75-2.875-4.75-2.875s2.041 2.154-.769 3.5c2.373-.938 3.152 1.168 3.152 1.168s-.755 1.297-1.471 3.674c-.083.084-.15.188-.189.309l-1.27.366-.81-1.055c.132-.412-.09-.855-.498-.99-.409-.135-.848.09-.982.503-.134.413.089.858.497.993.097.032.195.043.291.037l.594.774-.931.268c-.074-.062-.16-.112-.256-.144-.409-.136-.848.09-.982.503-.134.413.089.858.497.993.092.031.186.042.277.038l.611.826-.976.3c-.071-.058-.153-.105-.245-.136-.409-.136-.848.09-.982.503-.134.413.089.858.497.993.409.135.848-.09.982-.503l.003-.01.595-.183-.716.892.272.475c.165.288.334.568.508.841l-.147-.047c-1.449-.48-2.833-1.16-4.191-2.053l1.217-5.679c-.054-1.613-.879-3.857-.217-5.902 1.358-4.191 3.11-7.373 9.329-5.313 2.881.955 4.26 2.335 4.837 3.645-1.736.283-2.849 1.605-3.174 2.844z"/></svg>