<svg viewBox="0 0 33 30" xmlns="http://www.w3.org/2000/svg"><path d="M1.546 23.865s2.965.361 3.959.359c.915 0 2.275.039 4.373-1.541 0 0 .308 1.775 2.076 3.02 0 0 .58 1.124 1.244 2.296h11.544c.013-.914-.041-1.867-.197-2.835 0 0 2.506-4.783 1.06-7.874 0 0 4.321-1.183 6.187-5.772 0 0 1.964-1.725.885-2.812 0 0-1.176-2.119-4.516-3.55 0 0-2.211-1.28-2.553-1.725 0 0-.933-1.479-4.323 1.034 0 0-.587 1.924.542 2.763 0 0 1.717.297 2.501-1.233 0 0 .147-.195-.143-.295 0 0 .634.049.981-.591 0 0 1.474.591 2.16 2.368.686 1.777.587 1.921.982 2.22 0 0-3.043.841-3.732 3.156 0 0-3.292.542-3.831 2.614 0 0-2.602.393-2.061-2.073 0 0 .442-.542 1.635-.476 0 0 .597.034.164-1.119-.038-.108.102-.236.182-.429.074-.177.002-.21-.327-.49-.107-.089.088-.29.171-.509.049-.132-.171-.611-.171-.611s.514-.402.491-.591c-.054-.45-1.243-.681-1.441-1.084-.078-.161.201-.519.164-.689-.134-.643-.794-1.952-1.679-2.464-1.211-.698-4.517-.92-5.957 2.006-.389.79-.077 2.703.261 3.518.317.773 1.742 2.855 1.742 2.855.067.198.523 3.095-1.964 3.814 0 0-2.26-.132-3.896 1.382 0 0-2.782-.231-3.535 1.412 0 0-.194-2.861 1.607-4.602 0 0 1.046.262 1.472 0 0 0 .327 1.068 1.047.658 0 0 .51.146.591-.331 0 0 .751-.048.605-.789 0 0 .376-1.051-.229-1.345 0 0 .029-.921-.788-.889 0 0-1.488.11-1.98.067-.641-.054-1.77.164-2.456 1.382l-2.388 3.353s-1.669 2.236-1.898 4.438c.003-.001-.686 1.643 1.442 2.003z"/></svg>