<svg viewBox="0 0 29 30" xmlns="http://www.w3.org/2000/svg"><path d="M23.049 28c-3.287 0-5.957-2.782-5.957-6.224 0-3.441 2.669-6.223 5.957-6.223 3.283 0 5.951 2.781 5.951 6.223 0 3.439-2.668 6.224-5.951 6.224zm-5.795-20.438c-1.205 0-2.183-1.019-2.185-2.279 0-1.257.981-2.283 2.185-2.283 1.206 0 2.186 1.025 2.186 2.283 0 1.261-.98 2.279-2.186 2.279zm-1.729-.169l2.396 3.929.348-.108c1.309 0 1.309 1.785 0 1.785h-.923c-.318.007-.661-.158-.91-.57l-1.418-2.223-2.927 3.029 2.408 1.513c1.688.813 1.5 2.564 1.5 2.564v5.424c0 .728-.177 1.137-.875 1.137-.695 0-1.125-.412-1.125-1.137v-5.141l-5.703-2.734c-.56-.325-.706-.955-.706-1.67 0-.491.173-.941.47-1.277l4.619-4.837c.569-.677 1.371-.568 1.37-.569.966 0 1.474.883 1.474.883zm-3.616 14.383c0 3.439-2.665 6.224-5.958 6.224-3.28 0-5.95-2.785-5.95-6.224 0-3.44 2.67-6.223 5.95-6.223 3.291 0 5.958 2.782 5.958 6.223z"/></svg>