<svg viewBox="0 0 235 30" xmlns="http://www.w3.org/2000/svg"><path d="M 235 30 L 235 0 L 232 0 L 232 17.2714 L 228.4464 0 L 225 0 L 225 30 L 228 30 L 228 13.243 L 231.7805 30 L 235 30 ZM 210 30 L 210 0 L 207 0 L 207 17.2714 L 203.447 0 L 200 0 L 200 30 L 203 30 L 203 13.243 L 206.7799 30 L 210 30 ZM 181.2503 0 L 178.8789 0 C 176.7238 0 175 1.6803 175 3.7392 L 175 26.3024 C 175.0432 28.3194 176.767 30 178.8789 30 L 181.2503 30 C 183.3189 29.916 184.9568 28.3194 185 26.3024 L 185 3.7392 C 185 1.7225 183.3189 0.084 181.2503 0 ZM 180.3622 27 L 179.6378 27 C 178.7324 26.9578 178 26.2433 178 25.361 L 178 4.6384 C 178 3.7564 178.7324 3.0422 179.6378 3 L 180.3622 3 C 181.267 3 182 3.7142 182 4.6384 L 182 25.361 C 182 26.2855 181.267 27 180.3622 27 ZM 159 26.1021 L 159 19 L 156 19 L 156 21.6038 L 156 25.7124 C 156 26.6368 155.5282 27.3512 154.6009 27.3512 C 153.7158 27.3512 153 26.6368 153 25.7124 L 153 4.2454 C 153 3.3632 153.7158 2.6491 154.6009 2.6491 C 155.5282 2.6491 156 3.536 156 4.4182 L 156 11 L 158.9915 11 L 159 8.4091 L 159 3.7386 C 159 1.7222 157.399 0.0419 155.3763 0 L 153.792 0 C 151.6853 0 150 1.68 150 3.7386 L 150 26.2611 C 150 28.3197 151.6853 30 153.792 30 L 155.3763 30 C 157.399 29.916 159 28.1185 159 26.1021 ZM 110 3 L 110 0 L 99.887 0 C 99.7112 0 99 -0.0427 99 -0.0427 L 99 3 L 103 3 L 103 29.3569 L 103 30 L 106 30 L 106 3 L 106.7254 3 L 108.917 3 L 110 3 ZM 82.0388 30 L 84.9964 30 L 84.9964 18.5139 C 84.9964 18.5139 85.0785 16.2857 83.9284 15.6854 C 85.1198 15.3855 84.9964 13.0282 84.9964 13.0282 L 84.9964 3.7713 C 84.9964 1.6712 83.353 0 81.3814 0 L 76 0 L 76 30 L 78.9576 30 L 78.9576 17.0999 L 80.5185 17.0999 C 81.2993 17.0999 82.0388 17.5713 82.0388 19.0286 L 82.0388 30 ZM 80.5185 14.1856 L 78.9576 14.1856 L 78.9576 2.8713 L 80.5185 2.8713 C 81.2993 2.8713 82.0388 3.2999 82.0388 4.414 L 82.0388 12.4712 C 82.0388 13.8427 81.2993 14.1856 80.5185 14.1856 ZM 56.2501 0 L 53.8794 0 C 51.7243 0 50 1.6803 50 3.7392 L 50 26.3024 C 50.0435 28.3194 51.7673 30 53.8794 30 L 56.2501 30 C 58.319 29.916 59.957 28.3194 60 26.3024 L 60 3.7392 C 60 1.7225 58.319 0.084 56.2501 0 ZM 55.3619 27 L 54.6378 27 C 53.7327 26.9578 53 26.2433 53 25.361 L 53 4.6384 C 53 3.7564 53.7327 3.0422 54.6378 3 L 55.3619 3 C 56.2673 3 57 3.7142 57 4.6384 L 57 25.361 C 57 26.2855 56.2673 27 55.3619 27 ZM 31.2086 0 L 26 0 L 26 29.3569 C 26 29.5711 26.0417 30 26.0417 30 L 29 30.4571 L 29 17 L 30.75 17 C 33.6252 17 35 14.8999 35 11.9856 L 35 3.7713 C 35 1.6712 33.2083 0 31.2086 0 ZM 32 4.457 L 32 12.5427 C 31.9167 13.3569 31.2916 14 30.4582 14 L 29 14 L 29 3 L 30.4165 3 C 31.2499 3 31.9167 3.6428 32 4.457 ZM 131 8 L 133.9975 8 L 134 5.3574 L 134 3.9067 C 134 1.8902 132.3567 0.0419 130.3343 0 L 128.7922 0 C 126.6853 0 125 1.8481 125 3.9067 L 125 6.934 C 125 6.934 124.8734 8.9086 126.3484 11.5972 L 129.6938 18.3606 C 129.6938 18.3606 131 20.6294 131 22.3518 L 131 25.7124 C 131 26.6368 130.7634 27.3512 129.8789 27.3512 C 128.9941 27.3512 128 27.0074 128 26.1252 L 128 21 L 124.9963 21 L 125 23.6052 L 125 26.2611 C 125.042 28.2775 126.6433 29.916 128.6657 30 L 130.2078 30 C 132.3147 30 134 28.3197 134 26.2611 L 134 22.5199 C 134 22.5199 134.1266 20.5454 132.6518 17.8567 L 129.3062 11.0512 C 129.3062 11.0512 128 8.8246 128 7.1021 L 128 4.2873 C 128 3.3632 128.7165 2.6491 129.6013 2.6491 C 130.4858 2.6491 131 3.6729 131 4.597 L 131 8 ZM 6 8 L 8.9975 8 L 9 5.3574 L 9 3.9067 C 9 1.8902 7.3564 0.0419 5.3343 0 L 3.7922 0 C 1.6853 0 0 1.8481 0 3.9067 L 0 6.934 C 0 6.934 -0.1266 8.9086 1.3485 11.5972 L 4.6938 18.3606 C 4.6938 18.3606 6 20.6294 6 22.3518 L 6 25.7124 C 6 26.6368 5.1816 27.3512 4.2971 27.3512 C 3.4124 27.3512 3 27.0074 3 26.1252 L 3 21 L -0.0037 21 L 0 23.6052 L 0 26.2611 C 0.042 28.2775 1.6433 29.916 3.6657 30 L 5.2075 30 C 7.3144 30 9 28.3197 9 26.2611 L 9 22.5199 C 9 22.5199 9.1263 20.5454 7.6516 17.8567 L 4.3059 11.0512 C 4.3059 11.0512 3 8.8246 3 7.1021 L 3 4.2873 C 3 3.3632 3.7162 2.6491 4.601 2.6491 C 5.4855 2.6491 6 3.6729 6 4.597 L 6 8 Z"/></svg>