<svg viewBox="0 0 21 30" xmlns="http://www.w3.org/2000/svg"><path d="M8 15h1v-3h-1v-1h1v-1h1v1h1v1h-1v3h1v1h-1v1h-1v-1h-1v-1zm12.973-9.215c.082-.219-.027-.466-.245-.55-.219-.085-.464.025-.549.245l-1.224 3.2c-.171-.099-.37-.166-.6-.19-2.289-.228-4.574-.469-6.839-.847-.252-.304-.606-.498-.995-.595 1.02-.346 1.755-1.313 1.755-2.454 0-1.432-1.154-2.593-2.577-2.593s-2.577 1.161-2.577 2.593c0 1.237.862 2.269 2.014 2.528l-.18.041c-.374.001-.689.611-.926.838h-4.106l-1.021.05c-.17-.061-.368-.132-.597-.108-.392.043-.946.022-1.307.175-1.271.54-1.384 2.216 0 2.718.727.263 1.837-.007 2.57-.054l1.671-.214-.02.434h1.557l-.677 5.726-3.154 4.298 1.489.254c-1.327 1.706-2.736 3.348-4.074 5.048-1.109 1.409.861 3.501 1.982 2.076 1.671-2.123 3.441-4.164 5.059-6.325h.415l1.544-2.077h1.876c1.009.972 2.03 1.929 3.055 2.882l-.655 4.346c-.271 1.778 2.429 2.541 2.702.75l.793-5.202c.192-1.262-1.027-1.991-1.838-2.754l-1.338-1.265.808-.454-2.85-2.591.545-4.397 4.678.626.259-.731.963.097c1.162.116 1.564-1.018 1.226-1.884l1.391-3.638zM8 13v1h3v-1h-3z"/></svg>