<svg viewBox="0 0 39 30" xmlns="http://www.w3.org/2000/svg"><path d="M37 12.368c-1.105 0-2 .413-2 .923v4.417c0 .51.895.923 2 .923s2-.413 2-.923v-4.417c0-.51-.895-.923-2-.923zm-35 0c-1.105 0-2 .413-2 .923v4.417c0 .51.895.923 2 .923s2-.413 2-.923v-4.417c0-.51-.895-.923-2-.923zm30.5-1.368c-.829 0-1.5.487-1.5 1.088v7.246c0 .601.672 1.088 1.5 1.088s1.5-.487 1.5-1.088v-7.246c0-.601-.672-1.088-1.5-1.088zm-25.5-.421c-1.105 0-2 .649-2 1.45v6.941c0 .801.896 1.45 2 1.45s2-.649 2-1.45v-6.941c0-.801-.895-1.45-2-1.45zm5-2.684c-1.105 0-2 1.063-2 2.373v11.358c0 1.311.896 2.373 2 2.373s2-1.063 2-2.373v-3.627h12v3.495c0 1.384.895 2.505 2 2.505s2-1.122 2-2.505v-11.989c0-1.384-.895-2.505-2-2.505s-2 1.121-2 2.505v3.495h-12v-2.732c0-1.311-.895-2.373-2-2.373z"/></svg>