<svg viewBox="0 0 22 30" xmlns="http://www.w3.org/2000/svg"><path d="M.054 6.54c-.952 19.912 10.937 21.46 10.937 21.46 12.6-3.694 10.937-21.367 10.937-21.367-7.92.62-10.942-3.633-10.942-3.633-3.251 4.601-10.931 3.54-10.931 3.54zm5.395 15.545h.056l-.007.015-.049-.014zm12.651-12.805l.015.051-.015.006v-.057zm-2.415 10.36c-2.658 2.691-6.437 3.538-9.814 2.57l.024-.129c0-.046.009-3.959 2.146-7.348l.212.226c.293.352.805-.138.513-.488-.099-.119-.21-.227-.323-.329.19-.262.393-.519.612-.77l.255.264c.293.352.805-.138.513-.488l-.281-.293c.188-.186.383-.364.583-.534l.274.28c.293.352.805-.138.513-.488l-.224-.239c1.95-1.423 4.436-2.144 7.414-2.144l.124-.025c.957 3.419.12 7.243-2.539 9.934zm-7.822-7.916c2.361-2.389 5.604-3.324 8.667-2.826-2.589.227-4.789 1.032-6.572 2.402l-.148-.101c-.363-.241-.71.294-.415.563-.196.173-.389.351-.574.54l-.099-.067c-.377-.25-.742.338-.383.594-.218.252-.422.509-.612.77l-.06-.041c-.381-.253-.753.352-.374.604l.033.022c-1.523 2.367-2.048 4.94-2.228 6.49-.557-3.151.36-6.514 2.766-8.949z"/></svg>