<svg viewBox="0 0 26 30" xmlns="http://www.w3.org/2000/svg"><path d="M25.593 12.227l-3.305 3.277c-.244.239-.557.362-.869.362-.291 0-.584-.105-.823-.321l-2.88-2.597-3.815 4.342 3.628 1.964c.332.178.576.493.677.873.101.376.049.782-.145 1.118l-3.532 6.09c-.25.429-.683.665-1.124.665-.236 0-.474-.067-.691-.21-.62-.409-.812-1.272-.431-1.932l2.781-4.794-4.426-2.405-.93-.505c-.768-.411-.924-1.497-.414-2.189l.077-.096 5.241-5.968c-.25-.28-1.623-1.865-1.898-2.189l-4.226 1.065c-.099.026-.197.038-.296.038-.579 0-1.1-.42-1.239-1.045-.162-.727.261-1.459.946-1.631l4.961-1.252c.121-.029.233-.047.346-.047.31 0 .592.131.897.464 1.083 1.182 7.281 7.386 7.284 7.383l2.474-2.448c.244-.242.557-.362.867-.362.34 0 .68.146.932.432.48.548.45 1.406-.066 1.917zm-5.183-3.076c-1.596 0-2.89-1.377-2.89-3.076s1.294-3.076 2.89-3.076 2.89 1.377 2.89 3.076-1.294 3.076-2.89 3.076zm-11.076 9.787l.779.423-2.331 3.128c-.197.263-.474.441-.784.505l-5.43 1.109-.25.026c-.62 0-1.174-.467-1.294-1.138-.137-.762.332-1.497 1.048-1.643l4.95-1.01 2.199-2.95c.137.68.538 1.24 1.113 1.55z"/></svg>