<svg viewBox="0 0 25 30" xmlns="http://www.w3.org/2000/svg"><path d="M24.017 20.365c-.63 1.489-1.532 2.827-2.679 3.974-1.15 1.147-2.485 2.049-3.974 2.679-1.54.652-3.179.983-4.865.983-1.685 0-3.322-.331-4.865-.983-1.489-.63-2.827-1.532-3.974-2.679-1.147-1.147-2.049-2.482-2.679-3.974-.652-1.54-.983-3.177-.983-4.865 0-1.685.331-3.325.983-4.865.63-1.489 1.532-2.827 2.679-3.974 1.147-1.147 2.485-2.049 3.974-2.679 1.54-.652 3.177-.983 4.865-.983 1.688 0 3.325.331 4.865.983 1.489.63 2.827 1.532 3.974 2.679 1.147 1.15 2.049 2.485 2.679 3.974.652 1.54.983 3.177.983 4.865 0 1.685-.331 3.322-.983 4.865zm-1.034-4.902l-.468.474c-.31.312-.808.32-1.128.021l-2.555-2.396c-.186-.175-.28-.428-.25-.681l.398-3.481c.048-.436.436-.751.872-.713l.665.059c-.191-.226-.393-.444-.606-.657-1.115-1.115-2.436-1.947-3.877-2.461l.288.608c.188.396.027.87-.366 1.069l-3.123 1.586c-.226.116-.495.116-.724.003l-3.136-1.561c-.39-.194-.557-.668-.372-1.064l.283-.611c-1.411.517-2.703 1.338-3.796 2.431-.213.213-.415.433-.606.659l.665-.059c.436-.038.824.277.872.713l.399 3.481c.03.253-.065.506-.251.681l-2.555 2.396c-.32.299-.821.291-1.128-.022l-.468-.474v.035c0 2.052.584 4.012 1.674 5.691l.14-.657c.091-.428.506-.705.937-.625l3.446.638c.253.046.466.21.579.439l1.543 3.144c.194.393.038.87-.35 1.072l-.595.312c.993.307 2.041.466 3.11.466s2.116-.159 3.11-.466l-.595-.312c-.388-.205-.544-.679-.35-1.072l1.543-3.147c.113-.229.328-.393.579-.439l3.446-.638c.431-.081.845.197.937.625l.14.657c1.09-1.68 1.674-3.643 1.674-5.691v-.035zm-7.713 3.12c-.108.331-.417.557-.767.557h-4.011c-.35 0-.66-.223-.767-.557l-1.241-3.817c-.108-.331.011-.697.293-.902l3.247-2.358c.283-.205.668-.205.95 0l3.244 2.361c.283.205.401.568.293.902l-1.241 3.815z"/></svg>