<svg viewBox="0 0 30 30" xmlns="http://www.w3.org/2000/svg"><path d="M28.112 14.118c0-2.424-2.014-4.388-4.497-4.388-2.484 0-4.497 1.965-4.497 4.388s2.014 4.388 4.497 4.388c2.484 0 4.497-1.965 4.497-4.388zm-27.58 10.16c.226.159.484.233.743.233l.166-.013c.338-.043.657-.218.87-.507.825-1.123 2.104-2.006 3.592-2.491.854-.277 1.747-.417 2.623-.417 3.178 0 5.903 1.854 8.772 2.92 1.536.572 3.14.995 4.883.995.733 0 1.492-.075 2.279-.246 1.852-.398 3.439-1.256 4.587-2.46.274-.289.523-.594.743-.921.389-.572.226-1.344-.36-1.723-.217-.14-.459-.205-.701-.205-.414 0-.819.196-1.064.557-.099.146-.207.286-.325.423-.797.927-1.992 1.592-3.426 1.9-1.323.283-2.783.199-4.086-.131-1.37-.348-2.697-.93-4.105-1.549-1.498-.656-3.044-1.337-4.72-1.754-.797-.199-1.632-.296-2.477-.296-1.151 0-2.32.184-3.433.544-.972.317-1.874.759-2.684 1.316-.854.588-1.584 1.288-2.171 2.084l-.099.162c-.277.538-.124 1.213.395 1.577zm3.28-14.288l6.942.871c.242.6 1.463 3.555 1.693 4.084h-.003l-6.034 2.908c.698-.124 1.406-.186 2.116-.186.931 0 1.842.109 2.713.323 1.756.436 3.344 1.132 4.877 1.807 1.367.6 2.661 1.169 3.952 1.496l.532.121c-1.53-3.057-5.645-11.296-6.458-13.109-.383-.855-.908-1.173-1.654-1.266l-8.153-1.023c-1.125-.14-2.155.634-2.301 1.732-.14 1.098.653 2.102 1.779 2.242z"/></svg>