<svg viewBox="0 0 30 30" xmlns="http://www.w3.org/2000/svg"><path d="M14.927 19.511c-1.978.262-4.325.767-5.456 1.657-.03.129-.07.256-.13.375-1.908-.2-3.069-.956-3.581-1.38l.735-.738c.267-.268.602-.419.952-.468.849-1.192 1.327-3.52 1.573-5.461-.385-2.608.532-5.512 2.7-7.688 3.423-3.439 8.659-3.764 11.695-.723 3.036 3.04 2.722 8.292-.703 11.731-2.201 2.211-5.15 3.127-7.784 2.696zm-3.91-1.972c-.506-.506-.91-1.078-1.231-1.688-.258 1.226-.628 2.448-1.156 3.373.099.065.192.139.279.227l.102.103c.11.111.197.233.272.362.918-.536 2.137-.913 3.363-1.175-.588-.316-1.139-.71-1.629-1.201zm-8.851 6.233c.529.453 1.686 1.231 3.589 1.502l-1.084 1.087c-1.976-.18-3.173-.956-3.697-1.389l.007-.008 1.185-1.192zm1.992 3.104l-.633.636c-.658.66-1.739.649-2.414-.026l-.101-.102c-.528-.53-.645-1.308-.356-1.939.562.459 1.698 1.174 3.504 1.43zm-1.59-3.508l1.194-1.199c.529.453 1.686 1.232 3.588 1.501l-1.083 1.088c-1.979-.181-3.175-.958-3.699-1.391zm1.597-1.603l1.193-1.199c.529.454 1.686 1.231 3.588 1.501l-1.083 1.088c-1.978-.18-3.175-.957-3.698-1.39z"/><path d="M28.105 22.965c-1.914 1.99-5.427 2.323-7.417.41-1.99-1.914-1.706-5.35.207-7.34.983-1.024 2.298-1.538 3.616-1.535-.243.476-.552.911-.919 1.296-.209.219-.436.416-.676.624-.237.204-.481.417-.706.651-.617.642-.948 1.487-.93 2.377.018.891.381 1.721 1.023 2.338.625.601 1.444.93 2.308.93l.068-.001c.891-.018 1.721-.381 2.338-1.023.226-.235.427-.486.623-.731.199-.249.386-.483.597-.7.37-.383.792-.707 1.258-.97.055 1.315-.407 2.65-1.391 3.674zm-.318-3.14c-.231.238-.437.496-.635.744-.196.243-.38.474-.585.688-.502.522-1.177.816-1.899.831-.724.014-1.409-.255-1.931-.756s-.816-1.176-.831-1.9c-.014-.724.255-1.409.756-1.931.207-.214.43-.407.665-.612.241-.209.49-.425.72-.665.469-.492.851-1.057 1.138-1.68 1.012.139 1.989.588 2.78 1.35.792.762 1.279 1.721 1.457 2.726-.61.31-1.161.715-1.633 1.204z" stroke="#fff"/></svg>