<svg viewBox="0 0 33 30" xmlns="http://www.w3.org/2000/svg"><path d="M32.946 24.261l-.493 2.416c-.149.731-.886 1.324-1.646 1.324h-29.928c-.76 0-1.09-.536-.738-1.196l.444-.833c.353-.661 1.217-.988 1.93-.731l1.897.683c.713.256 1.768.081 2.355-.392l1.478-1.191c.588-.473 1.646-.658 2.363-.413l1.184.405c.718.245 1.888.265 2.614.043l1.609-.491c.726-.221 1.894-.195 2.609.058l.401.253-.026-.196v-5.21l-4.031-2.382-2.281 4s-.479.378-1.625.625l-4 1.063c-.594-.031-.969-.063-1.281-.479-.434-.579-.082-1.413.571-1.74.104-.049.21-.087.318-.111l4.063-1.011 4.693-9.059-1.782.441-2.175 4.281c-.126.267-.367.476-.677.554-.553.139-1.117-.188-1.258-.729-.077-.295-.013-.589.146-.822l2.346-4.602c.127-.265.369-.475.678-.552l4.825-1.216c.353-.09.71-.031 1.001.133l3.866 2.242 1.895-3.14c.141-.195.349-.343.601-.406.572-.144 1.152.195 1.299.754.064.244.035.489-.065.702l-2.28 3.812c-.693 1.15-1.646.563-1.646.563l-2.373-1.384-2.073 4.087 2.594 1.569s.703.374.652 1.488v6.368l1.992-1.914c.554-.51 2.584-.924 3.344-.924h1.032c.76 0 1.662-.535 2.017-1.195l.438-.736c.354-.66.931-.662 1.288-.004l1.457 2.68c.358.657.526 1.784.378 2.514zm-12.846-17.299c-1.096.277-2.214-.371-2.496-1.449-.281-1.077.38-2.172 1.476-2.449 1.097-.276 2.215.371 2.497 1.449.282 1.076-.38 2.173-1.477 2.449z"/></svg>