<svg viewBox="0 0 29 30" xmlns="http://www.w3.org/2000/svg"><path d="M26 28v-9h3v9h-3zm-4-4h-4v3.155c0 .872-.385.8-1.246.8-.856 0-1.754-.792-1.754-.792v-3.164h-1v2.609c0 .88-.51 1.391-1.375 1.391-.868 0-1.625.028-1.625-.852v-3.148h-4v4h-4v-9h4v3h4v-7.819l-6.663-7.481.362-.008c-.455-.457-.455-1.202 0-1.664.452-.458 1.186-.455 1.639 0l.008-.457 4.342 4.429h8.312l.116.016.196-.016 4.149-3.959.008-.011c.452-.455 1.188-.458 1.639 0 .453.461.72 1.576.267 2.033l-.563.75-6.813 6.188v8h4v-3h3v9h-3v-4zm-7-6h-1v4h1v-4zm-.011-9.266c-1.516 0-2.672-1.415-2.672-2.95 0-1.538 1.232-2.784 2.748-2.784 1.518 0 2.75 1.246 2.75 2.783 0 1.536-1.308 2.951-2.826 2.951zm-14.989 10.266h4v9h-4v-9z"/></svg>