<svg xmlns="http://www.w3.org/2000/svg" style="display:none;">
	<symbol id="americanFootballIco" viewBox="0 0 40 30">
		<path d="M 23.4156 3.2777 C 24.8346 3.0737 26.1772 3 27.3728 3 C 28.0064 3 28.64 3.0214 29.2555 3.0636 C 30.6794 3.1613 31.8298 4.2658 31.9316 5.633 C 32.04 7.0904 32.0541 9.0614 31.7134 11.2448 L 23.4156 3.2777 ZM 7.2866 18.7552 C 6.9459 20.9386 6.96 22.9096 7.0684 24.367 C 7.1702 25.7342 8.3207 26.8387 9.7445 26.9364 C 10.3599 26.9786 10.9933 27 11.6272 27 C 11.6276 27 11.6276 27 11.6277 27 C 12.8231 27 14.1658 26.9263 15.5844 26.7225 L 7.2866 18.7552 ZM 31.4041 12.8425 C 30.7165 15.8065 29.3152 19.0119 26.6075 21.7925 C 26.5967 21.8036 26.5858 21.8141 26.5743 21.8245 C 23.6912 24.4126 20.3589 25.7623 17.2484 26.4256 L 7.5959 17.1575 C 8.2835 14.1935 9.6848 10.9882 12.3925 8.2075 C 12.4033 8.1964 12.4142 8.1859 12.4257 8.1755 C 15.3088 5.5874 18.6411 4.2377 21.7516 3.5744 L 31.4041 12.8425 ZM 24.6744 12.8948 L 23.6767 11.937 L 24.4528 11.1919 C 24.7252 10.9302 24.7252 10.506 24.4528 10.2446 C 24.1802 9.9832 23.7386 9.9832 23.4662 10.2446 L 22.6902 10.9898 L 21.6928 10.0319 C 21.4204 9.7707 20.9788 9.7705 20.7062 10.0319 C 20.4337 10.2936 20.4337 10.7177 20.7062 10.9792 L 21.7037 11.937 L 20.5634 13.0318 L 19.566 12.074 C 19.2936 11.8127 18.8521 11.8125 18.5795 12.074 C 18.307 12.3356 18.307 12.7597 18.5795 13.0212 L 19.577 13.9789 L 18.4368 15.0738 L 17.4392 14.116 C 17.1667 13.8545 16.7252 13.8545 16.4527 14.116 C 16.1802 14.3776 16.1802 14.8017 16.4527 15.0632 L 17.4503 16.0211 L 16.3099 17.1158 L 15.3126 16.1581 C 15.0401 15.8966 14.5985 15.8966 14.326 16.1581 C 14.0536 16.4196 14.0536 16.8437 14.326 17.1053 L 15.3235 18.063 L 14.5475 18.8081 C 14.275 19.0698 14.275 19.494 14.5475 19.7554 C 14.6839 19.8861 14.8623 19.9514 15.0408 19.9514 C 15.2195 19.9514 15.3979 19.8861 15.5341 19.7554 L 16.3102 19.0102 L 17.3077 19.9681 C 17.444 20.0988 17.6224 20.1641 17.801 20.1641 C 17.9796 20.1641 18.158 20.0988 18.2943 19.9681 C 18.5668 19.7065 18.5668 19.2823 18.2943 19.0208 L 17.2969 18.063 L 18.437 16.9682 L 19.4346 17.926 C 19.5709 18.0568 19.7493 18.1221 19.9279 18.1221 C 20.1064 18.1221 20.2849 18.0568 20.4213 17.926 C 20.6936 17.6644 20.6936 17.2403 20.4213 16.9788 L 19.4237 16.0211 L 20.5639 14.9262 L 21.5615 15.884 C 21.6977 16.0148 21.8762 16.0801 22.0547 16.0801 C 22.2332 16.0801 22.4117 16.0148 22.5482 15.884 C 22.8206 15.6224 22.8206 15.1983 22.5482 14.9368 L 21.5505 13.9789 L 22.6909 12.8841 L 23.6883 13.8419 C 23.8247 13.9726 24.0031 14.0381 24.1817 14.0381 C 24.3601 14.0381 24.5387 13.9726 24.675 13.8419 C 24.9467 13.5804 24.9467 13.1563 24.6744 12.8948 Z"/>
	</symbol>
	<symbol id="australianFootballIco" viewBox="0 0 40 30">
		<path d="M 26.6682 22.2757 C 23.4976 25.7356 18.3146 27 14.5204 27 C 12.9464 27 11.624 26.7799 10.7745 26.4088 C 12.8372 21.9078 13.2407 20.1857 15.5355 17.2463 L 17.4274 19.0815 L 18.0208 18.3262 L 16.1304 16.493 C 16.3142 16.2684 17.4552 15.088 17.6367 14.8745 L 19.5135 16.693 L 20.1077 15.938 L 18.2618 14.1475 C 18.426 13.9607 19.5452 12.8164 19.7093 12.6357 L 21.5757 14.4452 L 22.1698 13.6919 L 20.3593 11.9321 C 20.5762 11.7027 21.7489 10.5223 21.9636 10.3054 L 23.7786 12.0701 L 24.3713 11.3114 L 22.6436 9.631 C 22.8409 9.4409 23.9917 8.2938 24.1861 8.1163 L 25.8656 9.7513 L 26.4597 8.9963 L 24.8947 7.4681 C 29.0067 3.7981 30.2244 4.4127 30.2274 4.4105 C 31.6583 6.9262 31.4354 17.076 26.6682 22.2757 ZM 22.6165 5.3351 L 22.023 6.0934 L 23.1829 7.1771 C 22.9885 7.3647 21.8408 8.5131 21.6494 8.7019 L 20.5304 7.6542 L 19.9353 8.4097 L 20.98 9.3875 C 20.7661 9.6109 19.5949 10.7946 19.3847 11.024 L 18.3289 10.0339 L 17.7354 10.7905 L 18.7416 11.7294 C 18.5774 11.9154 17.4628 13.0622 17.3016 13.246 L 16.2668 12.2792 L 15.6726 13.0359 L 16.6826 13.9801 C 16.4987 14.2005 15.3577 15.3813 15.1807 15.6034 L 14.1806 14.6695 L 13.5849 15.4244 L 14.582 16.3585 C 10.2908 21.882 9.6282 25.3037 9.6282 25.3037 C 8.3636 22.3734 8.7305 12.7441 13.3311 7.7243 C 16.5011 4.2644 21.681 3 25.4738 3 C 27.0778 3 28.429 3.2279 29.2785 3.6096 C 26.6509 4.7 26.111 4.5111 23.8878 6.5288 L 22.6165 5.3351 Z"/>
	</symbol>
	<symbol id="baseballIco" viewBox="0 0 40 30">
		<path d="M 29.9369 21.7203 C 28.0768 19.6058 26.9377 16.8414 26.9377 13.8102 C 26.9377 11.3221 27.6997 9.008 29.0012 7.0889 C 30.8621 9.2039 32 11.9682 32 14.9999 C 32 17.4887 31.2379 19.8016 29.9369 21.7203 ZM 28.135 23.7974 C 25.9949 25.7775 23.1409 27 19.9998 27 C 17.0718 27 14.3877 25.9439 12.303 24.1956 C 14.3248 21.6725 15.5425 18.4777 15.5425 15.0005 C 15.5425 11.5229 14.3248 8.3294 12.302 5.8057 C 14.3877 4.0572 17.071 3 19.9998 3 C 22.6003 3 25.0032 3.84 26.97 5.2508 C 25.2362 7.6678 24.2051 10.6176 24.2051 13.8114 C 24.2051 17.6662 25.7053 21.1678 28.135 23.7974 ZM 10.4053 22.1767 C 8.9021 20.1722 8 17.6923 8 14.9999 C 8 12.3074 8.9021 9.8281 10.4053 7.8227 C 11.908 9.8276 12.8097 12.3074 12.8097 14.9999 C 12.8097 17.6923 11.908 20.1722 10.4053 22.1767 Z"/>
	</symbol>
	<symbol id="basketballIco" viewBox="0 0 40 30">
		<path d="M 31.0437 19.7015 C 30.4791 18.2434 29.7101 16.8516 28.7461 15.5631 C 25.9734 11.8638 21.929 9.4606 17.353 8.804 C 17.1526 8.7755 16.9536 8.7523 16.7576 8.7323 C 17.208 7.9384 17.7271 7.1908 18.3064 6.4964 C 21.0149 7.0211 22.8151 7.0781 23.8015 6.6693 C 23.8394 6.6546 27.4681 5.1926 29.7156 8.0024 L 29.7363 7.9878 C 31.1602 9.9605 31.9977 12.383 32 15.0015 C 32 16.668 31.6599 18.2588 31.0437 19.7015 ZM 23.4175 5.7419 C 22.9038 5.9549 21.7361 6.0852 19.0907 5.6223 C 19.9968 4.6888 21.0181 3.8702 22.134 3.189 C 23.9973 3.5254 25.7126 4.2869 27.1697 5.3793 C 25.6873 5.097 24.255 5.3932 23.4175 5.7419 ZM 17.9399 5.397 C 16.1892 4.9959 16.3328 3.77 16.3566 3.6281 C 16.3566 3.6281 17.7009 3 20.0007 3 C 20.1967 3 20.3948 3.0054 20.5923 3.0154 C 19.6244 3.7097 18.7336 4.5106 17.9399 5.397 ZM 15.6602 8.6544 C 15.5028 8.6505 15.344 8.6466 15.189 8.6459 C 12.8667 8.6459 10.7581 9.2515 8.9163 10.3979 C 10.124 7.4894 12.444 5.1618 15.3401 3.9381 C 15.3833 4.7058 15.8168 5.7427 17.2319 6.2364 C 16.6389 6.994 16.1145 7.8026 15.6602 8.6544 ZM 13.8508 14.5232 C 11.7722 14.7924 10.3053 15.6141 9.4955 16.9658 C 9.0442 17.7234 8.8523 18.5512 8.806 19.342 C 8.2854 17.9942 8 16.5299 8 15.0023 C 8 13.9484 8.135 12.9277 8.391 11.9572 C 10.2251 10.499 12.4756 9.6558 15.1711 9.6504 C 14.4932 11.1671 14.0389 12.8058 13.8508 14.5232 ZM 13.7712 15.5477 C 13.7605 15.8024 13.7521 16.0555 13.7528 16.3115 C 13.7528 20.3226 15.0547 23.9078 17.2775 26.6937 C 14.312 26.0056 11.7683 24.218 10.0994 21.7846 C 9.8402 20.8519 9.4862 18.937 10.3608 17.4796 C 10.9786 16.4489 12.1262 15.7978 13.7712 15.5477 ZM 14.7817 15.4537 C 16.834 15.4135 19.7856 16.2691 20.7828 21.2238 C 21.3158 23.8808 22.5375 25.5295 24.4286 26.1575 C 23.0574 26.7014 21.5625 27 20.0023 27 C 19.6005 27 19.2041 26.9776 18.8138 26.9413 C 16.2401 24.1825 14.7578 20.4367 14.7578 16.3077 C 14.7578 16.0215 14.7655 15.7368 14.7817 15.4537 ZM 21.767 21.0255 C 20.6201 15.3379 17.0276 14.4461 14.8689 14.4538 C 15.0725 12.7665 15.5476 11.1671 16.2524 9.6951 C 16.5648 9.7198 16.884 9.7538 17.208 9.8 C 23.584 10.7158 28.5702 15.2114 30.4182 20.9606 C 29.3516 22.8215 27.8021 24.3707 25.938 25.433 C 23.679 25.2749 22.3308 23.8415 21.767 21.0255 Z"/>
	</symbol>
	<symbol id="bodybuildingIco" viewBox="0 0 40 30">
		<path d="M 16.1365 25.0256 C 16.3869 25.2664 16.3691 25.5071 16.0829 25.7479 L 14.9024 26.8315 C 14.652 27.0722 14.4016 27.0551 14.1511 26.7799 L 7.1755 19.608 C 6.9249 19.3328 6.9428 19.0748 7.2289 18.8341 L 8.4095 17.7506 C 8.6599 17.5098 8.9103 17.527 9.1608 17.8021 L 16.1365 25.0256 ZM 24.9905 11.4558 C 25.2408 11.6967 25.2408 11.9374 24.9905 12.1782 L 17.478 18.9373 C 17.1918 19.178 16.9234 19.178 16.6731 18.9373 L 14.9024 17.0797 C 14.6519 16.8047 14.6519 16.5467 14.9024 16.3058 L 22.4147 9.5468 C 22.7009 9.306 22.9692 9.3232 23.2196 9.5983 L 24.9905 11.4558 L 24.9905 11.4558 ZM 18.7122 22.7038 C 18.9625 22.9445 18.9447 23.1853 18.6584 23.4261 L 17.478 24.5096 C 17.1918 24.7504 16.9234 24.7504 16.6731 24.5096 L 9.751 17.2861 C 9.5007 17.0454 9.5007 16.8047 9.751 16.5638 L 10.9852 15.4803 C 11.2356 15.2395 11.486 15.2395 11.7364 15.4803 L 18.7122 22.7038 ZM 30.2491 11.7139 C 30.4994 11.9546 30.4994 12.1953 30.2491 12.4362 L 29.0149 13.5197 C 28.7645 13.7605 28.5141 13.7605 28.2637 13.5197 L 21.3416 6.2962 C 21.0909 6.0555 21.0909 5.8147 21.3416 5.5739 L 22.522 4.4904 C 22.8083 4.2496 23.0765 4.2496 23.327 4.4904 L 30.2491 11.7139 ZM 32.8246 9.392 C 33.0751 9.6672 33.0573 9.9252 32.7711 10.1659 L 31.5905 11.2495 C 31.3402 11.4903 31.0897 11.4731 30.8393 11.1979 L 23.8635 4.026 C 23.6132 3.7509 23.631 3.4929 23.9171 3.2521 L 25.0977 2.1685 C 25.348 1.9278 25.5985 1.9449 25.8489 2.2201 L 32.8246 9.392 L 32.8246 9.392 Z"/>
	</symbol>
	<symbol id="boxingIco" viewBox="0 0 40 30">
		<path d="M 28.8004 20.8651 C 27.2964 22.3867 24.9438 22.656 23.4967 23.3362 L 19.037 27 C 17.6362 26.1789 16.4107 25.2368 15.3323 24.1465 C 14.254 23.0557 13.3229 21.8165 12.511 20.3992 L 16.1334 15.8884 C 17.8177 9.637 19.7791 10.1748 20.5475 10.5575 C 20.5475 10.5575 20.5258 10.1993 20.7521 9.3374 C 21.2256 7.534 24.1597 4.8774 29.2717 10.0476 C 33.8988 14.7275 31.8839 17.7461 28.8004 20.8651 ZM 22.0462 20.0341 C 21.743 19.7278 21.2518 19.7267 20.9476 20.0324 L 19.6511 19.778 L 19.3998 18.4668 C 19.7017 18.1592 19.7013 17.6624 19.3978 17.3555 C 19.094 17.0481 18.6013 17.048 18.2974 17.3555 C 17.9935 17.6629 17.9935 18.1612 18.2974 18.4687 C 18.3694 18.5415 18.4521 18.5965 18.5403 18.6351 L 18.7246 19.5966 L 17.7738 19.4104 C 17.736 19.3209 17.6816 19.2374 17.6096 19.1647 C 17.3056 18.8572 16.8129 18.8572 16.509 19.1647 C 16.205 19.4721 16.2051 19.9704 16.509 20.2778 C 16.5776 20.347 16.6559 20.4 16.7392 20.4379 L 16.9159 21.4544 L 15.9105 21.2759 C 15.8731 21.1916 15.8209 21.1122 15.7524 21.0431 C 15.4484 20.7357 14.9557 20.7357 14.6517 21.0431 C 14.3478 21.3504 14.3478 21.8488 14.6517 22.1562 C 14.9557 22.4637 15.4484 22.4637 15.7524 22.1563 C 15.7549 22.1535 15.7572 22.1508 15.7596 22.148 L 17.0768 22.3821 L 17.308 23.7142 C 17.3054 23.7169 17.3025 23.7188 17.2999 23.7217 C 16.996 24.029 16.996 24.5274 17.2999 24.8349 C 17.6039 25.1422 18.0966 25.1423 18.4005 24.8349 C 18.7045 24.5274 18.7045 24.029 18.4006 23.7217 C 18.3321 23.6521 18.2536 23.5994 18.1702 23.5616 L 17.9939 22.5453 L 18.9989 22.7233 C 19.0365 22.8078 19.0886 22.8871 19.1571 22.9564 C 19.4611 23.2638 19.9537 23.2638 20.2576 22.9564 C 20.5616 22.6489 20.5616 22.1506 20.2576 21.8432 C 20.1858 21.7705 20.1029 21.7155 20.0148 21.6768 L 19.8307 20.7153 L 20.7815 20.9016 C 20.8192 20.9909 20.8737 21.0746 20.9456 21.1472 C 21.2495 21.4546 21.7421 21.4546 22.0462 21.1472 C 22.35 20.8398 22.35 20.3415 22.0462 20.0341 ZM 17.8329 21.6174 L 17.6015 20.2851 C 17.6036 20.2832 17.6057 20.2812 17.6074 20.2796 L 18.9041 20.5339 L 19.1555 21.8451 C 19.1535 21.8474 19.1519 21.8493 19.15 21.851 L 17.8329 21.6174 ZM 14.093 17.1664 L 13.2806 18.178 L 12.4904 17.1104 C 12.4911 17.1075 12.4922 17.1053 12.493 17.1024 L 13.7633 16.7368 L 14.093 17.1664 ZM 19.9912 9.1329 C 19.9506 9.288 19.9169 9.4294 19.889 9.5582 C 19.8391 9.555 19.7892 9.5533 19.7391 9.5533 C 19.6213 9.5533 19.505 9.563 19.3899 9.5804 C 17.0555 8.5653 14.6395 6.7049 14.6395 6.7049 C 14.6395 6.7049 16.6803 8.8587 13.8707 10.205 C 16.2436 9.2676 17.0226 11.3729 17.0226 11.3729 C 17.0226 11.3729 16.2678 12.6702 15.5516 15.0469 C 15.4682 15.1311 15.402 15.235 15.3624 15.3556 L 14.0923 15.7216 L 13.2822 14.6662 C 13.4142 14.2538 13.1917 13.8108 12.7844 13.676 C 12.3759 13.5408 11.9364 13.7659 11.8026 14.179 C 11.6688 14.5922 11.8914 15.0367 12.2997 15.1721 C 12.3964 15.2043 12.495 15.2154 12.5906 15.2092 L 13.1844 15.9827 L 12.2531 16.251 C 12.1796 16.189 12.0934 16.1389 11.9969 16.1069 C 11.5884 15.9714 11.1489 16.1967 11.015 16.6099 C 10.8812 17.0231 11.1038 17.4676 11.5123 17.603 C 11.6044 17.6337 11.6979 17.6447 11.7892 17.6406 L 12.4006 18.4667 L 11.4245 18.7671 C 11.3531 18.7088 11.2713 18.662 11.1791 18.6315 C 10.7706 18.4958 10.331 18.721 10.1973 19.1344 C 10.0634 19.5475 10.286 19.992 10.6944 20.1273 C 11.103 20.2627 11.5425 20.0377 11.6764 19.6245 C 11.6776 19.621 11.678 19.6174 11.6791 19.6141 L 12.2741 19.4312 L 11.5577 20.3233 L 11.8298 20.7982 C 11.9949 21.0863 12.1641 21.3663 12.3377 21.639 C 12.2886 21.6233 12.2394 21.6081 12.1906 21.5916 C 10.7413 21.1114 9.3572 20.4313 8 19.5383 L 9.2167 13.8591 C 9.1625 12.246 8.3375 10.0016 8.9996 7.9566 C 10.3576 3.7657 12.1098 0.5835 18.3282 2.6441 C 21.209 3.5988 22.5884 4.9789 23.1656 6.2887 C 21.4294 6.5713 20.3167 7.8936 19.9912 9.1329 Z"/>
	</symbol>
	<symbol id="crossfitIco" viewBox="0 0 40 30">
		<path d="M 4.5459 22.8651 C 4.5459 22.8651 7.5109 23.2259 8.5049 23.2247 C 9.4198 23.2247 10.78 23.2632 12.8776 21.6837 C 12.8776 21.6837 13.1851 23.4584 14.9539 24.704 C 14.9539 24.704 15.5344 25.8277 16.1979 27 L 27.7415 27 C 27.7543 26.0856 27.7007 25.1328 27.5444 24.1646 C 27.5444 24.1646 30.0505 19.3813 28.6045 16.2905 C 28.6045 16.2905 32.926 15.1078 34.7914 10.5191 C 34.7914 10.5191 36.7554 8.7939 35.6763 7.7075 C 35.6763 7.7075 34.5 5.5881 31.1604 4.157 C 31.1604 4.157 28.9497 2.8767 28.6071 2.4324 C 28.6071 2.4324 27.6738 0.9531 24.2842 3.4667 C 24.2842 3.4667 23.6974 5.391 24.8264 6.2296 C 24.8264 6.2296 26.5435 6.5267 27.3271 4.9962 C 27.3271 4.9962 27.4742 4.8016 27.1838 4.7015 C 27.1838 4.7015 27.8181 4.7502 28.1647 4.11 C 28.1647 4.11 29.6387 4.7015 30.3242 6.478 C 31.0107 8.2546 30.9109 8.3991 31.306 8.6975 C 31.306 8.6975 28.2631 9.538 27.574 11.8533 C 27.574 11.8533 24.2816 12.3951 23.7434 14.4677 C 23.7434 14.4677 21.1416 14.8606 21.6824 12.3951 C 21.6824 12.3951 22.1248 11.8533 23.3176 11.9194 C 23.3176 11.9194 23.9148 11.9534 23.4812 10.8002 C 23.4429 10.6924 23.5835 10.5646 23.6628 10.3714 C 23.7369 10.1943 23.6653 10.1615 23.3356 9.8808 C 23.2283 9.7916 23.4238 9.5906 23.5068 9.3724 C 23.5555 9.2407 23.3356 8.7616 23.3356 8.7616 C 23.3356 8.7616 23.8496 8.3598 23.8265 8.1703 C 23.7728 7.7202 22.5837 7.4893 22.3855 7.0867 C 22.3076 6.9255 22.5863 6.5673 22.5493 6.3978 C 22.415 5.755 21.7552 4.4453 20.8706 3.9336 C 19.6597 3.2356 16.354 3.0135 14.9137 5.9394 C 14.525 6.729 14.8363 8.6424 15.1752 9.4576 C 15.4922 10.2307 16.9177 12.3123 16.9177 12.3123 C 16.985 12.5107 17.4402 15.407 14.9539 16.1262 C 14.9539 16.1262 12.6941 15.9938 11.0576 17.5078 C 11.0576 17.5078 8.2754 17.2767 7.5229 18.9202 C 7.5229 18.9202 7.3293 16.0593 9.1295 14.3187 C 9.1295 14.3187 10.1753 14.5806 10.6011 14.3187 C 10.6011 14.3187 10.9285 15.3864 11.6482 14.9762 C 11.6482 14.9762 12.1577 15.1226 12.2389 14.645 C 12.2389 14.645 12.99 14.5966 12.8438 13.8559 C 12.8438 13.8559 13.2196 12.8054 12.6147 12.5107 C 12.6147 12.5107 12.6436 11.5894 11.8267 11.6221 C 11.8267 11.6221 10.3389 11.7325 9.8469 11.6889 C 9.2056 11.6349 8.0767 11.8533 7.3906 13.0712 L 5.0024 16.424 C 5.0024 16.424 3.3333 18.6597 3.1042 20.8619 C 3.1069 20.8606 2.4185 22.5043 4.5459 22.8651 Z"/>
	</symbol>
	<symbol id="cyclingIco" viewBox="0 0 40 30">
		<path d="M 28.0487 27 C 24.7621 27 22.0919 24.2183 22.0919 20.7763 C 22.0919 17.3354 24.7605 14.5531 28.0487 14.5531 C 31.3319 14.5531 34 17.3343 34 20.7763 C 34 24.2154 31.3319 27 28.0487 27 ZM 22.2534 6.5622 C 21.0488 6.5622 20.0704 5.5431 20.0687 4.2828 C 20.0687 3.026 21.0493 2 22.2534 2 C 23.4592 2 24.4391 3.0248 24.4391 4.2828 C 24.4391 5.5436 23.4586 6.5622 22.2534 6.5622 ZM 20.5247 6.3934 L 22.9208 10.3228 L 23.2692 10.215 C 24.5781 10.215 24.5781 12 23.2692 12 L 22.3463 12 C 22.0282 12.0069 21.6854 11.8421 21.4365 11.4305 L 20.0188 9.2079 L 17.0916 12.237 L 19.5 13.75 C 21.1875 14.5625 21 16.3139 21 16.3139 L 21 21.7379 C 21 22.4654 20.8226 22.875 20.125 22.875 C 19.4302 22.875 19 22.4631 19 21.7379 L 19 16.5971 L 13.2966 13.8636 C 12.7365 13.538 12.5909 12.9082 12.5909 12.1934 C 12.5909 11.7025 12.7639 11.2529 13.0612 10.9165 L 17.6798 6.0793 C 18.2489 5.4018 19.0509 5.5109 19.0503 5.5103 C 20.0161 5.5103 20.5247 6.3934 20.5247 6.3934 ZM 16.9087 20.7763 C 16.9087 24.2154 14.2433 27 10.9502 27 C 7.6697 27 5 24.2154 5 20.7763 C 5 17.3366 7.6697 14.5531 10.9502 14.5531 C 14.2412 14.5531 16.9087 17.3354 16.9087 20.7763 Z"/>
	</symbol>
	<symbol id="golfIco" viewBox="0 0 40 30">
		<path d="M 33.6877 5.109 L 27.6452 16.5989 C 27.0913 18.1986 25.7288 20.5743 22.4266 21.8564 C 22.9031 21.0215 23.1791 20.0595 23.1791 19.0328 C 23.1791 15.8573 20.5695 13.2737 17.3618 13.2737 C 14.1541 13.2737 11.5445 15.8573 11.5445 19.0328 C 11.5445 20.1297 11.8612 21.1511 12.4005 22.0257 C 8.1086 20.518 6.5748 17.0336 6.0499 15.1111 C 5.8528 14.3886 6.2615 13.399 6.8832 12.9736 C 14.1642 7.9904 21.2864 10.6803 25.1208 12.9293 L 30.2065 2.9557 C 30.8072 2.003 32.0734 1.7145 33.035 2.3093 C 33.9964 2.9041 34.2885 4.1587 33.6877 5.109 ZM 17.3671 14.1214 C 20.2019 14.1214 22.4995 16.3965 22.5002 19.2036 C 22.5002 22.0105 20.2026 24.2855 17.3671 24.2855 C 14.5317 24.2855 12.2341 22.0098 12.2341 19.2036 C 12.2341 16.3958 14.5317 14.1214 17.3671 14.1214 ZM 13.7455 17.2267 C 13.3206 17.2267 12.9757 17.5681 12.9757 17.9889 C 12.9757 18.4096 13.3206 18.751 13.7455 18.751 C 14.1705 18.751 14.5153 18.4096 14.5153 17.9889 C 14.5153 17.5681 14.1705 17.2267 13.7455 17.2267 ZM 15.285 15.4763 C 14.8601 15.4763 14.5153 15.8176 14.5153 16.2384 C 14.5153 16.6591 14.8601 17.0005 15.285 17.0005 C 15.71 17.0005 16.0547 16.6591 16.0547 16.2384 C 16.0547 15.8176 15.71 15.4763 15.285 15.4763 ZM 19.5561 15.4763 C 19.1311 15.4763 18.7863 15.8176 18.7863 16.2384 C 18.7863 16.6591 19.1311 17.0005 19.5561 17.0005 C 19.9807 17.0005 20.3259 16.6591 20.3259 16.2384 C 20.3259 15.8176 19.9807 15.4763 19.5561 15.4763 ZM 21.0956 17.2267 C 20.6706 17.2267 20.3259 17.5681 20.3259 17.9889 C 20.3259 18.4096 20.6706 18.751 21.0956 18.751 C 21.5202 18.751 21.8654 18.4096 21.8654 17.9889 C 21.8654 17.5681 21.5202 17.2267 21.0956 17.2267 ZM 21.0956 21.1511 C 21.5202 21.1511 21.8654 20.8098 21.8654 20.389 C 21.8654 19.9683 21.5202 19.6269 21.0956 19.6269 C 20.6706 19.6269 20.3259 19.9683 20.3259 20.389 C 20.3259 20.8098 20.6706 21.1511 21.0956 21.1511 ZM 19.7372 23.0696 C 20.1622 23.0696 20.507 22.7283 20.507 22.3075 C 20.507 21.8868 20.1622 21.5454 19.7372 21.5454 C 19.3123 21.5454 18.9675 21.8868 18.9675 22.3075 C 18.9675 22.7283 19.3123 23.0696 19.7372 23.0696 ZM 19.0142 20.0642 C 19.4388 20.0642 19.7839 19.7228 19.7839 19.3021 C 19.7839 18.8813 19.4388 18.54 19.0142 18.54 C 18.5892 18.54 18.2444 18.8813 18.2444 19.3021 C 18.2444 19.7228 18.5892 20.0642 19.0142 20.0642 ZM 17.4205 20.0642 C 16.9955 20.0642 16.6508 20.4056 16.6508 20.8263 C 16.6508 21.2471 16.9955 21.5884 17.4205 21.5884 C 17.8455 21.5884 18.1903 21.2471 18.1903 20.8263 C 18.1903 20.4056 17.8455 20.0642 17.4205 20.0642 ZM 18.1903 17.8764 C 18.1903 17.4557 17.8455 17.1143 17.4205 17.1143 C 16.9955 17.1143 16.6508 17.4557 16.6508 17.8764 C 16.6508 18.2972 16.9955 18.6385 17.4205 18.6385 C 17.8455 18.6385 18.1903 18.2972 18.1903 17.8764 ZM 17.3671 23.8317 C 17.7921 23.8317 18.1368 23.4904 18.1368 23.0696 C 18.1368 22.6489 17.7921 22.3075 17.3671 22.3075 C 16.9421 22.3075 16.5974 22.6489 16.5974 23.0696 C 16.5974 23.4904 16.9421 23.8317 17.3671 23.8317 ZM 17.3671 16.2384 C 17.7921 16.2384 18.1368 15.897 18.1368 15.4763 C 18.1368 15.0555 17.7921 14.7142 17.3671 14.7142 C 16.9415 14.7142 16.5974 15.0555 16.5974 15.4763 C 16.5974 15.897 16.9421 16.2384 17.3671 16.2384 ZM 16.3915 19.3021 C 16.3915 18.8813 16.0464 18.54 15.6218 18.54 C 15.1968 18.54 14.852 18.8813 14.852 19.3021 C 14.852 19.7228 15.1968 20.0642 15.6218 20.0642 C 16.0464 20.0642 16.3915 19.7228 16.3915 19.3021 ZM 15.1043 23.0696 C 15.5293 23.0696 15.874 22.7283 15.874 22.3075 C 15.874 21.8868 15.5293 21.5454 15.1043 21.5454 C 14.6793 21.5454 14.3345 21.8868 14.3345 22.3075 C 14.3345 22.7283 14.6793 23.0696 15.1043 23.0696 ZM 13.7455 21.1511 C 14.1711 21.1511 14.5153 20.8098 14.5153 20.389 C 14.5153 19.9683 14.1705 19.6269 13.7455 19.6269 C 13.3206 19.6269 12.9757 19.9683 12.9757 20.389 C 12.9757 20.8098 13.3206 21.1511 13.7455 21.1511 ZM 17.2665 25.0159 C 18.3216 25.0159 19.3152 24.7506 20.1849 24.2855 L 20.2471 24.2855 C 20.2471 25.8085 18.8306 26.5137 18 26.7969 L 18 27.3226 C 18 27.697 17 27.697 17 27.3226 L 17 26.7678 C 14.7756 26.0526 14.9375 24.75 14.9375 24.75 L 14.9375 24.625 C 15.8065 25.0901 16.2108 25.0159 17.2665 25.0159 Z"/>
	</symbol>
	<symbol id="mixedMartialArtsIco" viewBox="0 0 40 30">
		<path d="M 19 13 L 19 14 L 20 14 L 20 15 L 19 15 L 19 16 L 18 16 L 18 15 L 17 15 L 17 14 L 18 14 L 18 13 L 19 13 ZM 18 9 L 19 9 L 19 10 L 20 10 L 20 11 L 19 11 L 19 12 L 18 12 L 18 11 L 17 11 L 17 10 L 18 10 L 18 9 ZM 29.9727 4.7848 C 30.0549 4.5656 29.9458 4.3185 29.7272 4.2343 C 29.5084 4.1494 29.2634 4.2593 29.1783 4.4792 L 27.9548 7.6791 C 27.7842 7.5797 27.5844 7.5131 27.3549 7.4896 C 25.0657 7.2612 22.7814 7.0209 20.5162 6.6425 C 20.2637 6.3389 19.9098 6.1447 19.5211 6.0473 C 20.5411 5.7017 21.2756 4.7349 21.2756 3.593 C 21.2756 2.1613 20.1221 1 18.6982 1 C 17.275 1 16.1207 2.1608 16.1207 3.593 C 16.1207 4.8295 16.9825 5.8619 18.1344 6.1212 C 18.0739 6.1424 18.0126 6.1357 17.9539 6.1622 C 17.5798 6.1636 17.265 6.7734 17.0275 7 L 16.573 7 L 12.9213 7 C 12.5803 7.0228 12.2402 7.0287 11.9003 7.0496 C 11.7299 6.989 11.5319 6.9178 11.3036 6.9419 C 10.9111 6.985 10.3579 6.9641 9.9963 7.1167 C 8.7251 7.6563 8.6119 9.3325 9.9963 9.8347 C 10.7228 10.0977 11.8328 9.8275 12.5662 9.7803 C 13.1234 9.7442 13.6799 9.6053 14.2371 9.566 L 14.2172 10 L 15.7742 10 L 15.0968 15.7259 L 11.943 20.0236 L 13.4319 20.2771 C 12.1044 21.983 10.696 23.6256 9.3583 25.3254 C 8.2494 26.7338 10.2188 28.8262 11.3402 27.4017 C 13.0112 25.2791 14.7813 23.2374 16.3995 21.0769 L 16.8147 21.0769 L 18.3585 19 L 20.2345 19 C 21.2437 19.9719 22.265 20.9287 23.2897 21.8822 L 22.6345 26.2283 C 22.3638 28.0061 25.0638 28.7694 25.3365 26.9779 L 26.1294 21.7764 C 26.3213 20.5145 25.1023 19.7852 24.2917 19.0223 L 22.9534 17.7572 L 23.7612 17.3032 L 20.9116 14.7123 L 21.4562 10.3151 L 26.1337 10.9408 L 26.3927 10.2096 L 27.3557 10.3068 C 28.5172 10.4232 28.9198 9.2889 28.5817 8.4225 L 29.9727 4.7848 Z"/>
	</symbol>
	<symbol id="powerLiftingIco" viewBox="0 0 40 30">
		<path d="M 15 13 L 27 13 L 27 18 L 15 18 L 15 13 ZM 29.0001 7 L 29.0001 7 C 30.1046 7 31 8.1215 31 9.5051 L 31 21.4946 C 31 22.8782 30.1046 24 29.0001 24 L 29.0001 24 C 27.8955 24 27 22.8782 27 21.4946 L 27 9.5051 C 27 8.1215 27.8955 7 29.0001 7 ZM 38.0001 12.3685 L 38.0001 12.3685 C 39.1047 12.3685 40 12.7817 40 13.2914 L 40 17.7087 C 40 18.2184 39.1047 18.6317 38.0001 18.6317 L 38.0001 18.6317 C 36.8955 18.6317 36 18.2184 36 17.7087 L 36 13.2914 C 36 12.7817 36.8955 12.3685 38.0001 12.3685 ZM 3.0001 12.3685 L 3.0001 12.3685 C 4.1047 12.3685 5 12.7817 5 13.2914 L 5 17.7087 C 5 18.2184 4.1047 18.6317 3.0001 18.6317 L 3.0001 18.6317 C 1.8955 18.6317 1 18.2184 1 17.7087 L 1 13.2914 C 1 12.7817 1.8955 12.3685 3.0001 12.3685 ZM 33.5001 11 L 33.5001 11 C 34.3286 11 35 11.4868 35 12.0876 L 35 19.3331 C 35 19.9339 34.3286 20.4209 33.5001 20.4209 L 33.5001 20.4209 C 32.6716 20.4209 32 19.9339 32 19.3331 L 32 12.0876 C 32 11.4868 32.6716 11 33.5001 11 ZM 8.0001 10.5787 L 8.0001 10.5787 C 9.1047 10.5787 10 11.2281 10 12.0291 L 10 18.9705 C 10 19.7715 9.1047 20.4209 8.0001 20.4209 L 8.0001 20.4209 C 6.8955 20.4209 6 19.7715 6 18.9705 L 6 12.0291 C 6 11.2281 6.8955 10.5787 8.0001 10.5787 ZM 13.0001 7.8947 L 13.0001 7.8947 C 14.1046 7.8947 15 8.9572 15 10.268 L 15 21.6265 C 15 22.9373 14.1046 24 13.0001 24 L 13.0001 24 C 11.8955 24 11 22.9373 11 21.6265 L 11 10.268 C 11 8.9572 11.8955 7.8947 13.0001 7.8947 Z"/>
	</symbol>
	<symbol id="rugbyLeagueIco" viewBox="0 0 40 30">
		<path d="M 9.0542 5.5396 C 8.1025 25.4515 19.9907 27 19.9907 27 C 32.5908 23.3064 30.9275 5.6333 30.9275 5.6333 C 23.0078 6.2535 19.9851 2 19.9851 2 C 16.7344 6.6007 9.0542 5.5396 9.0542 5.5396 ZM 14.4495 21.0846 L 14.4495 21.0846 L 14.5054 21.0842 C 14.5054 21.0892 14.5002 21.0942 14.4983 21.0989 C 14.4823 21.0935 14.4661 21.09 14.4495 21.0846 ZM 27.1008 8.2798 C 27.1062 8.2964 27.1101 8.3134 27.1154 8.3304 C 27.1108 8.3319 27.1067 8.3367 27.1008 8.3367 L 27.1008 8.2798 ZM 24.686 18.6401 C 22.0276 21.3312 18.2493 22.1782 14.8716 21.21 C 14.8835 21.1679 14.8962 21.1259 14.8958 21.0811 C 14.8955 21.0352 14.9052 17.1225 17.0422 13.7336 C 17.116 13.8041 17.1871 13.8788 17.2542 13.9595 C 17.5474 14.3112 18.0593 13.8215 17.7671 13.4715 C 17.6677 13.3521 17.5574 13.2446 17.4438 13.142 C 17.6333 12.8799 17.8367 12.6228 18.0557 12.3721 C 18.1445 12.4543 18.2306 12.5406 18.3103 12.6361 C 18.6035 12.9879 19.1152 12.4982 18.8232 12.1486 C 18.7357 12.0434 18.6404 11.9476 18.5417 11.8553 C 18.7294 11.6689 18.9242 11.4911 19.1249 11.3209 C 19.2207 11.4077 19.3132 11.499 19.3987 11.6014 C 19.6919 11.9529 20.2037 11.4634 19.9117 11.1136 C 19.8409 11.0292 19.7654 10.951 19.6875 10.8749 C 21.6379 9.4517 24.1238 8.7314 27.1013 8.7314 C 27.1451 8.7314 27.1848 8.718 27.2251 8.7062 C 28.1818 12.1248 27.3452 15.9494 24.686 18.6401 ZM 16.8645 10.7238 C 19.2252 8.3344 22.469 7.3998 25.5316 7.8974 C 22.943 8.1245 20.7429 8.9298 18.96 10.2998 C 18.9106 10.2661 18.8619 10.2322 18.8123 10.1989 C 18.4496 9.9584 18.1021 10.493 18.3971 10.7618 C 18.2009 10.9348 18.0081 11.1129 17.823 11.3014 C 17.7898 11.2788 17.7574 11.2561 17.7239 11.2338 C 17.3474 10.9838 16.9817 11.5721 17.3406 11.8281 C 17.1227 12.0798 16.9189 12.3367 16.7286 12.598 C 16.7085 12.5845 16.6885 12.5701 16.6682 12.5568 C 16.2876 12.3039 15.9155 12.9087 16.2942 13.1605 C 16.3051 13.1681 16.3157 13.1756 16.327 13.1827 C 14.8044 15.55 14.2793 18.123 14.0989 19.6727 C 13.5422 16.5216 14.4585 13.1586 16.8645 10.7238 Z"/>
	</symbol>
	<symbol id="runningIco" viewBox="0 0 40 30">
		<path d="M 32.593 11.2273 L 29.2885 14.5044 C 29.0445 14.7437 28.7319 14.8662 28.4193 14.8662 C 28.1285 14.8662 27.8351 14.7612 27.5966 14.5452 L 24.7171 11.9481 L 20.9025 16.2903 L 24.5306 18.2542 C 24.8624 18.4323 25.1065 18.7474 25.208 19.1268 C 25.3094 19.5032 25.2574 19.9089 25.0626 20.2444 L 21.5306 26.3347 C 21.281 26.7636 20.8477 27 20.4063 27 C 20.1703 27 19.9318 26.9329 19.7151 26.7899 C 19.0954 26.3814 18.9034 25.5176 19.2846 24.858 L 22.0652 20.0635 L 17.6392 17.6589 L 16.7097 17.1541 C 15.9417 16.7427 15.7855 15.657 16.2955 14.9655 C 16.3203 14.9333 16.3449 14.9012 16.3723 14.8691 C 18.1191 12.879 19.866 10.8917 21.6129 8.9015 C 21.3632 8.6213 19.9894 7.0368 19.7151 6.7128 L 15.4893 7.778 C 15.3905 7.8043 15.2919 7.8159 15.1931 7.8159 C 14.6144 7.8159 14.0934 7.3957 13.9536 6.7712 C 13.7919 6.0446 14.2141 5.3121 14.8997 5.1399 L 19.8605 3.8881 C 19.9811 3.8589 20.0936 3.8414 20.2061 3.8414 C 20.5159 3.8414 20.7984 3.9727 21.1027 4.3054 C 22.186 5.4872 28.3835 11.6912 28.3864 11.6884 L 30.8599 9.2399 C 31.1039 8.9978 31.4165 8.8782 31.7264 8.8782 C 32.0665 8.8782 32.4065 9.024 32.6588 9.3101 C 33.1387 9.8586 33.1085 10.7166 32.593 11.2273 ZM 27.41 8.1515 C 25.8138 8.1515 24.5197 6.7744 24.5197 5.0758 C 24.5197 3.3771 25.8138 2 27.41 2 C 29.0064 2 30.3004 3.3771 30.3004 5.0758 C 30.3004 6.7744 29.0064 8.1515 27.41 8.1515 ZM 16.3339 17.939 L 17.1127 18.3622 L 14.7818 21.4904 C 14.5843 21.7531 14.3074 21.9312 13.9975 21.9954 L 8.5677 23.1042 C 8.4855 23.1218 8.4005 23.1305 8.3182 23.1305 C 7.6984 23.1305 7.1445 22.6636 7.0238 21.9924 C 6.8867 21.2308 7.3557 20.4954 8.0714 20.3495 L 13.0212 19.3398 L 15.2205 16.3895 C 15.3577 17.0695 15.7581 17.6298 16.3339 17.939 Z"/>
	</symbol>
	<symbol id="soccerIco" viewBox="0 0 40 30">
		<path d="M 31.0173 19.3648 C 30.3874 20.8536 29.4855 22.1917 28.3386 23.3386 C 27.189 24.4855 25.8536 25.3874 24.3648 26.0173 C 22.8249 26.6689 21.1853 27 19.5 27 C 17.8147 27 16.1778 26.6689 14.6352 26.0173 C 13.1464 25.3874 11.8083 24.4855 10.6614 23.3386 C 9.5145 22.1917 8.6126 20.8564 7.9827 19.3648 C 7.3311 17.8249 7 16.188 7 14.5 C 7 12.8147 7.3311 11.1751 7.9827 9.6352 C 8.6126 8.1464 9.5145 6.8083 10.6614 5.6614 C 11.8083 4.5145 13.1464 3.6126 14.6352 2.9827 C 16.1751 2.3311 17.812 2 19.5 2 C 21.188 2 22.8249 2.3311 24.3648 2.9827 C 25.8536 3.6126 27.1917 4.5145 28.3386 5.6614 C 29.4855 6.811 30.3874 8.1464 31.0173 9.6352 C 31.6689 11.1751 32 12.812 32 14.5 C 32 16.1853 31.6689 17.8222 31.0173 19.3648 ZM 29.9835 14.4623 L 29.5151 14.9362 C 29.2054 15.2484 28.7074 15.2565 28.387 14.9576 L 25.8322 12.5616 C 25.6464 12.3866 25.5521 12.1335 25.5818 11.8804 L 25.9802 8.3994 C 26.0286 7.9633 26.4163 7.6483 26.8524 7.686 L 27.5175 7.7452 C 27.3263 7.519 27.1244 7.301 26.9117 7.0883 C 25.7971 5.9737 24.4752 5.1418 23.0349 4.6276 L 23.323 5.2361 C 23.5114 5.6318 23.3499 6.1057 22.9568 6.3049 L 19.8339 7.8906 C 19.6077 8.0063 19.3385 8.0063 19.1096 7.8932 L 15.9732 6.3318 C 15.5828 6.1379 15.4159 5.6641 15.6016 5.2684 L 15.8843 4.6572 C 14.4736 5.1741 13.1813 5.9953 12.0883 7.0883 C 11.8756 7.301 11.6737 7.5217 11.4826 7.7479 L 12.1476 7.6887 C 12.5837 7.651 12.9714 7.9659 13.0198 8.4022 L 13.4183 11.8832 C 13.4479 12.1362 13.3536 12.3893 13.1678 12.5643 L 10.613 14.9604 C 10.2926 15.2592 9.7918 15.2511 9.4849 14.9388 L 9.0165 14.465 C 9.0165 14.4758 9.0165 14.4893 9.0165 14.5 C 9.0165 16.5515 9.6007 18.5114 10.691 20.1913 L 10.8311 19.5345 C 10.9225 19.1064 11.3372 18.8291 11.7679 18.9099 L 15.214 19.5479 C 15.467 19.5937 15.6797 19.7579 15.7928 19.9868 L 17.3354 23.1312 C 17.5293 23.5243 17.3732 24.0009 16.9855 24.2028 L 16.3905 24.5151 C 17.3839 24.822 18.4312 24.9808 19.5 24.9808 C 20.5688 24.9808 21.6161 24.822 22.6095 24.5151 L 22.0145 24.2028 C 21.6268 23.9982 21.4707 23.5243 21.6646 23.1312 L 23.2072 19.9841 C 23.3203 19.7552 23.5357 19.591 23.786 19.5452 L 27.2321 18.9072 C 27.6628 18.8264 28.0774 19.1037 28.1689 19.5317 L 28.309 20.1887 C 29.3993 18.5087 29.9835 16.5461 29.9835 14.4973 C 29.9835 14.4865 29.9835 14.4731 29.9835 14.4623 ZM 22.2703 17.5826 C 22.1626 17.9138 21.853 18.1399 21.503 18.1399 L 17.4916 18.1399 C 17.1416 18.1399 16.832 17.9164 16.7243 17.5826 L 15.4832 13.765 C 15.3755 13.4339 15.494 13.0677 15.7766 12.8631 L 19.0235 10.5047 C 19.3062 10.3001 19.6912 10.3001 19.9738 10.5047 L 23.218 12.8658 C 23.5006 13.0704 23.6191 13.4339 23.5114 13.7677 L 22.2703 17.5826 Z"/>
	</symbol>
	<symbol id="tennisIco" viewBox="0 0 40 30">
		<path d="M 19.9268 18.5104 C 17.9486 18.7726 15.6022 19.2775 14.4706 20.1678 C 14.4402 20.2966 14.4001 20.4233 14.3405 20.5424 C 12.4325 20.3426 11.2715 19.5866 10.7594 19.1626 L 11.4946 18.4242 C 11.7612 18.1561 12.0967 18.0051 12.4462 17.9566 C 13.2954 16.7647 13.7736 14.4369 14.0193 12.4955 C 13.6342 9.8871 14.5513 6.984 16.7189 4.8074 C 20.1416 1.3681 25.3782 1.0438 28.4138 4.084 C 31.4497 7.1239 31.1353 12.3759 27.7112 15.8147 C 25.5098 18.026 22.5608 18.9421 19.9268 18.5104 ZM 16.0166 16.5384 C 15.5107 16.0327 15.1067 15.4604 14.7854 14.8502 C 14.5273 16.0757 14.1573 17.2985 13.6294 18.2227 C 13.728 18.2878 13.8213 18.3621 13.9084 18.4493 L 14.0109 18.5517 C 14.1212 18.6627 14.2083 18.7852 14.2832 18.9141 C 15.2009 18.3779 16.4204 18.0015 17.6458 17.7391 C 17.0581 17.4228 16.5068 17.0295 16.0166 16.5384 ZM 7.1658 22.7718 C 7.6951 23.2245 8.8521 24.0027 10.7546 24.2734 L 9.671 25.3607 C 7.6946 25.1807 6.498 24.4045 5.9738 23.9716 C 5.976 23.9684 5.978 23.9657 5.9812 23.9634 L 7.1658 22.7718 ZM 9.1582 25.8759 L 8.5256 26.512 C 7.8677 27.1724 6.7866 27.1614 6.1118 26.4861 L 6.0103 26.3843 C 5.4819 25.8548 5.365 25.0764 5.6541 24.4457 C 6.2166 24.9047 7.3519 25.6198 9.1582 25.8759 ZM 7.5685 22.3685 L 8.7625 21.1694 C 9.2914 21.6226 10.4486 22.4009 12.3501 22.6708 L 11.2672 23.7593 C 9.2886 23.5783 8.0923 22.8016 7.5685 22.3685 ZM 9.165 20.7653 L 10.3579 19.5662 C 10.8867 20.0198 12.0442 20.7971 13.9458 21.0671 L 12.8629 22.1555 C 10.8853 21.9753 9.688 21.1984 9.165 20.7653 Z"/>
		<path d="M 33.1046 21.9653 C 31.1904 23.9557 27.678 24.2881 25.6875 22.375 C 23.6973 20.4607 23.9819 17.025 25.8948 15.0345 C 26.8779 14.0104 28.193 13.4966 29.5106 13.5 C 29.2672 13.9762 28.9591 14.4105 28.592 14.7959 C 28.3829 15.0153 28.1558 15.2119 27.9158 15.42 C 27.6792 15.6246 27.4349 15.8372 27.2098 16.0713 C 26.5927 16.7135 26.2618 17.5582 26.2802 18.4482 C 26.2982 19.3394 26.6609 20.1692 27.3031 20.7865 C 27.9281 21.3878 28.7467 21.7163 29.6116 21.7163 C 29.6344 21.7163 29.6572 21.7152 29.6798 21.7152 C 30.5709 21.697 31.4008 21.3344 32.0179 20.6921 C 32.2441 20.4568 32.4453 20.2056 32.6409 19.9612 C 32.8398 19.7123 33.0272 19.4781 33.2377 19.261 C 33.6082 18.8779 34.0299 18.5538 34.4957 18.2913 C 34.5504 19.6066 34.0889 20.941 33.1046 21.9653 ZM 32.7864 18.8256 C 32.5557 19.0643 32.3497 19.3212 32.151 19.5701 C 31.9552 19.8134 31.7714 20.0442 31.5656 20.2579 C 31.0641 20.7797 30.389 21.074 29.6663 21.0889 C 28.942 21.1025 28.257 20.8342 27.7351 20.3329 C 27.2134 19.8317 26.9191 19.1564 26.9041 18.4334 C 26.8905 17.7093 27.1587 17.0239 27.6602 16.5022 C 27.8669 16.2884 28.0898 16.0952 28.3248 15.8906 C 28.5659 15.6814 28.8149 15.4655 29.0444 15.2256 C 29.5138 14.7334 29.8958 14.1684 30.1823 13.5455 C 31.194 13.6841 32.1713 14.1332 32.9624 14.8959 C 33.7546 15.6575 34.2412 16.6169 34.4197 17.6218 C 33.8093 17.9321 33.259 18.3368 32.7864 18.8256 Z" stroke="#ffffff" stroke-width="1"/>
	</symbol>
	<symbol id="trackFieldIco" viewBox="0 0 40 30">
		<path d="M 35.9462 23.2606 L 35.4531 25.6763 C 35.3042 26.4077 34.5669 27 33.8074 27 L 3.879 27 C 3.1195 27 2.7886 26.4643 3.1412 25.804 L 3.5852 24.9708 C 3.938 24.3098 4.8018 23.9827 5.5149 24.2399 L 7.4124 24.9228 C 8.1254 25.1788 9.1802 25.0037 9.7678 24.531 L 11.2457 23.3397 C 11.8335 22.8671 12.8912 22.6815 13.6089 22.9266 L 14.7926 23.3311 C 15.5105 23.576 16.6807 23.5956 17.4066 23.3743 L 19.0159 22.8832 C 19.7422 22.6625 20.9099 22.6879 21.6246 22.9409 L 22.0259 23.1941 C 22.0159 23.1288 22.0006 23.0635 22 22.9982 L 22 17.7889 L 17.9688 15.4063 L 15.6875 19.4063 C 15.6875 19.4063 15.208 19.784 14.0625 20.0313 L 10.0625 21.0938 C 9.4688 21.0625 9.0938 21.0313 8.7815 20.6149 C 8.3474 20.0361 8.6997 19.2015 9.3521 18.8745 C 9.4557 18.8254 9.5618 18.7873 9.67 18.7635 L 13.7332 17.7524 L 18.4259 8.6938 L 16.644 9.1347 L 14.4694 13.4161 C 14.3433 13.683 14.1025 13.8917 13.7921 13.9697 C 13.2393 14.1089 12.6746 13.7813 12.5337 13.241 C 12.4565 12.9464 12.5203 12.6517 12.6798 12.4189 L 15.0259 7.8168 C 15.1525 7.5521 15.3945 7.3423 15.7041 7.2645 L 20.5289 6.0488 C 20.8821 5.9592 21.2385 6.0181 21.5298 6.1822 L 25.3958 8.424 L 27.2909 5.2843 C 27.4321 5.0896 27.6401 4.9417 27.8916 4.8787 C 28.4633 4.7348 29.0439 5.0734 29.1906 5.6327 C 29.2549 5.8771 29.2258 6.1215 29.1257 6.3342 L 26.8457 10.1464 C 26.1526 11.2968 25.1997 10.7098 25.1997 10.7098 L 22.8271 9.3253 L 20.7539 13.4127 L 23.3475 14.9819 C 23.3475 14.9819 24.0508 15.3558 24 16.4703 L 24 22.8381 L 25.9922 20.924 C 26.5464 20.4138 28.5758 20 29.3359 20 L 30.3677 20 C 31.1274 20 32.03 19.465 32.3848 18.8052 L 32.8228 18.0696 C 33.1765 17.4092 33.7537 17.4075 34.1111 18.0657 L 35.568 20.746 C 35.926 21.4034 36.0945 22.5297 35.9462 23.2606 ZM 23.0999 5.9615 C 22.0039 6.2382 20.8857 5.59 20.6035 4.5129 C 20.3223 3.436 20.9834 2.3405 22.0793 2.0637 C 23.1764 1.7875 24.2947 2.4346 24.5767 3.5128 C 24.8589 4.5886 24.1963 5.6859 23.0999 5.9615 Z"/>
	</symbol>
	<symbol id="weightliftingIco" viewBox="0 0 40 30">
		<path d="M 31 27 L 31 18 L 34 18 L 34 27 L 31 27 ZM 27 23 L 23 23 L 23 26.1553 C 23 27.0279 22.6146 26.9557 21.754 26.9557 C 20.8976 26.9557 20 26.1636 20 26.1636 L 20 23 L 19 23 L 19 25.6092 C 19 26.4889 18.49 27 17.625 27 C 16.7573 27 16 27.0279 16 26.1483 L 16 23 L 12 23 L 12 27 L 8 27 L 8 18 L 12 18 L 12 21 L 16 21 L 16 13.1812 L 9.3369 5.7004 C 9.3369 5.7004 9.702 5.6962 9.6985 5.692 C 9.2437 5.235 9.2437 4.4896 9.6985 4.0278 C 10.1508 3.5702 10.8841 3.573 11.3375 4.0278 C 11.3389 4.0362 11.3402 3.5692 11.3458 3.5706 L 15.6876 8 L 24 8 L 24.1162 8.0164 L 24.3125 8 L 28.4619 4.0408 C 28.4653 4.0393 28.4673 4.038 28.4695 4.0292 C 28.9217 3.5747 29.6572 3.5715 30.108 4.0292 C 30.5611 4.4903 30.8281 5.6049 30.375 6.0625 C 30.3723 6.0667 29.814 6.8125 29.8125 6.8125 L 23 13 L 23 21 L 27 21 L 27 18 L 30 18 L 30 27 L 27 27 L 27 23 ZM 20 17 L 19 17 L 19 21 L 20 21 L 20 17 ZM 19.9887 7.7341 C 18.473 7.7341 17.3168 6.3192 17.3168 4.7841 C 17.3168 3.2461 18.5492 2 20.0649 2 C 21.5827 2 22.8146 3.2461 22.8146 4.7833 C 22.8146 6.3192 21.5065 7.7341 19.9887 7.7341 ZM 5 18 L 9 18 L 9 27 L 5 27 L 5 18 Z"/>
	</symbol>
</svg>