<svg xmlns="http://www.w3.org/2000/svg" xmlns:xlink="http://www.w3.org/1999/xlink">
  <symbol id="logoIco" viewBox="0 0 235 30">
    <path d="M 235 30 L 235 0 L 232 0 L 232 17.2714 L 228.4464 0 L 225 0 L 225 30 L 228 30 L 228 13.243 L 231.7805 30 L 235 30 ZM 210 30 L 210 0 L 207 0 L 207 17.2714 L 203.447 0 L 200 0 L 200 30 L 203 30 L 203 13.243 L 206.7799 30 L 210 30 ZM 181.2503 0 L 178.8789 0 C 176.7238 0 175 1.6803 175 3.7392 L 175 26.3024 C 175.0432 28.3194 176.767 30 178.8789 30 L 181.2503 30 C 183.3189 29.916 184.9568 28.3194 185 26.3024 L 185 3.7392 C 185 1.7225 183.3189 0.084 181.2503 0 ZM 180.3622 27 L 179.6378 27 C 178.7324 26.9578 178 26.2433 178 25.361 L 178 4.6384 C 178 3.7564 178.7324 3.0422 179.6378 3 L 180.3622 3 C 181.267 3 182 3.7142 182 4.6384 L 182 25.361 C 182 26.2855 181.267 27 180.3622 27 ZM 159 26.1021 L 159 19 L 156 19 L 156 21.6038 L 156 25.7124 C 156 26.6368 155.5282 27.3512 154.6009 27.3512 C 153.7158 27.3512 153 26.6368 153 25.7124 L 153 4.2454 C 153 3.3632 153.7158 2.6491 154.6009 2.6491 C 155.5282 2.6491 156 3.536 156 4.4182 L 156 11 L 158.9915 11 L 159 8.4091 L 159 3.7386 C 159 1.7222 157.399 0.0419 155.3763 0 L 153.792 0 C 151.6853 0 150 1.68 150 3.7386 L 150 26.2611 C 150 28.3197 151.6853 30 153.792 30 L 155.3763 30 C 157.399 29.916 159 28.1185 159 26.1021 ZM 110 3 L 110 0 L 99.887 0 C 99.7112 0 99 -0.0427 99 -0.0427 L 99 3 L 103 3 L 103 29.3569 L 103 30 L 106 30 L 106 3 L 106.7254 3 L 108.917 3 L 110 3 ZM 82.0388 30 L 84.9964 30 L 84.9964 18.5139 C 84.9964 18.5139 85.0785 16.2857 83.9284 15.6854 C 85.1198 15.3855 84.9964 13.0282 84.9964 13.0282 L 84.9964 3.7713 C 84.9964 1.6712 83.353 0 81.3814 0 L 76 0 L 76 30 L 78.9576 30 L 78.9576 17.0999 L 80.5185 17.0999 C 81.2993 17.0999 82.0388 17.5713 82.0388 19.0286 L 82.0388 30 ZM 80.5185 14.1856 L 78.9576 14.1856 L 78.9576 2.8713 L 80.5185 2.8713 C 81.2993 2.8713 82.0388 3.2999 82.0388 4.414 L 82.0388 12.4712 C 82.0388 13.8427 81.2993 14.1856 80.5185 14.1856 ZM 56.2501 0 L 53.8794 0 C 51.7243 0 50 1.6803 50 3.7392 L 50 26.3024 C 50.0435 28.3194 51.7673 30 53.8794 30 L 56.2501 30 C 58.319 29.916 59.957 28.3194 60 26.3024 L 60 3.7392 C 60 1.7225 58.319 0.084 56.2501 0 ZM 55.3619 27 L 54.6378 27 C 53.7327 26.9578 53 26.2433 53 25.361 L 53 4.6384 C 53 3.7564 53.7327 3.0422 54.6378 3 L 55.3619 3 C 56.2673 3 57 3.7142 57 4.6384 L 57 25.361 C 57 26.2855 56.2673 27 55.3619 27 ZM 31.2086 0 L 26 0 L 26 29.3569 C 26 29.5711 26.0417 30 26.0417 30 L 29 30.4571 L 29 17 L 30.75 17 C 33.6252 17 35 14.8999 35 11.9856 L 35 3.7713 C 35 1.6712 33.2083 0 31.2086 0 ZM 32 4.457 L 32 12.5427 C 31.9167 13.3569 31.2916 14 30.4582 14 L 29 14 L 29 3 L 30.4165 3 C 31.2499 3 31.9167 3.6428 32 4.457 ZM 131 8 L 133.9975 8 L 134 5.3574 L 134 3.9067 C 134 1.8902 132.3567 0.0419 130.3343 0 L 128.7922 0 C 126.6853 0 125 1.8481 125 3.9067 L 125 6.934 C 125 6.934 124.8734 8.9086 126.3484 11.5972 L 129.6938 18.3606 C 129.6938 18.3606 131 20.6294 131 22.3518 L 131 25.7124 C 131 26.6368 130.7634 27.3512 129.8789 27.3512 C 128.9941 27.3512 128 27.0074 128 26.1252 L 128 21 L 124.9963 21 L 125 23.6052 L 125 26.2611 C 125.042 28.2775 126.6433 29.916 128.6657 30 L 130.2078 30 C 132.3147 30 134 28.3197 134 26.2611 L 134 22.5199 C 134 22.5199 134.1266 20.5454 132.6518 17.8567 L 129.3062 11.0512 C 129.3062 11.0512 128 8.8246 128 7.1021 L 128 4.2873 C 128 3.3632 128.7165 2.6491 129.6013 2.6491 C 130.4858 2.6491 131 3.6729 131 4.597 L 131 8 ZM 6 8 L 8.9975 8 L 9 5.3574 L 9 3.9067 C 9 1.8902 7.3564 0.0419 5.3343 0 L 3.7922 0 C 1.6853 0 0 1.8481 0 3.9067 L 0 6.934 C 0 6.934 -0.1266 8.9086 1.3485 11.5972 L 4.6938 18.3606 C 4.6938 18.3606 6 20.6294 6 22.3518 L 6 25.7124 C 6 26.6368 5.1816 27.3512 4.2971 27.3512 C 3.4124 27.3512 3 27.0074 3 26.1252 L 3 21 L -0.0037 21 L 0 23.6052 L 0 26.2611 C 0.042 28.2775 1.6433 29.916 3.6657 30 L 5.2075 30 C 7.3144 30 9 28.3197 9 26.2611 L 9 22.5199 C 9 22.5199 9.1263 20.5454 7.6516 17.8567 L 4.3059 11.0512 C 4.3059 11.0512 3 8.8246 3 7.1021 L 3 4.2873 C 3 3.3632 3.7162 2.6491 4.601 2.6491 C 5.4855 2.6491 6 3.6729 6 4.597 L 6 8 Z"/>
  </symbol>
  <symbol id="userIco" viewBox="0 0 14 14">
    <path d="M 8.7317 9.8315 C 8.3862 9.7744 8.3783 8.7892 8.3783 8.7892 C 8.3783 8.7892 9.3934 7.7471 9.6146 6.3458 C 10.2098 6.3458 10.5775 4.8559 9.9822 4.3316 C 10.0071 3.7799 10.7472 0 7 0 C 3.2528 0 3.9929 3.7799 4.0177 4.3316 C 3.4225 4.8559 3.7902 6.3458 4.3853 6.3458 C 4.6064 7.7471 5.6216 8.7892 5.6216 8.7892 C 5.6216 8.7892 5.6138 9.7744 5.2683 9.8315 C 4.1555 10.0151 0 11.9158 0 14 L 7 14 L 14 14 C 14 11.9158 9.8445 10.0151 8.7317 9.8315 Z"/>
  </symbol>
  <symbol id="profileIco" viewBox="0 0 17 24">
    <path d="M 13.9586 11.9813 C 12.9543 10.7138 11.524 9.9572 9.6851 10.2599 L 13.5927 0.5004 L 17 3.7029 L 13.9586 11.9813 ZM 6.3875 3 L 5.1569 0 L 11.8428 0 L 10.6124 3 L 6.3875 3 ZM 6.9471 10.2599 C 4.6178 10.1842 3.8005 10.9786 3.0546 12.0089 L 0 3.7029 L 3.4078 0.5 L 6.9471 10.2599 ZM 4.2139 13.883 C 4.2654 13.8329 4.3191 13.7846 4.3726 13.7361 C 4.4254 13.6882 4.4802 13.6427 4.5352 13.5968 C 5.4507 12.8282 6.6128 12.3155 7.8998 12.1907 C 7.9709 12.1838 8.0444 12.1842 8.1162 12.1796 C 8.1886 12.1754 8.2609 12.1712 8.3336 12.1692 C 8.3971 12.1674 8.459 12.16 8.5228 12.16 C 8.5718 12.16 8.6194 12.1662 8.6677 12.1674 C 8.7406 12.1689 8.8124 12.1738 8.8845 12.1777 C 8.9569 12.1815 9.0298 12.1815 9.1012 12.1876 C 10.3905 12.304 11.5566 12.8068 12.4781 13.5688 C 12.533 13.6143 12.5872 13.661 12.6404 13.7085 C 12.6938 13.7559 12.749 13.8018 12.8009 13.8513 C 13.8701 14.875 14.5311 16.2791 14.5311 17.8302 C 14.5311 20.9615 11.8414 23.5 8.5223 23.5 C 5.2041 23.5 2.5137 20.9615 2.5137 17.8302 C 2.5137 16.2948 3.1632 14.9041 4.2139 13.883 Z"/>
  </symbol>
  <symbol id="downArrowIco" viewBox="0 0 14 8">
    <path d="M 7 8 C 6.7769 8 6.554 7.9148 6.3839 7.7444 L 0.2552 1.4912 C -0.0851 1.1501 -0.0851 0.5969 0.2552 0.2558 C 0.5956 -0.0853 1.1473 -0.0853 1.4877 0.2558 L 7 5.8912 L 12.5123 0.256 C 12.8526 -0.0851 13.4044 -0.0851 13.7447 0.256 C 14.0851 0.597 14.0851 1.1502 13.7447 1.4915 L 7.616 7.7446 C 7.446 7.9148 7.223 8 7 8 Z"/>
  </symbol>
  <symbol id="infoIco" viewBox="0 0 16 16">
    <path d="M 7 12 L 9 12 L 9 7 L 7 7 L 7 12 ZM 8 0 C 3.6 0 0 3.6 0 8 C 0 12.4 3.6 16 8 16 C 12.4 16 16 12.4 16 8 C 16 3.6 12.4 0 8 0 ZM 8 14.4 C 4.48 14.4 1.6 11.52 1.6 8 C 1.6 4.48 4.48 1.6 8 1.6 C 11.52 1.6 14.4 4.48 14.4 8 C 14.4 11.52 11.52 14.4 8 14.4 ZM 7 6 L 9 6 L 9 4 L 7 4 L 7 6 Z"/>
  </symbol>
  <symbol id="emailIco" viewBox="0 0 18 18">
    <path d="M 16.1982 2 L 1.8022 2 C 0.8086 2 0 2.7861 0 3.7516 L 0 14.2484 C 0 15.2096 0.8086 16 1.8022 16 L 16.1982 16 C 17.1914 16 18 15.2096 18 14.2484 L 18 3.7516 C 18 2.7861 17.1914 2 16.1982 2 L 16.1982 2 ZM 16.2 5.4984 L 8.9995 9.8737 L 1.8 5.4984 L 1.8 3.7516 L 8.9995 8.1263 L 16.2 3.7516 L 16.2 5.4984 ZM 16.1982 5.4984 L 16.1982 5.4984 Z"/>
  </symbol>
  <symbol id="lockIco" viewBox="0 0 14 19">
    <path d="M 5 12.5 C 5 11.3955 5.8954 10.5 7 10.5 C 8.1046 10.5 9 11.3955 9 12.5 C 9 13.6045 8.1046 14.5 7 14.5 C 5.8954 14.5 5 13.6045 5 12.5 ZM 9 7 L 5 7 L 5 4.7856 C 5 3.3201 5.6997 2.1287 7.0889 2.1287 C 8.4783 2.1287 9 3.3201 9 4.7856 L 9 7 ZM 12.375 7 L 11 7 L 11 4.7856 C 11 2.4199 9.2417 0.5 6.9993 0.5 C 4.7568 0.5 3 2.4199 3 4.7856 L 3 7 L 1.625 7 C 0.7272 7 0 7.7671 0 8.7144 L 0 17.2856 C 0 18.2329 0.7272 19 1.625 19 L 12.375 19 C 13.2728 19 14 18.2329 14 17.2856 L 14 8.7144 C 14 7.7671 13.2728 7 12.375 7 Z"/>
  </symbol>
  <symbol id="eyeIco" viewBox="0 0 20 12">
    <path d="M 18.9618 5.6526 C 17.3028 8.8112 13.6907 11 9.5 11 C 5.3093 11 1.6972 8.8112 0.0382 5.6526 C -0.0127 5.5551 -0.0127 5.4431 0.0382 5.3474 C 1.6972 2.1888 5.3093 0 9.5 0 C 13.6907 0 17.3028 2.1888 18.9618 5.3474 C 19.0127 5.4449 19.0127 5.5569 18.9618 5.6526 ZM 9.5 1.7066 C 7.1356 1.7066 5.2176 3.4042 5.2176 5.5009 C 5.2176 7.5958 7.1335 9.2952 9.5 9.2952 C 11.8644 9.2952 13.7824 7.5958 13.7824 5.5009 C 13.7824 3.406 11.8665 1.7066 9.5 1.7066 ZM 9.5 7.9281 C 7.986 7.9281 6.7584 6.8406 6.7584 5.4991 C 6.7584 4.1576 7.986 3.0701 9.5 3.0701 C 11.014 3.0701 12.2416 4.1576 12.2416 5.4991 C 12.2416 6.8406 11.014 7.9281 9.5 7.9281 Z"/>
  </symbol>
  <symbol id="facebookIco" viewBox="0 0 8 14">
    <path d="M 7 8 L 5 8 L 5 14 L 2 14 L 2 8 L 0 8 L 0 5 L 2 5 L 2 2.3351 C 2 1.206 2.4454 0 4.4054 0 L 8 0 L 8 3 L 6.053 3 C 5.125 2.9375 5 3.1265 5 3.665 L 5 5 L 8 5 L 7 8 Z"/>
  </symbol>
  <symbol id="twitterIco" viewBox="0 0 14 12">
    <path d="M 12.569 2.9875 C 12.5741 3.1171 12.5764 3.249 12.5764 3.3818 C 12.5764 7.3837 9.6876 12 4.4037 12 C 2.7813 12 1.2716 11.5019 0 10.6381 C 0.2258 10.6669 0.4539 10.6823 0.6852 10.6823 C 2.0322 10.6823 3.2694 10.1981 4.2533 9.3853 C 2.9966 9.3594 1.9365 8.4844 1.5708 7.2802 C 1.7451 7.3163 1.9244 7.3344 2.1108 7.3344 C 2.371 7.3344 2.626 7.2983 2.8668 7.2282 C 1.5533 6.9514 0.5619 5.7276 0.5619 4.2598 C 0.5619 4.2461 0.5619 4.2334 0.5646 4.2202 C 0.9496 4.448 1.3943 4.5828 1.8658 4.5977 C 1.0947 4.0571 0.5864 3.1281 0.5864 2.0767 C 0.5864 1.5226 0.729 1.002 0.9747 0.5542 C 2.3903 2.3878 4.5093 3.5937 6.8942 3.7207 C 6.8451 3.498 6.8208 3.268 6.8208 3.0292 C 6.8208 1.357 8.1068 0 9.6925 0 C 10.5198 0 11.2659 0.3682 11.7887 0.9551 C 12.444 0.8211 13.0599 0.5693 13.6146 0.2202 C 13.3987 0.9295 12.9446 1.5226 12.3506 1.8978 C 12.9325 1.8258 13.4872 1.6622 14 1.4219 C 13.6173 2.0282 13.1287 2.5607 12.569 2.9875 L 12.569 2.9875 Z"/>
  </symbol>
  <symbol id="googleIco" viewBox="0 0 17 15">
    <path d="M 8.5044 1.767 C 8.4929 1.774 8.4794 1.7778 8.4655 1.7778 L 7.3492 1.7778 C 7.7719 2.1216 8.6512 2.8364 8.6512 4.2209 C 8.6512 5.5973 7.83 6.3188 7.1053 6.8798 L 7.0817 6.9034 C 6.8539 7.1263 6.5956 7.3794 6.5956 7.7623 C 6.5956 8.1518 6.8539 8.3623 7.061 8.5314 L 7.7319 9.0443 C 8.5273 9.7029 9.2767 10.3237 9.2761 11.5809 C 9.2761 13.2798 7.6174 15 4.4469 15 C 1.7205 15 0.5 13.7004 0.5 12.4119 C 0.5 12.0883 0.6021 10.9724 1.9143 10.2047 C 3.0254 9.5328 4.5464 9.4301 5.3638 9.3754 L 5.4205 9.3713 L 5.3885 9.3309 C 5.1338 9.0104 4.8702 8.6794 4.8702 8.1416 C 4.8702 7.8655 4.9456 7.6887 5.025 7.5013 L 5.0525 7.436 C 4.8666 7.453 4.6559 7.4723 4.4657 7.4723 C 2.4867 7.4723 1.4186 6.008 1.4186 4.6305 C 1.4186 3.7361 1.8571 2.7052 2.5917 2.0821 C 3.5256 1.3232 4.5635 1 6.0627 1 L 9.4272 1 C 9.4596 1 9.4883 1.0211 9.4972 1.0518 C 9.5061 1.0823 9.4934 1.2398 9.4659 1.2572 L 8.5044 1.767 ZM 3.6934 10.1702 C 2.6473 10.5428 2.1162 11.1699 2.1162 12.0325 C 2.1162 13.3541 3.4146 14.2422 5.3473 14.2422 C 7.0122 14.2422 8.0466 13.493 8.0466 12.2869 C 8.0466 11.3406 7.3967 10.8436 6.0443 9.897 C 5.8982 9.8792 5.8062 9.8792 5.6229 9.8792 C 5.6121 9.8792 4.5308 9.8931 3.6934 10.1702 ZM 4.7234 1.8082 C 4.2371 1.8082 3.7323 2.0428 3.4376 2.4055 C 3.166 2.736 3.0339 3.1744 3.0339 3.7452 C 3.0339 4.8684 3.7072 6.9651 5.3291 6.9651 C 5.7675 6.9651 6.2689 6.762 6.5773 6.4588 C 7.036 6.0049 7.036 5.3523 7.036 5.1377 C 7.036 3.7771 6.2126 1.8082 4.7234 1.8082 Z"/>
    <path d="M 14 0 L 15 0 L 15 5 L 14 5 L 14 0 Z"/>
    <path d="M 17 2 L 17 3 L 12 3 L 12 2 L 17 2 Z"/>
  </symbol>
  <symbol id="linkedIco" viewBox="0 0 14 15">
    <path d="M 11 15 L 11 9.5846 C 11 8.8693 10.9784 8.226 10.7188 7.8207 C 10.4589 7.4154 9.8605 7.0559 9.309 7.0559 C 8.9048 7.0559 8.7415 7.0148 8.4688 7.25 C 8.196 7.4849 8.0486 8.0247 8 8.4688 C 7.9295 8.6733 7.9757 9.0543 8 9.2763 L 8 15 L 4.9688 15 C 4.9816 12.282 5.0313 10.0332 5.0313 8.3438 C 5.0313 6.6544 5.0065 5.8583 5 5.5313 L 5 5 L 8 5 L 8 6.4399 C 8.1221 6.2353 8.247 6.1241 8.375 5.9688 C 8.5096 5.8054 8.4532 5.789 8.7188 5.6563 C 8.8438 5.5938 9.1697 5.1681 9.5 5.0625 C 9.8306 4.9568 10.2522 4.9688 10.6563 4.9688 C 11.7529 4.9688 12.3019 5.5081 12.9688 6.2813 C 13.6359 7.0542 13.9998 7.7043 14 9.1963 L 14 15 L 11 15 ZM 1.7702 3.4944 L 1.751 3.4944 C 1.225 3.4944 0.8016 3.3275 0.481 2.9937 C 0.1603 2.6601 0 2.2444 0 1.7473 C 0 1.2431 0.165 0.826 0.4955 0.4956 C 0.8259 0.1653 1.2571 0 1.7894 0 C 2.3218 0 2.7485 0.1652 3.069 0.4956 C 3.3896 0.826 3.5533 1.2431 3.5597 1.7473 C 3.5661 2.2446 3.4042 2.6601 3.0739 2.9937 C 2.7436 3.3276 2.309 3.4944 1.7702 3.4944 ZM 3 15 L 0 15 L 0 5 L 3 5 L 3 15 Z"/>
  </symbol>
  <symbol id="athleteIco" viewBox="0 0 38 36">
    <path d="M 37.405 13.2874 L 32.5755 18.0063 C 32.2187 18.3508 31.7618 18.5273 31.305 18.5273 C 30.8801 18.5273 30.4512 18.3761 30.1025 18.0652 L 25.8942 14.3252 L 20.3191 20.578 L 25.6216 23.406 C 26.1065 23.6624 26.4633 24.1162 26.6115 24.6626 C 26.7599 25.2047 26.6837 25.7888 26.3992 26.272 L 21.2369 35.0419 C 20.8722 35.6595 20.2389 36 19.5937 36 C 19.249 36 18.9003 35.9033 18.5836 35.6975 C 17.6779 35.1091 17.3973 33.8654 17.9544 32.9155 L 22.0184 26.0115 L 15.5497 22.5488 L 14.1909 21.822 C 13.0687 21.2295 12.8402 19.6663 13.5857 18.6703 C 13.6218 18.624 13.6578 18.5778 13.698 18.5316 C 16.251 15.6658 18.8041 12.804 21.3572 9.9381 C 20.9924 9.5349 18.9844 7.2529 18.5836 6.7864 L 12.4074 8.3203 C 12.2631 8.358 12.1188 8.3749 11.9745 8.3749 C 11.1288 8.3749 10.3673 7.7699 10.163 6.8705 C 9.9265 5.8242 10.5437 4.7693 11.5457 4.5215 L 18.7961 2.719 C 18.9724 2.6768 19.1368 2.6516 19.3011 2.6516 C 19.754 2.6516 20.1668 2.8406 20.6117 3.3197 C 22.1948 5.0217 31.2528 13.9553 31.2568 13.9514 L 34.872 10.4255 C 35.2287 10.0768 35.6856 9.9045 36.1385 9.9045 C 36.6354 9.9045 37.1325 10.1146 37.5012 10.5265 C 38.2027 11.3164 38.1585 12.5519 37.405 13.2874 ZM 29.8299 8.8582 C 27.4969 8.8582 25.6056 6.8752 25.6056 4.4292 C 25.6056 1.983 27.4969 0 29.8299 0 C 32.163 0 34.0543 1.983 34.0543 4.4292 C 34.0543 6.8752 32.163 8.8582 29.8299 8.8582 ZM 13.6418 22.9521 L 14.7802 23.5615 L 11.3734 28.0663 C 11.0847 28.4445 10.68 28.7009 10.2271 28.7933 L 2.2913 30.3901 C 2.1711 30.4154 2.0468 30.428 1.9265 30.428 C 1.0208 30.428 0.2112 29.7556 0.0348 28.7891 C -0.1656 27.6923 0.5198 26.6334 1.5658 26.4232 L 8.8002 24.9692 L 12.0146 20.7209 C 12.215 21.7001 12.8002 22.5068 13.6418 22.9521 Z"/>
  </symbol>
  <symbol id="organizationIco" viewBox="0 0 31 36">
    <path d="M 31 10.6066 L 31 9.6277 L 30.6537 9.391 C 25.115 7.9801 25.0021 2.6338 25 2.4128 L 25 1.3704 L 24.0073 1.1333 C 23.8133 1.0872 18.5818 0 15.5 0 C 12.4184 0 7.1863 1.0872 6.9928 1.1331 L 6 1.3701 L 6 2.4126 C 6 2.6388 5.878 7.9669 0.2883 9.391 L 0 9.6277 L 0 10.6066 C -0.0078 10.78 -0.1687 14.9208 1.5781 20.0831 C 3.194 24.8578 6.831 31.441 14.913 35.6914 L 15.5 36 L 16.087 35.6914 C 24.1695 31.441 27.8054 24.8578 29.4217 20.0831 C 31.1685 14.9208 31.0074 10.78 31 10.6066 ZM 8.7365 3.4893 C 10.1704 3.1858 12.9859 2.6477 15 2.6295 L 15 18 L 3.2131 18 C 2.4417 15.2693 2.6374 12.9639 2.5903 11.751 C 7.1202 10.1531 8.382 6.1152 8.7365 3.4893 ZM 15 33.8683 L 15 19 L 27.3316 19 C 27.2161 19.3964 26.4843 19.8014 26.3434 20.213 C 24.2922 26.1996 20.4768 30.7889 15 33.8683 Z"/>
  </symbol>
  <symbol id="sportIco" viewBox="0 0 36 36">
    <path d="M 34.7103 24.8594 C 33.8384 27.0216 32.5668 28.969 30.9329 30.6412 C 29.2922 32.3167 27.3738 33.6361 25.2244 34.559 C 22.999 35.5142 20.6213 36 18.1714 36 C 15.7214 36 13.3384 35.5142 11.0908 34.559 C 8.9239 33.6361 6.9764 32.3167 5.3077 30.6412 C 3.6419 28.969 2.3333 27.0254 1.42 24.8594 C 0.478 22.6281 0 20.2623 0 17.8285 C 0 15.405 0.4756 13.0532 1.4097 10.8497 C 2.3108 8.7244 3.5995 6.8181 5.2367 5.1873 C 6.871 3.5593 8.7772 2.281 10.8979 1.3894 C 13.0895 0.468 15.4209 0 17.8285 0 C 20.2361 0 22.5764 0.468 24.7855 1.3894 C 26.9234 2.281 28.8538 3.5593 30.5191 5.1873 C 32.1875 6.8218 33.5124 8.7244 34.454 10.8497 C 35.4301 13.0532 35.9503 15.4011 35.9967 17.8285 C 36.0429 20.2584 35.61 22.6243 34.7103 24.8594 ZM 33.0922 17.7744 L 32.4294 18.4568 C 31.9911 18.9067 31.2738 18.9185 30.8052 18.4878 L 27.0758 15.0417 C 26.8051 14.7905 26.6644 14.4272 26.7019 14.0642 L 27.2025 9.0852 C 27.2629 8.4633 27.8116 8.0142 28.4373 8.068 L 29.3911 8.1523 C 29.1122 7.8301 28.8184 7.5195 28.5092 7.2166 C 26.8906 5.6311 24.9837 4.4495 22.9156 3.7197 L 23.3381 4.5833 C 23.6146 5.1453 23.392 5.8186 22.8331 6.1018 L 18.3864 8.3596 C 18.064 8.5247 17.6783 8.5247 17.3489 8.3634 L 12.8402 6.1401 C 12.2798 5.8645 12.0367 5.1912 12.2987 4.6289 L 12.6971 3.7618 C 10.6851 4.4954 8.843 5.6616 7.2854 7.2166 C 6.9821 7.5195 6.6939 7.834 6.4213 8.1563 L 7.3734 8.0719 C 7.998 8.0181 8.5554 8.467 8.6276 9.0891 L 9.223 14.0684 C 9.2674 14.4312 9.1338 14.7944 8.8679 15.0454 L 5.204 18.4917 C 4.7437 18.9224 4.0222 18.9109 3.5791 18.4607 L 2.9033 17.7781 C 2.9034 17.7937 2.9034 17.813 2.9034 17.8286 C 2.908 20.787 3.7562 23.6221 5.3377 26.0591 L 5.5375 25.1053 C 5.6678 24.4846 6.2656 24.0825 6.8882 24.1996 L 11.8726 25.1249 C 12.2388 25.1914 12.5479 25.4298 12.7136 25.7618 L 14.9803 30.3387 C 15.2657 30.9124 15.0449 31.6085 14.4849 31.9034 L 13.625 32.36 C 15.0699 32.8087 16.5917 33.0411 18.1431 33.0411 C 19.6945 33.0411 21.212 32.8087 22.6484 32.36 L 21.7798 31.9034 C 21.2142 31.6044 20.9801 30.9124 21.2548 30.3387 L 23.434 25.7581 C 23.5934 25.4259 23.9018 25.1875 24.2628 25.1211 L 29.2296 24.1957 C 29.85 24.0786 30.4554 24.4805 30.5977 25.1016 L 30.8156 26.0552 C 32.3507 23.6182 33.1449 20.7793 33.0931 17.8247 C 33.0928 17.8091 33.0924 17.7898 33.0922 17.7744 ZM 22.0389 22.2776 C 21.889 22.7568 21.4457 23.0842 20.9404 23.0842 L 15.1484 23.0842 C 14.6431 23.0842 14.1937 22.7607 14.0346 22.2776 L 12.2078 16.771 C 12.0498 16.2947 12.2168 15.7684 12.6215 15.4746 L 17.2595 12.0934 C 17.6627 11.8008 18.2152 11.8008 18.6238 12.0934 L 23.3226 15.4784 C 23.7328 15.7725 23.9099 16.2947 23.7609 16.7748 L 22.0389 22.2776 Z"/>
  </symbol>
  <symbol id="fansIco" viewBox="0 0 25 36">
    <path d="M 19.1786 13.1658 C 18.201 9.3501 14.3557 8.7896 12.7518 8.725 C 12.3605 8.7095 11.7262 8.7102 11.3356 8.725 C 9.7145 8.7874 5.7996 9.3425 4.8203 13.1658 C 3.5765 18.022 1.4575 12.7219 2.3424 9.5255 C 3.1127 6.7439 3.8521 4.3651 3.7813 2.6833 C 3.7643 2.291 4.0055 2.0313 4.3914 2.0964 L 7.2007 2.5709 C 7.5864 2.6362 8.156 2.5027 8.4734 2.274 L 11.3816 0.1737 C 11.699 -0.0559 12.2157 -0.0579 12.5347 0.1682 L 15.5215 2.2795 C 15.8408 2.5059 16.4119 2.6362 16.7976 2.5709 L 19.6074 2.0964 C 19.993 2.0313 20.2336 2.291 20.2172 2.6833 C 20.1465 4.3651 20.8856 6.7434 21.6564 9.5255 C 22.5414 12.7219 20.4218 18.022 19.1786 13.1658 ZM 3.4922 15.927 C 4.2365 15.9258 4.7061 15.2654 5 14.5986 L 5 19.4822 C 4.1655 18.4529 3.5494 17.2366 3.2401 15.8992 C 3.3314 15.9189 3.4165 15.927 3.4922 15.927 ZM 7.4583 22.2927 C 7.4512 22.3475 7.4271 22.1735 7.4271 22.2284 C 7.4271 22.605 7.6104 23.1807 7.9106 23.4961 C 2.0227 25.1569 1.142 33.2365 1.0143 36 L -0.5 36 C -0.5 30.2246 1.4468 24.2515 7.4583 22.2927 ZM 11 20.5122 L 11 22.6945 C 9.5421 22.5356 9.1538 22.0266 7.998 21.244 L 8 21.244 L 8 10.9801 C 9.2544 9.9326 9.9421 9.6265 11 9.5452 L 11 18.833 C 10.881 18.8093 10.7548 18.7921 10.6451 18.7629 C 9.8665 18.5568 9.2813 18.9417 9.2813 19.4688 C 9.2813 19.9397 10.0123 20.3174 11 20.5122 ZM 13.5275 18.7595 C 13.3706 18.7983 13.1901 18.8301 13 18.8594 L 13 9.5331 C 13.7992 9.5818 14.8779 9.7627 16 10.3601 L 16 21.7295 C 15.0405 22.2374 14.1283 22.573 13 22.6945 L 13 20.5463 C 14.0094 20.4021 14.7755 19.8069 14.7755 19.2797 C 14.7755 18.6985 14.2611 18.5812 13.5275 18.7595 ZM 8.8813 24.1823 C 9.6989 24.5803 10.7905 24.6028 11.9989 24.6028 C 13.1998 24.6028 14.2853 24.5833 15.1011 24.1898 C 21.0426 25.2422 21.9337 33.2664 22.0588 36 L 1.8748 36 C 2.0006 33.2593 2.897 25.2013 8.8813 24.1823 ZM 7.4481 30.2948 C 8.2051 30.2948 8.8173 29.6796 8.8173 28.9202 C 8.8173 28.1611 8.2045 27.5459 7.4481 27.5459 C 6.6921 27.5459 6.08 28.1611 6.0793 28.9202 C 6.0793 29.6796 6.6921 30.2948 7.4481 30.2948 ZM 18 12.1636 C 18.2164 12.5336 18.3948 12.9514 18.5179 13.4315 C 18.6761 14.0488 19.1426 15.927 20.3969 15.927 C 20.4467 15.927 20.5159 15.9209 20.5725 15.9133 C 20.1674 17.6499 19.2534 19.1882 18 20.366 L 18 12.1636 ZM 16.0739 23.5101 C 16.3828 23.191 16.5715 22.6099 16.5715 22.2278 C 16.5715 22.2097 16.5613 22.4175 16.5598 22.3982 C 22.1107 24.4618 24.5 30.3259 24.5 36 L 22.9196 36 C 22.7924 33.2455 21.9164 25.2026 16.0739 23.5101 Z"/>
  </symbol>
  <symbol id="pointsIco" viewBox="0 0 16 11">
    <path d="M 0 9.0588 L 4.7857 3.7206 L 8.2143 7.6029 L 11.7857 2.9927 L 9.1428 0 L 16 0 L 16 7.7646 L 13.5 4.8529 L 8 11 L 4.9285 7.1985 L 1.5555 10.8317 L 0 9.0588 Z" stroke="#ffffff00" stroke-width="1"/>
  </symbol>
  <symbol id="profIco" viewBox="0 0 8 16">
    <path d="M 7 9.4443 L 7 16 L 3.7 14.2 L 1 16 L 1 9.4443 C 1.5 10.1375 3.3449 10.6438 4.05 10.6438 C 4.7551 10.6438 6.2 10.3062 7 9.4443 Z"/>
    <path id="Ellipse" d="M 0 4 C 0 1.7908 1.7908 0 4 0 C 6.2092 0 8 1.7908 8 4 C 8 6.2092 6.2092 8 4 8 C 1.7908 8 0 6.2092 0 4 Z"/>
  </symbol>
  <symbol id="pathIco" viewBox="0 0 32 52">
    <path d="M 16 0 C 7.1772 0 0 7.7158 0 17.2002 C 0 21.0205 2.2688 27.248 6.9368 36.2402 C 10.2378 42.5996 13.4851 47.9023 13.6218 48.125 L 16 52 L 18.3782 48.125 C 18.5149 47.9023 21.7625 42.5996 25.0632 36.2402 C 29.7312 27.248 32 21.0205 32 17.2012 C 32 7.7158 24.8228 0 16 0 ZM 16 26 C 11.4194 26 7.7063 22.0078 7.7063 17.084 C 7.7063 12.1602 11.4194 8.168 16 8.168 C 20.5806 8.168 24.2937 12.1602 24.2937 17.084 C 24.2937 22.0078 20.5806 26 16 26 Z"/>
  </symbol>
  <symbol id="playIco" viewBox="0 0 14 20">
    <path d="M 0 0 L 0 20 L 14 10 L 0 0 Z"/>
  </symbol>
  <symbol id="likeIco" viewBox="0 0 14 14">
    <path d="M 0 14 L 2 14 L 2 5 L 0 5 L 0 14 ZM 14 6.6479 C 14 5.9185 13.4559 5 12.7909 5 L 7.8551 5 L 9.4597 0.9495 C 9.4597 0.8831 9.4597 1.459 9.4597 1.3928 C 9.4597 1.1274 9.3387 0.8618 9.2178 0.6631 L 8.5529 0 L 4.3627 4.3767 C 4.121 4.5757 4 4.9072 4 5.3052 L 4 12.6736 C 4 13.4031 4.5441 14 5.2091 14 L 10.8501 14 C 11.3336 14 11.757 13.6685 11.9382 13.2041 L 13.9126 7.759 C 13.973 7.6265 14 7.4243 14 7.2917 L 14 6.6479 Z"/>
  </symbol>
  <symbol id="shareIco" viewBox="0 0 15 15">
    <path d="M 12.2488 9.4126 C 11.373 9.4126 10.6046 9.8237 10.1013 10.4543 L 5.427 8.0933 C 5.4883 7.8689 5.531 7.6357 5.531 7.3906 C 5.531 7.1226 5.4812 6.8706 5.4073 6.6287 L 10.0577 4.2781 C 10.561 4.938 11.3495 5.3662 12.2488 5.3662 C 13.772 5.3662 15 4.1523 15 2.6504 C 15 1.1494 13.772 -0.0676 12.2488 -0.0676 C 10.7322 -0.0676 9.5007 1.1494 9.5007 2.6504 C 9.5007 2.8958 9.5443 3.1282 9.6047 3.353 L 4.9343 5.7139 C 4.4309 5.0842 3.6597 4.6724 2.7836 4.6724 C 1.264 4.6724 0.0322 5.8894 0.0322 7.3906 C 0.0322 8.8931 1.264 10.1089 2.7836 10.1089 C 3.6827 10.1089 4.4712 9.6753 4.9745 9.0149 L 9.6249 11.3657 C 9.551 11.6104 9.4973 11.863 9.4973 12.1309 C 9.4973 13.6333 10.7322 14.8489 12.2488 14.8489 C 13.7687 14.8489 15 13.6333 15 12.1309 C 15 10.6299 13.7687 9.4126 12.2488 9.4126 L 12.2488 9.4126 ZM 12.2488 9.4126 L 12.2488 9.4126 Z"/>
  </symbol>
  <symbol id="bellIco" viewBox="0 0 18 18">
    <path d="M 8.9993 18 C 10.1038 18 11 17.1055 11 16 L 7 16 C 7.0007 17.1055 7.8962 18 8.9993 18 ZM 13.964 12.2234 L 13.964 7.223 C 13.964 4.6189 12.1979 2.4591 9.875 2.0197 L 9.875 1.6223 C 9.875 1.2786 9.6139 1 9.2916 1 L 8.7084 1 C 8.3861 1 8.125 1.2786 8.125 1.6223 L 8.125 2.0215 C 5.8073 2.4658 4.0474 4.6232 4.0474 7.223 L 4.0474 12.2234 L 2 13.9912 L 2 15 L 16 15 L 16 13.9912 L 13.964 12.2234 Z"/>
  </symbol>
  <symbol id="searchIco" viewBox="0 0 14 14">
    <path d="M 10 8.8008 L 9.3594 8.8008 L 9.1212 8.5586 C 9.9219 7.6797 10.3984 6.48 10.3984 5.1992 C 10.3984 2.3198 8.078 0 5.1992 0 C 2.3198 0 0 2.3198 0 5.1992 C 0 8.0781 2.3198 10.3984 5.1992 10.3984 C 6.4801 10.3984 7.6797 9.9219 8.5586 9.1211 L 8.8008 9.3594 L 8.8008 10 L 12.8008 14 L 14 12.8008 L 10 8.8008 ZM 5.1992 8.8008 C 3.1992 8.8008 1.6021 7.1992 1.6021 5.1992 C 1.6021 3.1992 3.1992 1.6021 5.1992 1.6021 C 7.1992 1.6021 8.8008 3.1992 8.8008 5.1992 C 8.8008 7.1992 7.1992 8.8008 5.1992 8.8008 L 5.1992 8.8008 ZM 5.1992 8.8008 L 5.1992 8.8008 Z"/>
  </symbol>
  <symbol id="closeIco" viewBox="0 0 12 12">
    <path d="M12 .696l-.696-.696-5.304 5.304-5.304-5.304-.696.696 5.304 5.304-5.304 5.304.696.696 5.304-5.304 5.304 5.304.696-.696-5.305-5.304 5.305-5.304z"/>
  </symbol>
  <symbol id="successIco" viewBox="0 0 18 14">
    <path d="M 17.9263 2.0874 L 6.7659 13.9219 C 6.6677 14.0261 6.5084 14.0261 6.4104 13.9219 L 0.0735 7.2021 C -0.0245 7.0981 -0.0245 6.9294 0.0735 6.8252 L 1.6133 5.1926 C 1.7116 5.0884 1.8708 5.0884 1.9689 5.1926 L 6.5884 10.0906 L 16.0313 0.0781 C 16.1295 -0.0261 16.2883 -0.0261 16.3866 0.0781 L 17.9263 1.7107 C 18.0246 1.8145 18.0246 1.9832 17.9263 2.0874 Z"/>
  </symbol>
  <symbol id="warningIco" viewBox="0 0 23 20">
    <path d="M 10 16.5 C 10 15.6716 10.6715 15 11.5 15 C 12.3285 15 13 15.6716 13 16.5 C 13 17.3284 12.3285 18 11.5 18 C 10.6715 18 10 17.3284 10 16.5 ZM 11.4987 13.3213 C 11.0026 13.3213 10 12.9546 10 12.5017 L 10 6.5647 C 10 6.1177 10.9523 5.6062 11.4457 5.6062 C 11.9426 5.6062 13 6.1118 13 6.5647 L 13 12.5017 C 13 12.949 11.993 13.3213 11.4987 13.3213 ZM 10.0951 0.8669 L 0.4664 17.2034 C -0.5736 18.7524 0.1849 20 2.1524 20 L 20.8491 20 C 22.8167 20 23.5717 18.7478 22.535 17.2034 L 12.9073 0.8669 C 12.1323 -0.2871 10.8718 -0.2908 10.0951 0.8669 Z"/>
  </symbol>
  <symbol id="dangerIco" viewBox="0 0 17 17">
    <path d="M 8.5 0 C 3.825 0 0 3.825 0 8.5 C 0 13.175 3.825 17 8.5 17 C 13.175 17 17 13.175 17 8.5 C 17 3.825 13.175 0 8.5 0 ZM 1.7 8.5 C 1.7 4.76 4.76 1.7 8.5 1.7 C 10.03 1.7 11.475 2.21 12.665 3.145 L 3.145 12.665 C 2.21 11.4751 1.7 10.03 1.7 8.5 ZM 8.5 15.3 C 6.97 15.3 5.525 14.79 4.335 13.855 L 13.855 4.335 C 14.79 5.5249 15.3 6.97 15.3 8.5 C 15.3 12.24 12.24 15.3 8.5 15.3 Z"/>
  </symbol>
  <symbol id="connectIco" viewBox="0 0 14 14">
    <path d="M 3.4036 4.6519 C 3.5563 4.6519 3.7039 4.6748 3.8429 4.7178 C 4.3676 4.1299 4.9493 3.595 5.5793 3.1201 C 5.553 3.0088 5.5375 2.8936 5.5375 2.7739 C 5.5375 2.6089 5.5656 2.4507 5.6151 2.3022 C 4.9094 1.7959 4.1417 1.3708 3.3253 1.0425 C 2.5597 1.5156 1.8921 2.1323 1.3601 2.855 C 1.7552 3.5544 2.2249 4.2068 2.7584 4.8005 C 2.9539 4.7061 3.1722 4.6519 3.4036 4.6519 ZM 1.9142 6.1409 C 1.9142 5.9319 1.9579 5.7329 2.0356 5.5522 C 1.5575 5.0276 1.1248 4.4612 0.7454 3.8579 C 0.2695 4.803 0 5.8696 0 6.9998 C 0 8.3088 0.3601 9.533 0.9855 10.5808 C 1.2089 9.3213 1.6328 8.1316 2.2185 7.04 C 2.0282 6.7903 1.9142 6.4795 1.9142 6.1409 ZM 7.0267 1.2844 C 7.4203 1.2844 7.777 1.438 8.043 1.687 C 8.8199 1.3528 9.6384 1.0967 10.4896 0.9326 C 9.4622 0.3406 8.2712 0 6.9999 0 C 6.1334 0 5.3038 0.1587 4.5378 0.4468 C 5.1459 0.7468 5.7252 1.0974 6.2704 1.4927 C 6.4922 1.3611 6.7502 1.2844 7.0267 1.2844 ZM 9.254 8.2991 C 9.3467 8.1062 9.4783 7.9355 9.641 7.7998 C 9.2014 6.447 8.5051 5.2097 7.6082 4.1455 C 7.4296 4.2212 7.2332 4.2632 7.0267 4.2632 C 6.7037 4.2632 6.4055 4.1592 6.1615 3.9844 C 5.6217 4.3945 5.1222 4.8545 4.6678 5.3567 C 4.8097 5.5845 4.8929 5.8528 4.8929 6.1409 C 4.8929 6.2966 4.869 6.4463 4.8248 6.5874 C 6.1311 7.4602 7.6344 8.0583 9.254 8.2991 ZM 11.1857 10.3096 C 11.2062 10.5916 11.217 10.8762 11.217 11.1631 C 11.217 11.6685 11.1848 12.1663 11.1239 12.6553 C 12.3107 11.7881 13.2147 10.5571 13.6704 9.1257 C 13.1306 9.2563 12.5767 9.3496 12.0114 9.4038 C 11.8785 9.8115 11.5753 10.1414 11.1857 10.3096 ZM 8.9049 9.3003 C 7.1771 9.0139 5.5748 8.3547 4.1805 7.4102 C 3.9542 7.5488 3.6887 7.6306 3.4037 7.6306 C 3.299 7.6306 3.197 7.6194 3.0983 7.5989 C 2.4307 8.8645 2.0042 10.2761 1.8815 11.7727 C 2.548 12.4873 3.3612 13.063 4.2747 13.4497 C 5.4087 11.7051 6.9944 10.2627 8.9049 9.3003 ZM 11.699 1.8118 C 10.5773 1.9199 9.5059 2.2014 8.5084 2.6248 C 8.5137 2.6738 8.5161 2.7234 8.5161 2.7739 C 8.5161 3.0088 8.4602 3.2305 8.3632 3.4282 C 9.3596 4.5981 10.1337 5.9617 10.6224 7.4541 C 11.2279 7.4651 11.7456 7.8362 11.9683 8.3628 C 12.6422 8.2944 13.2982 8.1658 13.9304 7.9797 C 13.9752 7.6597 14 7.3328 14 6.9998 C 14 4.9424 13.1122 3.0925 11.699 1.8118 ZM 9.6542 10.0957 C 7.8708 10.9312 6.3795 12.2178 5.2997 13.791 C 5.8439 13.9268 6.4132 14 6.9999 14 C 8.0557 14 9.0564 13.7649 9.954 13.3462 C 10.0981 12.6406 10.1746 11.9106 10.1746 11.1631 C 10.1746 10.8931 10.1625 10.6257 10.1422 10.3606 C 9.9623 10.303 9.7974 10.2126 9.6542 10.0957 Z"/>
  </symbol>
  <symbol id="followIco" viewBox="0 0 18 14">
    <path d="M2.207 10.26c1.869-.699 1.476-1.089 1.476-2.351 0-.758-.571-.51-.821-1.898-.104-.576-.608-.009-.704-1.323 0-.524.275-.654.275-.654s-.14-.775-.194-1.371c-.068-.743.418-2.663 3.012-2.663 2.593 0 3.08 1.92 3.012 2.663-.055.596-.195 1.371-.195 1.371s.275.13.275.654c-.097 1.314-.6.748-.704 1.323-.251 1.387-.821 1.14-.821 1.898 0 1.262.025 1.865 1.893 2.563.225.084 1.743.297 2.29 1.36v2.168h-10.961s.042-1.086.042-1.572c0-.487.251-1.467 2.125-2.168zM14.498 4.133v-2.133l3.502 3.735-3.502 3.732v-2.185c-2.5 0-4.248.851-5.498 2.719.498-2.667 2-5.333 5.498-5.867zm0 0z"/>
  </symbol>
  <symbol id="passSentIco" viewBox="0 0 107 98">
    <path d="M 14 34.4233 L 14 30.1331 C 14 27.2972 16.5081 25 19.4323 25 L 67.7072 25 C 70.6304 25 73 27.2972 73 30.1331 L 73 34.4206 L 79.7824 27.8424 C 80.0671 27.5672 80.0787 27.1849 80.0527 26.7944 C 80.0284 26.4046 79.8322 26.0452 79.5137 25.8054 L 46.7492 1.0815 C 44.838 -0.3605 42.162 -0.3605 40.2499 1.0815 L 7.4856 25.8045 C 7.166 26.0452 6.9698 26.4046 6.9456 26.7944 C 6.9205 27.1849 6.9302 27.5672 7.215 27.8424 L 14 34.4233 ZM 14.1385 34.4233 L 14.1385 34.4233 Z" fill="#009bde"/>
    <path d="M 86.1338 31.8576 C 85.6086 31.6479 85.0037 31.764 84.6017 32.1547 L 48.6727 66.9974 C 47.3005 68.3282 45.4386 69.0766 43.4987 69.0766 C 41.5588 69.0766 39.6968 68.3282 38.3263 66.9974 L 2.399 32.1565 C 1.9962 31.7658 1.3923 31.6489 0.867 31.8608 C 0.3428 32.0706 0 32.5681 0 33.1184 L 0 77.3754 C 0 80.4815 2.5972 83 5.8 83 L 81.2002 83 C 84.403 83 87 80.4815 87 77.3754 L 87 33.1178 C 87 32.5663 86.6572 32.0696 86.1338 31.8576 L 86.1338 31.8576 ZM 86.1338 31.8576 L 86.1338 31.8576 Z" fill="#135290"/>
    <path d="M 59.5718 31 L 27.4297 31 C 25.8282 31 24.53 32.6337 24.53 34.1876 C 24.53 35.7407 25.8282 37 27.4297 37 L 59.5718 37 C 61.1733 37 62.4719 35.7407 62.4719 34.1876 C 62.4719 32.6337 61.1733 31 59.5718 31 L 59.5718 31 ZM 59.5718 32.1438 L 59.5718 32.1438 Z" fill="#009bde"/>
    <path d="M 59.5718 43 L 27.4297 43 C 25.8282 43 24.53 44.6347 24.53 46.1877 C 24.53 47.7408 25.8282 49 27.4297 49 L 59.5718 49 C 61.1733 49 62.4719 47.7408 62.4719 46.1877 C 62.4719 44.6347 61.1733 43 59.5718 43 L 59.5718 43 ZM 59.5718 43.3929 L 59.5718 43.3929 Z" fill="#009bde"/>
    <path d="M 65 77 C 65 65.4019 74.4019 56 86 56 C 97.5981 56 107 65.4019 107 77 C 107 88.5981 97.5981 98 86 98 C 74.4019 98 65 88.5981 65 77 Z" fill="#ffffff"/>
    <path d="M 78 87 L 102 76.5 L 78 66 L 78 74.1667 L 95.1428 76.5 L 78 78.8333 L 78 87 Z" fill="#009bde"/>
  </symbol>
  <symbol id="calendarIco" viewBox="0 0 18 20">
    <path d="M 2 18 L 2 7 L 16 7 L 16 18 L 2 18 ZM 15.8412 3 L 14 3 L 14 0 L 12 0 L 12 3 L 6 3 L 6 0 L 4 0 L 4 3 L 2.1495 3 C 1.1095 3 0 3.8545 0 4.9092 L 0 18.0908 C 0 19.1457 0.8422 20 1.8823 20 L 16.1177 20 C 17.1576 20 18 19.1457 18 18.0908 L 18 4.4092 C 18 3.3544 17.1576 3 16.1177 3 L 15.8412 3 Z"/>
    <rect x="4" y="10" width="2" height="2"/>
    <rect x="4" y="14" width="2" height="2"/>
    <rect x="12" y="10" width="2" height="2"/>
    <rect x="12" y="14" width="2" height="2"/>
    <rect x="8" y="10" width="2" height="2"/>
    <rect x="8" y="14" width="2" height="2"/>
  </symbol>
  <symbol id="arrowLeftIco" viewBox="0 0 6 10">
    <path d="M 5.871 0.75 L 5.1318 0 L 0 5 L 5.1318 10 L 6 9.3125 L 1.5484 5.0625 L 5.871 0.75 Z"/>
  </symbol>
  <symbol id="arrowRightIco" viewBox="0 0 6 10">
    <path d="M 0.129 0.75 L 0.8682 0 L 6 5 L 0.8682 10 L 0 9.3125 L 4.4516 5.0625 L 0.129 0.75 Z"/>
  </symbol>
  <symbol id="maleIco" viewBox="0 0 22 17">
    <path d="M 11.0001 0.1698 C 12.0831 -0.3605 12.7601 0.5206 12.7601 0.5206 C 14.2832 0.6512 14.2832 1.7932 14.2832 1.7932 C 15.3324 2.2501 14.4524 3.5881 14.4524 3.5881 C 14.6886 4.157 14.5877 4.567 14.5877 4.567 C 14.2832 5.3828 14.4185 5.9376 14.4185 5.9376 C 14.4862 5.807 14.7908 5.7418 14.7908 5.7418 C 15.3662 5.9049 14.4862 7.0008 14.4862 7.0008 C 14.3171 7.3788 14.2832 7.6345 14.2832 7.6345 C 14.2832 8.124 13.8431 8.124 13.8431 8.124 L 13.7417 8.9724 C 13.7417 9.5272 13.3694 9.7882 13.3694 9.7882 C 13.3694 11.7462 14.114 11.8114 14.114 11.8114 C 14.4524 11.8114 14.757 12.1377 14.757 12.1377 C 15.84 13.1167 19.2585 14.3568 19.2585 14.3568 C 21.8645 14.9768 22 17 22 17 L 0 17 C 0 17 0.1354 14.9768 2.7416 14.3568 C 2.7416 14.3568 6.16 13.1167 7.243 12.1377 C 7.243 12.1377 7.5477 11.8114 7.8862 11.8114 C 7.8862 11.8114 8.6308 11.7462 8.6308 9.7882 C 8.6308 9.7882 8.2585 9.5272 8.2585 8.9724 L 8.1569 8.124 C 8.1569 8.124 7.717 8.124 7.717 7.6345 C 7.717 7.6345 7.6832 7.3788 7.5138 7.0008 C 7.5138 7.0008 6.6338 5.9049 7.2092 5.7418 C 7.2092 5.7418 7.5138 5.807 7.5817 5.9376 C 7.5817 5.9376 7.717 5.3828 7.4123 4.567 C 7.4123 4.567 7.3115 4.1576 7.5477 3.5881 C 7.5477 3.5881 6.6677 2.2501 7.717 1.7932 C 7.717 1.7932 7.717 0.6512 9.24 0.5206 C 9.24 0.5206 9.9169 -0.3605 11.0001 0.1698 L 11.0001 0.1698 Z"/>
  </symbol>
  <symbol id="femaleIco" viewBox="0 0 19 17">
    <path d="M 15.6254 14.1541 L 15.162 14.1383 C 15.162 14.1383 13.7753 13.8609 12.7092 13.3196 C 12.709 13.3171 12.7098 12.3147 12.709 12.3123 C 12.7073 12.3069 12.5297 11.7725 11.9332 11.7964 C 11.9293 11.7965 11.9258 11.7977 11.9222 11.7989 C 11.7372 11.6287 11.6008 11.4427 11.5396 11.2409 L 11.5314 10.9599 L 12.0451 10.9992 C 13.1371 11.165 14.2602 10.3951 14.2602 10.3951 C 13.6955 10.2339 13.8563 9.8311 14.1754 8.9853 C 14.4944 8.1394 13.8118 7.2129 13.8118 7.2129 C 14.315 7.1324 14.2775 6.0851 13.8118 5.0781 C 13.3463 4.0711 12.9719 2.2719 12.9719 2.2719 C 12.0028 -0.1718 10.0231 0.0028 10.0231 0.0028 L 9.8547 0 L 9.5244 0 L 9.4756 0 L 9.1453 0 L 8.9768 0.0028 C 8.9768 0.0028 6.9969 -0.1718 6.0281 2.2719 C 6.0281 2.2719 5.6536 4.0711 5.1882 5.0781 C 4.7225 6.0851 4.685 7.1324 5.1882 7.2129 C 5.1882 7.2129 4.5055 8.1394 4.8246 8.9853 C 5.1437 9.8311 5.3045 10.2339 4.7397 10.3951 C 4.7397 10.3951 5.8629 11.165 6.9549 10.9992 L 7.4686 10.9599 L 7.4603 11.2409 C 7.399 11.4427 7.2628 11.6286 7.0777 11.7989 C 7.0742 11.7977 7.0707 11.7965 7.0668 11.7964 C 6.4704 11.7725 6.2928 13.3069 6.2911 13.3123 C 6.2902 13.3147 6.2911 13.3171 6.291 13.3196 C 5.2249 13.8608 3.8378 14.1383 3.8378 14.1383 L 3.3745 14.1541 C 0.5219 14.516 0 17 0 17 L 19 17 C 19 17 18.4781 14.516 15.6254 14.1541 Z"/>
  </symbol>
  <symbol id="createOrgIco" viewBox="0 0 16 15">
    <path d="M 11 7 L 11 10 L 8 10 L 8 12 L 11 12 L 11 15 L 13 15 L 13 12 L 16 12 L 16 10 L 13 10 L 13 7 L 11 7 ZM 6.53 7 L 4.2 7 L 4.2 5.6 L 5.6 5.6 C 6.02 5.6 6.3 5.32 6.3 4.9 L 6.3 3.5 L 7.7 3.5 C 8.4701 3.5 9.1 2.87 9.1 2.1 L 9.1 1.82 C 10.5581 2.4234 11.727 3.6409 12.27 5.135 C 12.8432 5.2585 13.3856 5.4656 13.885 5.74 C 13.2866 2.4866 10.4196 0 7 0 C 3.15 0 0 3.15 0 7 C 0 10.4198 2.4863 13.2869 5.74 13.885 C 5.4615 13.3783 5.253 12.8274 5.13 12.245 C 2.9754 11.4648 1.4 9.3855 1.4 7 C 1.4 6.58 1.4701 6.16 1.54 5.74 L 4.9 9.1 L 4.9 9.8 C 4.9 10.0101 4.9461 10.2107 5.03 10.39 C 5.1615 9.094 5.7074 7.9191 6.53 7 Z"/>
  </symbol>
  <symbol id="globeIco" viewBox="0 0 14 14">
    <path d="M 7 0 C 3.15 0 0 3.15 0 7 C 0 10.85 3.15 14 7 14 C 10.85 14 14 10.85 14 7 C 14 3.15 10.85 0 7 0 ZM 6.3 12.53 C 3.5699 12.18 1.4 9.8 1.4 7 C 1.4 6.58 1.4701 6.16 1.54 5.74 L 4.9 9.1 L 4.9 9.8 C 4.9 10.57 5.5299 11.2 6.3 11.2 L 6.3 12.53 ZM 11.13 10.78 C 10.9199 10.22 10.4301 9.8 9.8 9.8 L 9.1 9.8 L 9.1 7.7 C 9.1 7.28 8.8199 7 8.4 7 L 4.2 7 L 4.2 5.6 L 5.6 5.6 C 6.02 5.6 6.3 5.32 6.3 4.9 L 6.3 3.5 L 7.7 3.5 C 8.4701 3.5 9.1 2.87 9.1 2.1 L 9.1 1.82 C 11.13 2.66 12.6 4.69 12.6 7 C 12.6 8.47 12.04 9.8 11.13 10.78 Z"/>
  </symbol>
  <symbol id="inviteFriendsIco" viewBox="0 0 16 15">
    <path d="M 10 15 L 16 11.5 L 10 8 L 10 9.9444 L 12.2858 11.5 L 10 13.0556 L 10 15 ZM 9.345 6.765 C 9.4647 6.4997 9.5615 6.2051 9.6146 5.8925 C 10.2097 5.8925 10.5776 4.5091 9.9822 4.0222 C 10.0071 3.5099 10.7471 0 7 0 C 3.2529 0 3.9929 3.5099 4.0177 4.0222 C 3.4224 4.5091 3.7903 5.8925 4.3853 5.8925 C 4.6064 7.1938 5.6216 8.1614 5.6216 8.1614 C 5.6216 8.1614 5.6139 9.0762 5.2682 9.1292 C 4.1555 9.2997 0 11.0647 0 13 L 7 13 L 7.415 13 C 7.1474 12.3875 7 11.7111 7 11 C 7 9.2149 7.9376 7.6496 9.345 6.765 Z"/>
  </symbol>
  <symbol id="settingsIco" viewBox="0 0 20 20">
    <path d="M 19.9372 8.8895 C 19.9057 8.6084 19.578 8.397 19.2946 8.397 C 18.3782 8.397 17.5649 7.8592 17.2238 7.0271 C 16.8755 6.1747 17.1001 5.1807 17.783 4.5539 C 17.998 4.3576 18.0242 4.0287 17.8439 3.7999 C 17.3748 3.2045 16.8415 2.6664 16.2596 2.2001 C 16.0317 2.0173 15.6972 2.0428 15.4996 2.2614 C 14.9037 2.9217 13.8328 3.1669 13.0055 2.8219 C 12.1443 2.4595 11.6016 1.5873 11.6547 0.6508 C 11.6722 0.3564 11.4572 0.1008 11.1639 0.0666 C 10.417 -0.0199 9.6633 -0.0227 8.9141 0.0607 C 8.6244 0.0928 8.4096 0.3425 8.4194 0.6327 C 8.4516 1.5601 7.9021 2.4173 7.0497 2.7665 C 6.2322 3.1002 5.169 2.8571 4.5741 2.2028 C 4.3776 1.9873 4.0484 1.9608 3.8198 2.1394 C 3.22 2.6095 2.6751 3.148 2.2016 3.7388 C 2.0171 3.9683 2.0442 4.3011 2.2613 4.4988 C 2.9572 5.129 3.182 6.1318 2.8203 6.9939 C 2.4752 7.816 1.6216 8.3458 0.6445 8.3458 C 0.3275 8.3357 0.1017 8.5484 0.0668 8.8365 C -0.0211 9.5878 -0.0221 10.3533 0.0628 11.1108 C 0.0942 11.393 0.4318 11.6026 0.7183 11.6026 C 1.5892 11.5803 2.4252 12.1195 2.7761 12.9729 C 3.1255 13.8253 2.9009 14.8186 2.2168 15.4457 C 2.0027 15.6421 1.9756 15.9706 2.1561 16.1991 C 2.6205 16.7909 3.1538 17.3295 3.738 17.7996 C 3.9671 17.9841 4.3007 17.9583 4.4992 17.7393 C 5.0975 17.0776 6.1684 16.8328 6.9922 17.1784 C 7.8554 17.5398 8.3983 18.412 8.3453 19.3492 C 8.3278 19.6432 8.5439 19.8996 8.836 19.933 C 9.2182 19.9777 9.6026 20 9.988 20 C 10.3538 20 10.7199 19.9798 11.0857 19.9393 C 11.3759 19.9072 11.5908 19.6575 11.581 19.3666 C 11.5473 18.4396 12.0977 17.5827 12.949 17.2339 C 13.7721 16.898 14.8308 17.1439 15.4255 17.7975 C 15.6233 18.0127 15.9502 18.0385 16.1806 17.8606 C 16.7787 17.3915 17.3225 16.8534 17.7984 16.2612 C 17.9829 16.032 17.9567 15.6986 17.7386 15.5012 C 17.0426 14.871 16.8166 13.8679 17.1783 13.0064 C 17.5185 12.1955 18.34 11.6507 19.2242 11.6507 L 19.3476 11.6539 C 19.6343 11.6772 19.8982 11.4565 19.933 11.1639 C 20.0211 10.4119 20.0221 9.647 19.9372 8.8895 ZM 10.016 13.3566 C 8.1764 13.3566 6.6802 11.8607 6.6802 10.0213 C 6.6802 8.1818 8.1764 6.6856 10.016 6.6856 C 11.8553 6.6856 13.3515 8.1818 13.3515 10.0213 C 13.3515 11.8607 11.8553 13.3566 10.016 13.3566 Z"/>
  </symbol>
  <symbol id="logoutIco" viewBox="0 0 16 15">
    <path d="M 7 0 C 3.15 0 0 3.15 0 7 C 0 10.85 3.15 14 7 14 C 10.85 14 14 10.85 14 7 C 14 3.15 10.85 0 7 0 ZM 10.5 9.52 L 9.52 10.5 L 7 7.98 L 4.48 10.5 L 3.5 9.52 L 6.02 7 L 3.5 4.48 L 4.48 3.5 L 7 6.02 L 9.52 3.5 L 10.5 4.48 L 7.98 7 L 10.5 9.52 Z"/>
  </symbol>
  <symbol id="cameraIco" viewBox="0 0 44 35">
    <path d="M 22 13.125 C 18.2441 13.125 15.2 16.064 15.2 19.6875 C 15.2 23.3123 18.2441 26.25 22 26.25 C 25.7551 26.25 28.8 23.3123 28.8 19.6875 C 28.8 16.064 25.7551 13.125 22 13.125 ZM 39.4667 7 L 34.6933 7 C 33.9451 7 33.1394 6.0023 32.9031 5.3173 L 31.497 1.2445 C 31.2597 0.5602 30.4548 0 29.7067 0 L 14.2933 0 C 13.5453 0 12.7393 0.5602 12.503 1.2452 L 11.0969 5.7555 C 10.8598 6.4398 10.0547 7 9.3067 7 L 4.5333 7 C 2.04 7 0 8.9687 0 11.375 L 0 30.625 C 0 33.0312 2.04 35 4.5333 35 L 39.4667 35 C 41.96 35 44 33.0312 44 30.625 L 44 11.375 C 44 8.9687 41.96 7 39.4667 7 ZM 22 30.625 C 15.7407 30.625 10.6667 25.7279 10.6667 19.6875 C 10.6667 13.6472 15.7407 8.75 22 8.75 C 28.2582 8.75 33.3333 13.6472 33.3333 19.6875 C 33.3333 25.7279 28.2582 30.625 22 30.625 ZM 38.5467 13.997 C 37.671 13.997 36.96 13.3118 36.96 12.4658 C 36.96 11.6204 37.671 10.9345 38.5467 10.9345 C 39.4232 10.9345 40.1334 11.6204 40.1334 12.4658 C 40.1334 13.3118 39.4232 13.997 38.5467 13.997 Z"/>
  </symbol>
  <symbol id="personalInfoIco" viewBox="0 0 26 19">
    <path d="M 19.2264 13.9382 C 18.7822 13.8689 18.7721 12.6726 18.7721 12.6726 C 18.7721 12.6726 20.0773 11.4072 20.3617 9.7056 C 21.1269 9.7056 21.5995 7.8965 20.8342 7.2598 C 20.8662 6.5898 21.8179 2 17 2 C 12.1821 2 13.1338 6.5898 13.1656 7.2598 C 12.4004 7.8965 12.873 9.7056 13.6382 9.7056 C 13.9226 11.4072 15.2278 12.6726 15.2278 12.6726 C 15.2278 12.6726 15.2177 13.8689 14.7736 13.9382 C 13.3428 14.1611 8 16.4692 8 19 L 17 19 L 26 19 C 26 16.4692 20.6572 14.1611 19.2264 13.9382 ZM 0 10 L 0 12 L 12.035 12 C 11.2263 11.4894 10.5357 10.8053 10.02 10 L 0 10 ZM 0 5 L 0 7 L 9.02 7 C 9.0074 6.835 9 6.6682 9 6.5 C 9 5.9837 9.0613 5.4815 9.175 5 L 0 5 ZM 0 0 L 0 2 L 10.81 2 C 11.6616 1.1126 12.7624 0.4674 14 0.175 L 14 0 L 0 0 Z"/>
  </symbol>
  <symbol id="skillsIco" viewBox="0 0 148.000000 148.000000">
    <path d="M121 1.1c-8.8 3.5-12.7 14.6-7.7 21.9 3.7 5.5 7.2 7.5 13.2 7.5 8.6 0 14.8-6.3 14.8-15 0-10.4-10.9-18.1-20.3-14.4zM68 8.6c-6.3 1.3-13.9 2.9-16.8 3.5-8.2 1.7-10.6 7.6-4.7 11.5 2.1 1.3 3.6 1.2 17.1-1.5l14.8-2.9 5.6 4.8c7 6.1 9.8 9.2 8.5 9.7-3.7 1.3-30.6 19-33.2 21.8-3.5 3.7-4.1 7-2.2 10.8.7 1.2 5.8 8.8 11.5 16.8 5.7 8.1 10.4 14.9 10.4 15.3 0 .3-7.4.6-16.4.6-15.9 0-16.5.1-18 2.2-2.2 3.1-2 5.1.7 7.6 2.3 2.1 3.1 2.2 25.1 2.2 13.6 0 23.5-.4 24.6-1 4.8-2.5 4.5-4.1-3.5-21.6-4.1-9.2-7.5-17.2-7.5-17.9 0-.8 5.1-4.5 11.3-8.4l11.2-7.1 2.6 8.2c1.5 4.5 3.5 8.8 4.5 9.5 1.3.9 5.8 1.3 16.1 1.3 13 0 14.5-.2 16.3-2 2.4-2.4 2.5-4.8.4-7.8-1.4-2.1-2.3-2.2-12.9-2.2h-11.3l-2.7-11.8c-4-17.5-5.9-20.2-22.4-32.6-7.5-5.7-14.6-10.6-15.6-10.9-1.1-.2-7.2.6-13.5 1.9zM0 40v3h58l4-2.6c2.2-1.5 4-2.8 4-3 0-.2-14.8-.4-33-.4h-33v3zM0 59v3h42.6l1.1-3 1.1-3h-44.8v3zM0 77v3h52.1l-1.8-3-1.7-3h-48.6v3zM60.8 127.7c-5.8 6-10.9 11.7-11.2 12.9-.8 2.7 2.8 7.4 5.7 7.4 2 0 21.4-16.5 33.2-28.1l3-2.9h-20l-10.7 10.7z"/>
  </symbol>
  <symbol id="experienceIco" viewBox="0 0 24 27">
    <path d="M 13.5576 16.4626 C 13.5576 18.7549 15.4512 20.6201 17.7787 20.6201 C 20.1063 20.6201 22 18.7549 22 16.4626 C 22 14.1699 20.1063 12.3047 17.7787 12.3047 C 15.4512 12.3047 13.5576 14.1699 13.5576 16.4626 ZM 3 4 L 11 4 L 11 5 L 3 5 L 3 4 ZM 3 10 L 12 10 L 12 11 L 3 11 L 3 10 ZM 3 7 L 17 7 L 17 8 L 3 8 L 3 7 ZM 20 22.5 C 19.2304 22.8209 18.3859 23 17.5 23 L 18.72 23 C 18.5021 23.0399 18.2686 23.0625 18 23.0625 C 17.7292 23.0625 17.5116 23.04 17.315 23 C 16.8821 22.9118 16.5535 22.7386 16 22.5327 L 16 22.825 C 13.1375 22.1422 11 19.5686 11 16.5 C 11 12.9102 13.9102 10 17.5 10 C 18.3859 10 19.2304 10.1791 20 10.5 L 20 0 L 0 0 L 0 23 L 16 23 L 16 26.9375 L 16.875 26.5313 C 17.1108 26.2993 17.6911 25.8438 18 25.8438 C 18.3088 25.8438 18.7642 26.0493 19 26.2813 L 19.9688 27.125 L 20 23 L 20 22.564 L 20 22.5 Z"/>
  </symbol>
  <symbol id="achievementIco" viewBox="0 0 24 19">
    <path d="M 19.0116 1 C 19.0272 0.2832 18.9989 0 18.9989 0 L 12.0553 0 L 12.0553 0 L 12.0178 0 L 11.9803 0 L 11.9803 0 L 5.0367 0 C 5.0367 0 5.0094 0.283 5.0251 1 L 0 1 L 0 1.884 C 0 2.0588 -0.1678 5.6736 2.3811 8.4902 C 3.502 9.4314 4.902 9.9048 6.5501 9.9055 C 6.7989 9.9055 6.5064 9.8901 6.7661 9.8691 C 7.7022 11.083 8.7832 11.9321 10 12.3555 L 10 16 L 7 16 L 7 18 L 6 18 L 6 19 L 12.1822 19 L 12.0553 19 L 18 19 L 18 18 L 17 18 L 17 16 L 14 16 L 14 12.6392 C 15.2159 12.2156 16.297 11.083 17.2338 9.8691 C 17.4944 9.8901 17.2375 9.9055 17.4855 9.9055 C 19.1337 9.9048 20.5316 9.4314 21.6516 8.4902 C 24.0671 6.0693 24 2.1145 24 1.9397 L 24 1 L 19.0116 1 ZM 3.4621 7.7002 C 1.9279 6.4153 1.4738 3.1597 1.3398 2 L 4.661 2 C 4.8013 3.4448 5.132 6.3003 5.8949 7.8823 C 6.0345 8.1729 6.196 8.2085 6.3457 8.4775 C 5.2014 8.436 4.2242 8.3374 3.4621 7.7002 ZM 20.5735 7.7002 C 19.8114 8.3384 18.8482 8.3247 17.7047 8.3662 C 17.8545 8.0977 18.0019 8.1729 18.1415 7.8823 C 18.9044 6.3003 19.235 3.4448 19.3746 2 L 22.6959 2 C 22.5618 3.1587 22.1078 6.4146 20.5735 7.7002 Z"/>
  </symbol>
  <symbol id="educationIco" viewBox="0 0 20 23">
    <path d="M 18.5386 23 L 3 23 L 3 0 L 11 0 L 11 6.8148 L 14.0049 3.2795 L 17 6.8148 L 17 0 L 18.5386 0 C 19.3458 0 20 0.6753 20 1.5082 L 20 21.4918 C 20 22.3247 19.3458 23 18.5386 23 ZM 0 0 L 2 0 L 2 23 L 0 23 L 0 0 Z"/>
  </symbol>
  <symbol id="recommendationIco" viewBox="0 0 22 27">
    <path d="M 19.1863 9.7949 C 19.6299 10.6017 19.4609 11.2385 18.6826 11.712 C 17.9053 12.1835 17.5115 12.8799 17.499 13.8013 C 17.4846 14.7263 17.0265 15.1974 16.1207 15.2079 C 15.2139 15.2184 14.5309 15.6239 14.0656 16.416 C 13.6023 17.2101 12.9763 17.381 12.1866 16.927 C 11.3969 16.4814 10.6051 16.4814 9.8154 16.927 C 9.0256 17.381 8.4008 17.2101 7.9365 16.416 C 7.4712 15.6239 6.7883 15.2184 5.8814 15.2079 C 4.9777 15.1974 4.5175 14.7263 4.5051 13.8013 C 4.4916 12.8799 4.0967 12.1835 3.3195 11.712 C 2.54 11.2395 2.3701 10.6017 2.8158 9.7949 C 3.2595 8.9902 3.2595 8.1857 2.8158 7.3794 C 2.3701 6.5736 2.5411 5.939 3.3195 5.4655 C 4.0967 4.9899 4.4905 4.2953 4.5051 3.3699 C 4.5175 2.4482 4.9777 1.9779 5.8814 1.9669 C 6.7872 1.9551 7.4712 1.552 7.9354 0.7594 C 8.3998 -0.0348 9.0247 -0.2052 9.8154 0.2458 C 10.6051 0.6956 11.3969 0.6956 12.1866 0.2458 C 12.9763 -0.2063 13.6013 -0.0348 14.0656 0.7594 C 14.5309 1.5508 15.2139 1.9543 16.1207 1.9669 C 17.0265 1.9779 17.4846 2.4482 17.499 3.3699 C 17.5105 4.2953 17.9053 4.9907 18.6826 5.4655 C 19.4619 5.939 19.6299 6.5747 19.1863 7.3794 C 18.7449 8.1857 18.7449 8.9902 19.1863 9.7949 ZM 11.0031 3.5341 C 8.2629 3.5341 6.0431 5.796 6.0431 8.5859 C 6.0431 11.3778 8.2629 13.6409 11.0031 13.6409 C 13.7412 13.6409 15.961 11.3778 15.961 8.5859 C 15.961 5.796 13.7412 3.5341 11.0031 3.5341 ZM 13.0379 11.8031 L 10.959 10.6899 L 8.88 11.8031 L 9.2758 9.6685 L 7.5969 8 L 9.9193 8 L 10.959 5.4298 L 11.9963 8 L 14.3208 8 L 12.6419 9.6686 L 13.0379 11.8031 ZM 4.8016 16.9607 C 6.9998 17.009 6.2909 18.8444 8.0724 18.8887 C 8.0724 18.8402 4.6346 26.5302 4.6346 26.5302 L 2.9838 24 L 0 24 L 3.7216 16.5468 C 3.7216 16.5468 3.8491 16.9607 4.8016 16.9607 ZM 15.4438 18.312 C 16.0657 17.7778 15.5123 17.1287 18.2316 16.8396 L 22 24 L 19.0648 24 L 17.8224 26.8143 L 13.625 19.0262 C 13.625 19.0262 14.7288 19.0895 15.4438 18.312 Z"/>
  </symbol>
  <symbol id="editIco" viewBox="0 0 14 14">
    <path d="M 8.7056 2.3364 L 11.5535 5.1982 L 4.3445 12.4424 L 1.4983 9.5806 L 8.7056 2.3364 ZM 13.7145 1.6462 L 12.4445 0.3699 C 11.9536 -0.1233 11.1565 -0.1233 10.6641 0.3699 L 9.4475 1.5925 L 12.2954 4.4543 L 13.7145 3.0283 C 14.0952 2.6458 14.0952 2.0287 13.7145 1.6462 ZM 0.0079 13.6031 C -0.0439 13.8375 0.1667 14.0475 0.3999 13.9906 L 3.5735 13.2173 L 0.7272 10.3555 L 0.0079 13.6031 Z"/>
  </symbol>
  <symbol id="plusIco" viewBox="0 0 20 20">
    <path d="M 8 0 L 8 8 L 0 8 L 0 12 L 8 12 L 8 20 L 12 20 L 12 12 L 20 12 L 20 8 L 12 8 L 12 0 L 8 0 Z"/>
  </symbol>
  <symbol id="directorIco" viewBox="0 0 16 17">
    <path d="M 8.1411 0.0001 C 8.1182 0.0001 8.0963 0.0059 8.0748 0.0059 C 8.0073 0.004 7.9401 -0.0006 7.8719 0.0001 L 8.1411 0.0001 ZM 8 10.8438 C 7.9878 10.8438 8.0135 10.8463 8.0015 10.8463 C 7.9924 10.8463 7.9843 10.8489 7.9752 10.8489 L 8 10.8438 ZM 4.2452 6.8574 C 4.2548 6.8555 4.2617 6.8448 4.2719 6.8422 C 4.8717 9.112 6.4244 10.8105 8.002 10.8463 C 9.4393 10.7773 11.2034 9.1094 11.791 6.8513 C 12.0611 6.8685 12.3313 6.5352 12.4066 6.0713 C 12.485 5.5873 12.3213 5.1553 12.0418 5.1055 C 12.0238 5.1019 12.0063 5.114 11.9883 5.1146 C 11.9073 1.3792 10.2106 0.062 8.0742 0.0053 C 5.8714 0.016 3.8984 1.6173 4.0236 5.1153 C 4.0024 5.1153 3.9825 5.1013 3.9622 5.1055 C 3.6825 5.1553 3.5193 5.5873 3.5975 6.0713 C 3.6741 6.5541 3.9647 6.906 4.2452 6.8574 ZM 11.125 11.3438 L 8.9688 15 L 8.9688 12.6563 L 9.9688 11.375 L 7.9375 10.8438 L 6 11.375 L 6.9688 12.6875 L 7 15 L 4.625 11.3125 C 1.1473 11.8021 0 13.2097 0 17 L 16 17 C 16.0013 13.2097 14.6014 11.8347 11.125 11.3438 Z"/>
  </symbol>
  <symbol id="urlIco" viewBox="0 0 14 14">
    <path d="M 12.9121 6.3431 L 10.2839 8.9703 C 8.8334 10.4218 6.4802 10.4218 5.0295 8.9703 C 4.8009 8.7426 4.6222 8.4859 4.4653 8.221 L 5.6863 6.9999 C 5.7444 6.9414 5.816 6.9078 5.8846 6.8683 C 5.9689 7.1569 6.1163 7.4299 6.3431 7.6567 C 7.0675 8.3816 8.2464 8.3807 8.9703 7.6567 L 11.5976 5.0295 C 12.3224 4.3047 12.3224 3.1263 11.5976 2.4019 C 10.8736 1.6775 9.6952 1.6775 8.9703 2.4019 L 8.0359 3.3372 C 7.278 3.0419 6.4611 2.9625 5.6659 3.079 L 7.6567 1.0883 C 9.1082 -0.3628 11.4606 -0.3628 12.912 1.0883 C 14.3627 2.5393 14.3627 4.8921 12.9121 6.3431 ZM 5.9644 10.6631 L 5.0295 11.5984 C 4.3052 12.3224 3.1263 12.3224 2.4019 11.5984 C 1.6775 10.8736 1.6775 9.6952 2.4019 8.9703 L 5.0295 6.3432 C 5.7544 5.6183 6.9324 5.6183 7.6567 6.3432 C 7.8831 6.5695 8.0305 6.8426 8.1158 7.1306 C 8.1848 7.0907 8.2555 7.058 8.3136 7 L 9.5347 5.7794 C 9.3786 5.5135 9.199 5.2577 8.9703 5.0296 C 7.5198 3.5786 5.1665 3.5786 3.7155 5.0296 L 1.0883 7.6568 C -0.3628 9.1082 -0.3628 11.4606 1.0883 12.9121 C 2.5393 14.3626 4.8921 14.3626 6.3431 12.9121 L 8.3344 10.9208 C 7.5388 11.0378 6.7219 10.9579 5.9644 10.6631 Z"/>
  </symbol>
  <symbol id="createAlbumIco" viewBox="0 0 50 39">
    <path d="M 7.7692 6.3077 C 7.7692 3.5887 9.9734 1.3846 12.6923 1.3846 C 15.4113 1.3846 17.6154 3.5887 17.6154 6.3077 C 17.6154 9.0267 15.4113 11.2307 12.6923 11.2307 C 9.9734 11.2307 7.7692 9.0267 7.7692 6.3077 Z" fill="#ffd00c"/>
    <path d="M 28.5384 6.7693 C 28.5341 6.7693 28.5727 5.0823 28.5683 5.0823 C 28.3999 1.6439 26.1866 0.1539 23.4835 0.1539 C 20.9882 0.1539 18.9127 2.4707 18.473 5.5276 C 18.4162 5.525 18.3572 5.5219 18.3003 5.5219 C 16.4414 5.5219 14.8733 5.882 14.3615 8.0659 C 14.2828 8.0573 14.2019 8.0518 14.121 8.0518 C 12.6534 8.0518 11.4616 9.0768 11.1538 10.7693 C 11.6154 12.8461 12.3621 13.8174 13.75 14.125 C 13.7714 14.1298 28.2083 14.125 28.2083 14.125 C 30.3122 14.125 33.1538 12.5384 33.4616 10 C 33.2308 7.5384 30.6423 6.7693 28.5384 6.7693 Z" fill="#dddddd"/>
    <path d="M 12.6407 22.9736 L 21.5441 33.0717 L 34.0091 17.6317 L 50.0353 39 L 0.1759 39 L 12.6407 22.9736 Z" fill="#0082b9"/>
    <path d="M 34.0667 17.5333 L 16.2667 39 L 49.7795 39 L 34.0667 17.5333 Z" fill="#009cde"/>
  </symbol>
  <symbol id="youtubeIco" viewBox="0 0 64 44">
    <path d="M 26 13 L 40 23 L 26 33 L 26 13 ZM 3.4065 0 C 1.5251 0 0 1.9698 0 4.4 L 0 39.6 C 0 42.0302 1.5251 44 3.4065 44 L 60.5935 44 C 62.4749 44 64 42.0302 64 39.6 L 64 4.4 C 64 1.9698 62.4749 0 60.5935 0 L 3.4065 0 Z"/>
  </symbol>
  <symbol id="wallIco" viewBox="0 0 58 44">
    <path d="M 50 17 L 41 17 L 41 7 L 50 7 L 50 17 ZM 35 31 L 9 31 L 9 27 L 35 27 L 35 31 ZM 35 38 L 9 38 L 9 34 L 35 34 L 35 38 ZM 0 0 L 0 44 L 58 44 L 58 0 L 0 0 Z"/>
  </symbol>
  <symbol id="coverIco" viewBox="0 0 56 44">
    <path d="M 17.2307 14.0476 C 17.2307 12.233 18.6771 10.7619 20.4615 10.7619 C 22.246 10.7619 23.6923 12.233 23.6923 14.0476 C 23.6923 15.8623 22.246 17.3333 20.4615 17.3333 C 18.6771 17.3333 17.2307 15.8623 17.2307 14.0476 ZM 7 37 L 17.6666 24.3333 L 23.8846 32.241 L 27.4058 37 L 20.3639 37 L 7 37 ZM 34.1666 18.8333 L 49 37 L 29.0448 37 L 28.4861 36.2452 L 24.7043 31.204 L 34.1666 18.8333 ZM 0 0 L 0 44 L 56 44 L 56 0 L 0 0 Z"/>
  </symbol>
  <symbol id="commentIco" viewBox="0 0 16 16">
    <path d="M 0 1.8823 L 0 10.1177 C 0 11.1573 0.8427 12 1.8823 12 L 3 12 L 3 15.5294 L 8.5106 12 L 14.1177 12 C 15.1573 12 16 11.1573 16 10.1177 L 16 1.8823 C 16 0.8427 15.1573 0 14.1177 0 L 1.8823 0 C 0.8427 0 0 0.8427 0 1.8823 Z"/>
  </symbol>
  <symbol id="friendsIco" viewBox="0 0 18 16">
    <path d="M 18 16 C 18 16 17.9645 12.5576 17.7563 12.2007 C 17.4465 11.6692 16.7251 11.304 15.3856 10.7386 C 14.0508 10.1748 13.6241 9.6995 13.6241 8.6813 C 13.6241 8.0696 14.0315 8.2698 14.2108 7.1506 C 14.285 6.686 14.645 7.1428 14.714 6.083 C 14.714 5.6604 14.5175 5.5551 14.5175 5.5551 C 14.5175 5.5551 14.6173 4.9302 14.6561 4.4489 C 14.7048 3.8492 14.3569 2.3008 12.5042 2.3008 C 10.6511 2.3008 10.3037 3.8494 10.3523 4.4489 C 10.3915 4.9302 10.491 5.5551 10.491 5.5551 C 10.491 5.5551 10.2948 5.6604 10.2948 6.083 C 10.3638 7.1428 10.7234 6.686 10.7979 7.1506 C 10.9768 8.2698 11.3846 8.0698 11.3846 8.6813 C 11.3846 9.3734 11.1864 9.8149 10.64 10.2041 C 13.5566 11.6787 13.9475 11.9792 13.9475 13.2976 L 13.9475 16 L 18 16 ZM 9.201 11.2504 C 7.4207 10.4988 6.8518 9.8647 6.8518 8.5074 C 6.8518 7.6924 7.3955 7.9585 7.6342 6.4661 C 7.7329 5.8472 8.2131 6.4558 8.3051 5.0425 C 8.3051 4.4792 8.0431 4.3394 8.0431 4.3394 C 8.0431 4.3394 8.1763 3.5061 8.2283 2.8643 C 8.293 2.0649 7.8296 0 5.3588 0 C 2.8884 0 2.4248 2.0649 2.4897 2.8643 C 2.5417 3.5061 2.6746 4.3394 2.6746 4.3394 C 2.6746 4.3394 2.4127 4.4792 2.4127 5.0425 C 2.5049 6.4558 2.9847 5.8472 3.0839 6.4661 C 3.3226 7.9584 3.8662 7.6921 3.8662 8.5074 C 3.8662 9.8647 3.297 10.4988 1.5171 11.2504 C 0.9745 11.4795 0 11.8342 0 12.6879 L 0 16 L 12.5044 16 C 12.5044 16 12.5044 14.0406 12.5044 13.5166 C 12.5044 12.7379 10.9867 12.0046 9.201 11.2504 Z"/>
  </symbol>
  <symbol id="like2Ico" viewBox="0 0 16 17">
    <path d="M 1 8 L 5 8 L 5 16 L 1 16 L 1 8 ZM 0 17 L 7 17 L 7.0515 16.9919 C 7.0515 16.9919 12.4399 16.9932 13.0938 16.9531 C 13.6348 16.7756 14.21 15.7163 14.2841 15.1836 C 14.3204 14.9221 14.1899 14.4443 14.0942 14.2188 C 14.4543 13.9453 14.8523 13.5542 14.9132 13.1133 C 14.9557 12.8057 14.8153 12.2871 14.6902 12.0063 C 15.2603 11.7266 15.5922 10.1113 15.0792 9.7837 C 15.5422 9.4316 15.8949 8.6763 15.973 8.1101 C 16.0533 7.5283 15.9623 7.0066 15.5922 6.54 C 15.2266 6.0798 14.9166 5.9668 14.3223 5.8848 L 10.9634 5.8848 C 10.7506 5.8145 10.7372 5.501 10.7524 5.4463 C 10.8262 5.1772 10.9578 4.8921 11.0974 4.5906 C 11.3101 4.1316 11.5302 3.6572 11.5831 3.1514 C 11.754 1.5474 10.8862 0.7725 10.1115 0.2761 C 9.8257 0.0933 9.504 0 9.1556 0 C 8.6089 0 8.5183 0.2358 8.4718 0.2632 C 8.2915 0.3672 8.1884 0.561 8.2041 0.7634 C 8.2267 1.051 8.228 1.9434 7.9563 2.6055 C 7.7966 2.9946 7.2836 3.7683 6.7838 4.5161 C 6.053 5.6099 5.6002 6.3159 5.4449 6.7795 L 5.3821 6.9404 C 5.27 6.928 5 7 5 7 L 0.63 7 C 0.1626 7.1426 0 7.5044 0 8.2507 L 0 17 ZM 3 14 L 3 15 L 4 15 L 4 14 L 3 14 Z"/>
  </symbol>
  <symbol id="nextIco" viewBox="0 0 44 44">
    <path d="M 22.0013 44.0071 C 34.1361 44.0071 44.0071 34.1359 44.0071 22.002 C 44.0071 9.868 34.1361 -0.0031 22.0013 -0.0031 C 9.8677 -0.0031 -0.0032 9.868 -0.0032 22.002 C -0.0032 34.1359 9.8687 44.0071 22.0013 44.0071 ZM 22.0013 1.4892 C 33.3123 1.4892 42.5148 10.691 42.5148 22.002 C 42.5148 33.3129 33.3123 42.5147 22.0013 42.5147 C 10.6917 42.5147 1.4891 33.3129 1.4891 22.002 C 1.4891 10.691 10.6917 1.4892 22.0013 1.4892 ZM 18.9381 29.5093 C 19.0848 29.655 19.2762 29.7269 19.4667 29.7269 C 19.6581 29.7269 19.8485 29.655 19.9951 29.5083 L 27.2847 22.2118 C 27.5752 21.9204 27.5752 21.4482 27.2847 21.1567 L 19.9951 13.8612 C 19.7037 13.5697 19.2314 13.5697 18.9401 13.8612 C 18.6476 14.1527 18.6476 14.6249 18.9401 14.9163 L 25.702 21.6843 L 18.9381 28.4542 C 18.6476 28.7456 18.6476 29.2188 18.9381 29.5093 Z"/>
  </symbol>
  <symbol id="prevIco" viewBox="0 0 44 44">
    <path d="M 22.0025 44.0071 C 9.8678 44.0071 -0.0031 34.1359 -0.0031 22.002 C -0.0031 9.868 9.8678 -0.0031 22.0025 -0.0031 C 34.1362 -0.0031 44.0071 9.868 44.0071 22.002 C 44.0071 34.1359 34.1352 44.0071 22.0025 44.0071 ZM 22.0025 1.4892 C 10.6917 1.4892 1.4891 10.691 1.4891 22.002 C 1.4891 33.3129 10.6917 42.5147 22.0025 42.5147 C 33.3123 42.5147 42.5148 33.3129 42.5148 22.002 C 42.5148 10.691 33.3123 1.4892 22.0025 1.4892 ZM 25.0658 29.5093 C 24.9191 29.655 24.7277 29.7269 24.5372 29.7269 C 24.3458 29.7269 24.1554 29.655 24.0088 29.5083 L 16.7192 22.2118 C 16.4287 21.9204 16.4287 21.4482 16.7192 21.1567 L 24.0088 13.8612 C 24.3002 13.5697 24.7724 13.5697 25.0638 13.8612 C 25.3563 14.1527 25.3563 14.6249 25.0638 14.9163 L 18.3019 21.6843 L 25.0658 28.4542 C 25.3563 28.7456 25.3563 29.2188 25.0658 29.5093 Z"/>
  </symbol>
  <symbol id="fullscreenIco" viewBox="0 0 18 18">
    <path d="M 4.415 15 L 7.5355 11.8787 L 6.1213 10.4645 L 3 13.585 L 3 10 L 1 10 L 1 17 L 8 17 L 8 15 L 4.415 15 ZM 3 15 L 3 14.6549 L 3.345 15 L 3 15 ZM 15 4.415 L 15 8 L 17 8 L 17 1 L 10 1 L 10 3 L 13.585 3 L 10.4645 6.1213 L 11.8787 7.5355 L 15 4.415 ZM 15 3 L 15 3.345 L 14.6549 3 L 15 3 Z"/>
  </symbol>
  <symbol id="videoIco" viewBox="0 0 20 11">
    <path d="M 5 2.9999 L 9.2 5.5 L 5 8.0001 L 5 2.9999 ZM 11.5562 11 C 12.3542 11 13 10.385 13 9.625 L 13 8.25 L 13 7.071 L 13 3.9282 L 13 2.75 L 13 1.375 C 13 0.6143 12.3542 0 11.5562 0 L 1.4437 0 C 0.6451 0 0 0.6143 0 1.375 L 0 9.625 C 0 10.385 0.6451 11 1.4437 11 L 11.5562 11 ZM 15 7.8566 L 20 11 L 20 0 L 15 3.1434 L 15 7.8566 Z"/>
  </symbol>
  <symbol id="dragIco" viewBox="0 0 42 13">
    <path d="M 27 2 L 27 10 L 15 10 L 15 2 L 27 2 ZM 34 12.8452 L 41.4333 6.5 L 34 0 L 34 5 L 29 5 L 29 8 L 34 8 L 34 12.8452 ZM 8 8 L 13 8 L 13 5 L 8 5 L 8 0.1552 L 0.5664 6.5 L 8 13 L 8 8 Z"/>
  </symbol>
  <symbol id="athleticAchievementIco" viewBox="0 0 21 26">
    <path d="M 11.3658 19.9155 C 11.9223 20.0076 14 20.958 14 22 L 10.5 22 L 7 22 C 7 20.958 9.0778 20.0076 9.6342 19.9155 C 9.8069 19.8872 9.8108 19.3945 9.8108 19.3945 C 9.8108 19.3945 9.3033 18.8738 9.1926 18.1731 C 8.8951 18.1731 8.7112 17.428 9.0089 17.1658 C 8.9965 16.8899 8.6264 15 10.5 15 C 12.3736 15 12.0035 16.8899 11.9911 17.1658 C 12.2887 17.428 12.1049 18.1731 11.8073 18.1731 C 11.6967 18.8738 11.1891 19.3945 11.1891 19.3945 C 11.1891 19.3945 11.1931 19.8872 11.3658 19.9155 ZM 3.4351 18.0298 L 3.8389 18.1396 C 4.0112 18.1863 4.0801 18.3535 3.9922 18.5107 L 3.3638 19.6191 C 3.2749 19.7756 3.3472 19.9043 3.5269 19.9043 L 3.9448 19.9043 C 4.125 19.9043 4.2329 20.0476 4.187 20.2209 L 3.8652 21.4558 C 3.8188 21.6301 3.9229 21.7351 4.0942 21.6885 L 4.4971 21.5786 C 4.668 21.5332 4.811 21.6431 4.811 21.822 L 4.8149 23.1008 C 4.8149 23.2808 4.9419 23.354 5.0962 23.2649 L 5.459 23.0532 C 5.6118 22.9622 5.7769 23.0315 5.8252 23.2065 L 6.1528 24.4387 C 6.2012 24.6128 6.3408 24.6514 6.4668 24.5239 L 6.7642 24.2239 C 6.8892 24.0962 7.0659 24.1199 7.1548 24.2764 L 7.7891 25.3809 C 7.8779 25.5361 8.0239 25.5361 8.1128 25.3809 L 8.3232 25.0146 C 8.4121 24.8574 8.5879 24.8345 8.7158 24.9612 L 9.6099 25.8628 C 9.7358 25.9905 9.8779 25.9509 9.9229 25.7766 L 9.9639 25.6282 C 9.938 25.2244 10.5 25.2244 10.9932 25.5588 L 11.4902 25.8479 C 11.6465 25.937 11.7715 25.8628 11.7715 25.6816 L 11.7715 25.2581 C 11.7715 25.0779 11.9131 24.969 12.085 25.0127 L 13.3027 25.3413 C 13.4766 25.3867 13.5771 25.2817 13.5332 25.1086 L 13.4238 24.7 C 13.3799 24.5256 13.4863 24.3813 13.6641 24.3813 L 14.9277 24.3772 C 15.1055 24.3772 15.1777 24.2488 15.0889 24.0923 L 14.8789 23.7261 C 14.79 23.5698 14.8574 23.4036 15.0273 23.356 L 16.2471 23.0195 C 16.4189 22.9741 16.457 22.8296 16.3311 22.7029 L 16.0352 22.4031 C 15.9082 22.2754 15.9316 22.0952 16.0869 22.0042 L 17.1748 21.3628 C 17.3291 21.272 17.3291 21.1235 17.1748 21.0322 L 16.8125 20.8206 C 16.6602 20.7295 16.6367 20.5513 16.7617 20.4229 L 17.6484 19.5164 C 17.7754 19.3877 17.7363 19.2451 17.5664 19.1975 L 17.1631 19.0889 C 16.9902 19.0432 16.9219 18.875 17.0117 18.7185 L 17.6367 17.6104 C 17.7266 17.4519 17.6543 17.3232 17.4746 17.3232 L 17.0566 17.3252 C 16.8789 17.3252 16.7695 17.1807 16.8164 17.0076 L 17.1367 15.7725 C 17.1836 15.5974 17.0791 15.4944 16.9072 15.54 L 16.5059 15.6487 C 16.334 15.6953 16.1914 15.5854 16.1914 15.4053 L 16.1875 14.1287 C 16.1875 13.9468 16.0605 13.8735 15.9072 13.9644 L 15.5439 14.1753 C 15.3906 14.2654 15.2266 14.196 15.1797 14.0239 L 14.8496 12.7908 C 14.8027 12.6167 14.6611 12.5789 14.5361 12.7075 L 14.2402 13.0066 C 14.1133 13.1331 13.9375 13.1104 13.8477 12.9541 L 13.2119 11.8506 C 13.123 11.6948 12.9785 11.6948 12.8887 11.8506 L 12.6777 12.2173 C 12.5898 12.3735 12.4141 12.3979 12.2871 12.2712 L 11.3906 11.3701 C 11.2656 11.2424 11.123 11.281 11.0781 11.4553 L 10.9692 11.864 C 10.9229 12.0381 10.7598 12.1069 10.605 12.0178 L 9.5112 11.3816 C 9.355 11.291 9.229 11.3662 9.229 11.5479 L 9.229 11.9714 C 9.229 12.1516 9.0869 12.262 8.915 12.2153 L 7.6982 11.8882 C 7.5249 11.8428 7.4219 11.947 7.4678 12.1213 L 7.5752 12.5295 C 7.6211 12.7036 7.5132 12.8462 7.3369 12.8481 L 6.0752 12.8521 C 5.896 12.8521 5.8242 12.9807 5.9121 13.1372 L 6.1211 13.5034 C 6.2109 13.6606 6.1421 13.8279 5.9702 13.8752 L 4.7549 14.21 C 4.582 14.2573 4.5439 14.3999 4.6699 14.5286 L 4.9658 14.8274 C 5.0928 14.9541 5.0698 15.1343 4.9141 15.2244 L 3.8262 15.8665 C 3.6719 15.9575 3.6719 16.106 3.8262 16.196 L 4.188 16.4087 C 4.3418 16.4988 4.3662 16.678 4.2412 16.8066 L 3.3521 17.7131 C 3.2261 17.8398 3.2642 17.9844 3.4351 18.0298 ZM 10.5 10.8525 L 21 0.0171 L 14.75 0.0171 L 10.5 4.4082 L 6.25 0.0171 L 0 0.0171 L 10.5 10.8525 Z"/>
  </symbol>
  <symbol id="textIco" viewBox="0 0 14 12" >
    <path d="M0 0h14v2h-14zM3 5h8v2h-8v-2zM0 10h14v2h-14z"/>
  </symbol>
  <symbol id="startRunIco" viewBox="0 0 35 23">
    <path d="M34.739 5.958c-2.056 2.752-4.943 3.8-7.98 2.91-.953 1.564-1.858 3.156-2.727 4.765 1.285.628 2.8 1.734 3.58 2.328.973.741 2.22 3.671 2.963 5.138.798 1.576-1.77 2.72-2.565 1.15-.655-1.294-1.759-3.868-2.401-4.374-.642-.505-2.751-1.932-4.36-2.467l-.22-.093c-1.969 2.389-5.827 3.517-9.117 1.679-1.734-.968-.166-3.356 1.573-2.384 2.41 1.347 4.918-.375 6.054-2.531 1.136-2.157 1.94-3.674 2.861-5.201-1.798-.548-3.442-.047-4.735 1.683-1.051 1.408-3.51.058-2.447-1.367 2.502-3.348 6.233-4.18 9.968-2.06l1.014.547c2.322 1.317 4.48 1.068 6.091-1.09 1.052-1.408 3.511-.058 2.447 1.366zm-7.063-.594c-1.55 0-2.807-1.201-2.807-2.682 0-1.481 1.257-2.682 2.807-2.682s2.806 1.201 2.806 2.682c0 1.481-1.256 2.682-2.806 2.682zm-6.081-3.364h-10.799c-.284 0-.514-.238-.514-.509s.23-.491.514-.491h10.799c.284 0 .514-.066.514.206 0 .271-.23.794-.514.794zm-9.144 4.405c0 .271-.23.595-.514.595h-10.799c-.284 0-.514-.324-.514-.595 0-.271.23-.405.514-.405h10.799c.284 0 .514.134.514.405zm-8.414 6.456c0-.271.23-.861.514-.861h10.799c.284 0 .514.59.514.861s-.23.139-.514.139h-10.799c-.284 0-.514.133-.514-.139zm6.694 5.802c0 .271-.23.336-.514.336h-9.703c-.284 0-.514-.065-.514-.336s.23-.664.514-.664h9.703c.284 0 .514.393.514.664z"/>
  </symbol>
  <symbol id="endRunIco" viewBox="0 0 21 23">
    <path d="M1.555 11.202c-.001.07-.039.133-.097.168-.596.355-1.175.749-1.458.984 1.397.183 2.597.377 3.672.55 1.905.307 3.41.548 4.871.548 1.036 0 2.052-.13 3.151-.412l.151-.039c1.112-.298 2.313-.75 3.712-1.392l.278-1.684c-.492.239-1.449.663-2.726 1.047-.364.113-.752.225-1.162.328l-.361.089.009-.025c-1.163.254-2.49.433-3.921.433-.892 0-1.783-.07-2.648-.21-.944-.201-3.126-.799-4.348-1.138l.794.576c.055.04.087.106.084.176zm6.436-1.805c.094 0 .193-.021.297-.062.631-.25 1.278-.495 1.901-.731l.066-.026c.702-.265 1.336-.505 1.976-.759l.237-.093.027.262c.1.933.002 1.878-.287 2.814.265-.069.523-.138.765-.211 1.735-.539 2.887-1.145 2.949-1.178.039-.609.028-1.251-.034-1.909l-.018-.198.189-.024c2.349-.298 4.09-2.017 4.9-4.842.076-.264.044-.505-.094-.697-.16-.223-.442-.361-.737-.361-.376 0-.666.227-.775.605-.683 2.377-2.067 3.634-4.004 3.634l-.326-.013-.062-.019c-.4-.212-.911-.279-1.298-.168-.123.035-.242.084-.365.149l-.053.016-.224.062c-1.041.444-2.115.85-3.152 1.243l-.025.008c-.645.244-1.312.496-1.964.754-.479.19-.621.673-.552 1.067.06.336.287.676.662.676zm6.005-4.435c1.315 0 2.385-1.113 2.385-2.481 0-1.368-1.07-2.481-2.385-2.481-1.314 0-2.384 1.113-2.384 2.481 0 1.367 1.07 2.481 2.384 2.481zm1.023 9.007l-.132-.113.118-.202.401-1.507c-.6.273-1.861.806-3.365 1.219l-.219.061-.082.022c.041.184.117.403.217.531l.088.113-.073.122-.105.224c-1.092 3.039-3.108 5.023-5.125 6.714-.33.277-.443.633-.317 1.004.163.48.667.843 1.171.843.259 0 .5-.092.718-.273 2.562-2.149 4.191-4.23 5.278-6.749l.107-.25.198.178c.606.541.893 1.063.879 1.596-.027.939-.47 1.759-.897 2.552l-.058.108c-.194.362-.198.744-.01 1.077.21.374.627.626 1.036.626.357 0 .659-.197.852-.553.729-1.359 1.423-2.818 1.198-4.392-.198-1.386-1.165-2.349-1.875-2.952z"/>
  </symbol>
  <symbol id="pinIco" viewBox="0 0 9 14">
    <path d="M 2 2 L 2 6 L 0 9 L 2 9 L 4 9 L 4 14 L 5 14 L 5 9 L 7 9 L 9 9 L 7 6 L 7 2 L 9 0 L 7 0 L 2 0 L 0 0 L 2 2 Z"/>
  </symbol>
  <symbol id="rugbyIco" viewBox="0 0 15 14">
    <path d="M 9.8494 0.162 C 10.7008 0.043 11.5063 0 12.2236 0 C 12.6038 0 12.984 0.0125 13.3533 0.0371 C 14.2076 0.0941 14.8979 0.7384 14.959 1.5359 C 15.024 2.386 15.0325 3.5358 14.828 4.8094 L 9.8494 0.162 ZM 0.172 9.1906 C -0.0325 10.4642 -0.024 11.614 0.041 12.4641 C 0.1021 13.2616 0.7925 13.9059 1.6467 13.9629 C 2.0159 13.9875 2.396 14 2.7764 14 C 2.7765 14 2.7765 14 2.7766 14 C 3.4939 14 4.2994 13.957 5.1506 13.8381 L 0.172 9.1906 ZM 14.6425 5.7415 C 14.23 7.4704 13.3892 9.3403 11.7644 10.9623 C 11.7581 10.9688 11.7515 10.9749 11.7446 10.9809 C 10.0146 12.4907 8.0154 13.278 6.1489 13.6649 L 0.3575 8.2585 C 0.77 6.5296 1.6108 4.6598 3.2356 3.0377 C 3.2419 3.0313 3.2485 3.0251 3.2554 3.0191 C 4.9854 1.5093 6.9846 0.722 8.8511 0.3351 L 14.6425 5.7415 ZM 10.6046 5.7719 L 10.0061 5.2133 L 10.4717 4.7786 C 10.635 4.6259 10.635 4.3786 10.4717 4.226 C 10.3081 4.0735 10.0432 4.0735 9.8798 4.226 L 9.4141 4.6607 L 8.8157 4.102 C 8.6522 3.9495 8.3872 3.9495 8.2238 4.102 C 8.0602 4.2546 8.0602 4.502 8.2238 4.6546 L 8.8223 5.2133 L 8.1381 5.8518 L 7.5396 5.2932 C 7.3762 5.1407 7.1112 5.1406 6.9478 5.2932 C 6.7842 5.4458 6.7842 5.6932 6.9478 5.8457 L 7.5463 6.4044 L 6.8621 7.043 L 6.2635 6.4843 C 6.1001 6.3318 5.8351 6.3318 5.6716 6.4843 C 5.5081 6.637 5.5081 6.8844 5.6716 7.0369 L 6.2701 7.5956 L 5.5859 8.2343 L 4.9875 7.6756 C 4.824 7.523 4.5591 7.523 4.3955 7.6756 C 4.2322 7.8282 4.2322 8.0755 4.3955 8.2281 L 4.9941 8.7867 L 4.5286 9.2214 C 4.365 9.3741 4.365 9.6214 4.5286 9.774 C 4.6104 9.8502 4.7174 9.8883 4.8245 9.8883 C 4.9316 9.8883 5.0388 9.8502 5.1205 9.774 L 5.5861 9.3393 L 6.1846 9.898 C 6.2664 9.9743 6.3734 10.0124 6.4806 10.0124 C 6.5876 10.0124 6.6948 9.9743 6.7766 9.898 C 6.9402 9.7455 6.9402 9.498 6.7766 9.3454 L 6.1781 8.7867 L 6.8622 8.1482 L 7.4607 8.7068 C 7.5425 8.7831 7.6495 8.8212 7.7568 8.8212 C 7.8639 8.8212 7.9709 8.7831 8.0527 8.7068 C 8.2162 8.5542 8.2162 8.3068 8.0527 8.1543 L 7.4542 7.5956 L 8.1384 6.957 L 8.7369 7.5157 C 8.8186 7.5919 8.9258 7.63 9.0328 7.63 C 9.1399 7.63 9.2471 7.5919 9.3289 7.5157 C 9.4923 7.363 9.4923 7.1156 9.3289 6.9631 L 8.7303 6.4044 L 9.4146 5.7657 L 10.0129 6.3245 C 10.0948 6.4007 10.2019 6.4389 10.309 6.4389 C 10.416 6.4389 10.5232 6.4007 10.605 6.3245 C 10.7679 6.1719 10.7679 5.9245 10.6046 5.7719 Z"/>
  </symbol>
  <symbol id="networkIco" viewBox="0 0 26 16">
    <path d="M 18.8309 16 L 26 16 C 25.7983 14.6746 24.9712 13.8873 23.7247 13.436 C 22.911 13.1426 22.1141 12.8026 21.3232 12.4525 C 21.0979 12.3493 20.9303 12.1308 20.729 11.979 C 20.64 11.9123 20.5294 11.8495 20.425 11.8312 C 20.0558 11.7736 19.8958 11.6471 19.8088 11.2919 C 19.6952 10.8276 19.6115 10.3641 19.7117 9.8824 C 19.7551 9.67 19.8326 9.5364 20.0415 9.4555 C 20.4777 9.2917 20.9023 9.1055 21.3336 8.9273 C 21.6572 8.7927 21.6748 8.6844 21.5599 8.3577 C 21.189 7.3327 20.9149 6.2885 20.826 5.1926 C 20.7681 4.5005 20.7869 3.7928 20.6173 3.1129 L 20.5903 3.1129 L 20.551 2.9242 C 20.2389 1.7256 18.9261 1.074 17.822 1.0048 L 17.7961 1.0012 C 17.7114 0.9961 17.6318 1.0087 17.5491 1.0139 C 17.0839 1.077 16.7024 1.3649 16.2601 1.4914 C 15.6852 1.6573 15.3319 2.1754 15.1177 2.733 C 14.8138 3.5251 14.8694 4.3711 14.8004 5.1917 C 14.7114 6.2885 14.4365 7.3307 14.0675 8.3556 C 13.9475 8.6844 13.9683 8.7958 14.2887 8.9294 C 14.7189 9.1074 15.1476 9.2926 15.5819 9.4575 C 15.7897 9.5385 15.8682 9.6721 15.9117 9.8845 C 16.0088 10.3662 15.9303 10.8296 15.8145 11.295 C 15.7275 11.6492 15.5664 11.7745 15.2003 11.8333 C 15.093 11.8505 14.9835 11.9123 14.8945 11.98 C 14.8138 12.0417 14.7415 12.1115 14.6671 12.1813 C 15.5518 12.5497 16.4677 12.9605 17.3816 13.4198 C 17.8201 13.6404 18.2065 13.9158 18.5311 14.2435 L 18.8309 14.547 L 18.8309 16 ZM 11.9606 7.2252 C 11.9694 7.2129 11.9711 7.1958 11.9729 7.1797 C 12.0157 6.7726 12.0613 6.3667 12.0946 5.9597 C 12.0981 5.9084 12.0543 5.8196 12.0096 5.8034 C 11.8081 5.7321 11.8187 5.5704 11.8204 5.4081 L 11.8187 3.0228 C 11.8187 2.5601 11.6829 2.1487 11.3334 1.8348 C 10.9366 1.4781 10.5269 1.1319 10.1187 0.786 C 9.9199 0.6183 9.905 0.491 10.0889 0.3063 C 10.1713 0.2258 10.2764 0.1684 10.3683 0.1001 L 10.3096 0.0069 C 10.1852 0.0069 10.0591 -0.0103 9.9399 0.0095 C 9.488 0.0822 9.0327 0.1461 8.589 0.2515 C 7.7416 0.4516 6.9175 0.7169 6.2278 1.2833 C 5.7578 1.6725 5.3829 2.1242 5.3335 2.7629 C 5.3112 3.0981 5.3138 3.4343 5.3112 3.7696 C 5.3086 4.3155 5.3156 4.8632 5.3037 5.4081 C 5.302 5.4979 5.2502 5.6432 5.1898 5.663 C 4.9695 5.7347 4.963 5.8752 4.9918 6.0599 C 5.0125 6.1865 4.9972 6.3191 5.0238 6.4429 C 5.1005 6.7843 5.182 7.1258 5.2797 7.462 C 5.3533 7.7123 5.496 7.9487 5.5354 8.2036 C 5.6143 8.7117 5.8025 9.1556 6.1472 9.5381 C 6.2028 9.6011 6.2466 9.7071 6.2405 9.7921 C 6.2131 10.1833 6.1738 10.5748 6.12 10.9643 C 6.1083 11.0396 6.0284 11.1534 5.9633 11.1674 C 5.7031 11.2234 5.6628 11.4213 5.6016 11.6245 C 5.5192 11.8923 5.433 12.1602 5.3274 12.4194 C 5.2958 12.4999 5.2144 12.5848 5.1351 12.6189 C 4.6719 12.8212 4.2007 13.0068 3.7343 13.2003 C 3.2377 13.4086 2.7379 13.6083 2.2545 13.8394 C 1.7539 14.0775 1.27 14.3454 0.7817 14.608 C 0.4949 14.7604 0.2251 14.9302 0 15.1437 L 0 16 L 17.0238 16 L 17.0238 15.1088 C 16.8154 14.8917 16.5701 14.7131 16.2864 14.5678 C 14.8605 13.8376 13.3855 13.2318 11.8932 12.6593 C 11.781 12.6154 11.6478 12.5314 11.6023 12.4333 C 11.4816 12.1637 11.3973 11.88 11.3098 11.5964 C 11.2555 11.416 11.2083 11.2453 11.0085 11.1604 C 10.9559 11.1377 10.9087 11.0317 10.9087 10.9661 C 10.9202 10.3112 10.7694 9.623 11.2545 9.0515 C 11.2714 9.033 11.2729 9.0076 11.2863 8.9875 C 11.5471 8.414 11.5945 7.7596 11.9606 7.2252 Z"/>
  </symbol>
  <symbol id="sendIco" viewBox="0 0 16 15">
    <path d="M 15.9529 0.2291 L 12.7711 11.5327 C 12.5919 12.1707 12.4419 12.6913 12.4388 12.6902 C 12.4358 12.689 12.4321 12.6778 12.4321 12.6743 C 12.4316 12.6708 11.913 12.4636 11.2795 12.2148 L 9.1918 11.3936 C 8.5584 11.1436 7.517 10.7438 6.8806 10.5055 L 6.6602 10.4222 C 6.0238 10.1827 5.8841 9.5922 6.3523 9.1109 L 12.8135 2.4255 C 13.2805 1.9421 13.2228 1.8814 12.6854 2.2908 L 4.5123 8.5198 C 3.973 8.9278 3.0099 9.0599 2.3754 8.8169 L 0.4935 8.0979 C -0.1423 7.8536 -0.1672 7.4041 0.4388 7.0968 L 15.1776 -0.3737 C 15.7836 -0.6801 16.1321 -0.4098 15.9529 0.2291 ZM 4.9756 10.6088 L 6.4197 11.1805 C 7.0525 11.4306 7.2656 12.0891 6.8909 12.6432 C 6.8909 12.6432 5.5665 14.6048 5.6053 14.4956 C 5.6424 14.3853 4.3022 11.2638 4.3015 11.2638 C 4.0393 10.6523 4.3428 10.3588 4.9756 10.6088 Z"/>
  </symbol>
  <symbol id="removeIco" viewBox="0 0 73 76">
    <path d="M72.975 31.694c.051.621-.157 1.26-.629 1.741l-20.063 19.981c-.728-.269-1.514-.417-2.335-.417h-2.06l.005-.418c0-.347-.018-.246-.049-.586l20.55-20.92c-1.721-3.566-5.382-6.027-9.623-6.027-3.625 0-6.825 1.801-8.754 4.551l-4.478 14.921-.342 1.14c-1.037-1.234-2.327-2.248-3.791-2.956l3.908-13.02c-1.921-2.798-5.152-4.636-8.814-4.636-3.734 0-7.017 1.91-8.923 4.8l3.956 12.881c-1.46.714-2.746 1.73-3.777 2.966l-4.929-16.051c-1.924-2.775-5.141-4.595-8.785-4.595-4.184 0-7.803 2.398-9.552 5.887l20.667 20.995c-.032.344-.05.248-.05.599l.007.471h-2.341c-.725 0-1.423.116-2.078.329l-20.055-19.93c-.463-.471-.673-1.094-.633-1.704h-.006l.011-.081.012-.083c2.517-17.795 17.915-31.531 36.477-31.531 18.619 0 34.054 13.82 36.5 31.694h-.025z" fill="#135290"/>
    <path d="M40.087 67.663c-.716-.114-.732-2.084-.732-2.084s2.103-2.084 2.561-4.887c1.233 0 1.994-2.98.761-4.028.052-1.104 1.585-8.663-6.177-8.663s-6.229 7.56-6.177 8.663c-1.233 1.048-.472 4.028.761 4.028.458 2.803 2.561 4.887 2.561 4.887s-.016 1.97-.732 2.084c-2.305.367-10.913 4.169-10.913 8.337h29c0-4.168-8.608-7.97-10.913-8.337z"/>
  </symbol>
  <symbol id="minusIco" viewBox="0 0 13 3">
    <path d="M0 0v3h13v-3h-13z"/>
  </symbol>
  <symbol id="attechIco" viewBox="0 0 23 12">
    <path d="M 17.25 12 L 12 12 L 12 10 L 17.25 10 C 19.3583 10 21.0833 8.2 21.0833 6 C 21.0833 3.8 19.3583 2 17.25 2 L 12 2 L 12 0 L 17.25 0 C 20.4125 0 23 2.7 23 6 C 23 9.3 20.4125 12 17.25 12 ZM 6 5 L 17 5 L 17 7 L 6 7 L 6 5 ZM 1.9167 6 C 1.9167 8.2 3.6417 10 5.75 10 L 10 10 L 10 12 L 5.75 12 C 2.5875 12 0 9.3 0 6 C 0 2.7 2.5875 0 5.75 0 L 10 0 L 10 2 L 5.75 2 C 3.6417 2 1.9167 3.8 1.9167 6 Z"/>
  </symbol>
  <symbol id="imageIco" viewBox="0 0 18 18">
    <path d="M 5.0001 10.5 L 7.5 13.505 L 11 9 L 15.5 15 L 1.5001 15 L 5.0001 10.5 L 5.0001 10.5 ZM 18 16 L 18 2 C 18 0.895 16.605 0 15.5 0 L 2.0001 0 C 0.895 0 0 0.895 0 2 L 0 16 C 0 17.105 0.895 18 2.0001 18 L 15.5 18 C 16.605 18 17.5001 17.105 17.5001 16 L 18 16 Z"/>
  </symbol>
  <symbol id="fileIco" viewBox="0 0 15 20">
    <path d="M 8 7 L 8 1.5 L 12.5938 7 L 7.4375 7 L 8 7 ZM 10.25 12 L 3 12 L 3 10 L 11 10 L 11 12 L 10.25 12 ZM 10.25 16 L 3 16 L 3 14 L 11 14 L 11 16 L 10.25 16 ZM 8.375 0 L 1.8656 0 C 0.8296 0 0 0.895 0 2 L 0 18 C 0 19.105 0.8297 20 1.8656 20 L 13.125 20 C 14.1609 20 15 19.105 15 18 L 15 6 L 9.3751 0 L 8.375 0 Z"/>
  </symbol>
  <symbol id="archiveIco" viewBox="0 0 12 12">
    <path d="M 11.6966 1.4834 L 10.7735 0.3633 C 10.5867 0.1434 10.3098 0 10.0001 0 L 2.0001 0 C 1.6899 0 1.4133 0.1434 1.23 0.3633 L 0.3067 1.4834 C 0.1133 1.7166 0 2.0099 0 2.3334 L 0 10.6667 C 0 11.4033 0.5967 12 1.3333 12 L 10.6667 12 C 11.4033 12 12 11.4033 12 10.6667 L 12 2.3334 C 12 2.0099 11.8867 1.7166 11.6966 1.4834 ZM 6 9.6666 L 2.3333 6 L 4 6 L 4 4 L 8 4 L 8 6 L 9.3333 6 L 6 9.6666 ZM 1.4167 2 L 1.96 1 L 9.96 1 L 10.5833 2 L 1.4167 2 Z" />
  </symbol>
  <symbol id="deleteIco" viewBox="0 0 10 10">
    <path d="M 10.0001 1.0107 L 8.9893 0 L 5 3.9893 L 1.0107 0 L 0 1.0107 L 3.9893 5 L 0 8.9893 L 1.0107 10 L 5 6.0107 L 8.9893 10 L 10.0001 8.9893 L 6.0107 5 L 10.0001 1.0107 Z" />
  </symbol>
  <symbol id="readIco" viewBox="0 0 6 6">
    <path d="M 0 3 C 0 1.3431 1.3431 0 3 0 C 4.6569 0 6 1.3431 6 3 C 6 4.6569 4.6569 6 3 6 C 1.3431 6 0 4.6569 0 3 Z" />
  </symbol>
  <symbol id="backIco" viewBox="0 0 15 8">
    <path d="M -0.25 3.9688 L 3.9142 8.1213 L 4.6213 7.4142 L 1.705 4.5 L 15 4.5 L 15 3.5 L 1.705 3.5 L 4.6213 0.5858 L 3.9142 -0.1213 L -0.25 3.9688 Z" />
  </symbol>
  <symbol id="soccerIco" viewBox="0 0 40 30">
    <path d="M 31.0173 19.3648 C 30.3874 20.8536 29.4855 22.1917 28.3386 23.3386 C 27.189 24.4855 25.8536 25.3874 24.3648 26.0173 C 22.8249 26.6689 21.1853 27 19.5 27 C 17.8147 27 16.1778 26.6689 14.6352 26.0173 C 13.1464 25.3874 11.8083 24.4855 10.6614 23.3386 C 9.5145 22.1917 8.6126 20.8564 7.9827 19.3648 C 7.3311 17.8249 7 16.188 7 14.5 C 7 12.8147 7.3311 11.1751 7.9827 9.6352 C 8.6126 8.1464 9.5145 6.8083 10.6614 5.6614 C 11.8083 4.5145 13.1464 3.6126 14.6352 2.9827 C 16.1751 2.3311 17.812 2 19.5 2 C 21.188 2 22.8249 2.3311 24.3648 2.9827 C 25.8536 3.6126 27.1917 4.5145 28.3386 5.6614 C 29.4855 6.811 30.3874 8.1464 31.0173 9.6352 C 31.6689 11.1751 32 12.812 32 14.5 C 32 16.1853 31.6689 17.8222 31.0173 19.3648 ZM 29.9835 14.4623 L 29.5151 14.9362 C 29.2054 15.2484 28.7074 15.2565 28.387 14.9576 L 25.8322 12.5616 C 25.6464 12.3866 25.5521 12.1335 25.5818 11.8804 L 25.9802 8.3994 C 26.0286 7.9633 26.4163 7.6483 26.8524 7.686 L 27.5175 7.7452 C 27.3263 7.519 27.1244 7.301 26.9117 7.0883 C 25.7971 5.9737 24.4752 5.1418 23.0349 4.6276 L 23.323 5.2361 C 23.5114 5.6318 23.3499 6.1057 22.9568 6.3049 L 19.8339 7.8906 C 19.6077 8.0063 19.3385 8.0063 19.1096 7.8932 L 15.9732 6.3318 C 15.5828 6.1379 15.4159 5.6641 15.6016 5.2684 L 15.8843 4.6572 C 14.4736 5.1741 13.1813 5.9953 12.0883 7.0883 C 11.8756 7.301 11.6737 7.5217 11.4826 7.7479 L 12.1476 7.6887 C 12.5837 7.651 12.9714 7.9659 13.0198 8.4022 L 13.4183 11.8832 C 13.4479 12.1362 13.3536 12.3893 13.1678 12.5643 L 10.613 14.9604 C 10.2926 15.2592 9.7918 15.2511 9.4849 14.9388 L 9.0165 14.465 C 9.0165 14.4758 9.0165 14.4893 9.0165 14.5 C 9.0165 16.5515 9.6007 18.5114 10.691 20.1913 L 10.8311 19.5345 C 10.9225 19.1064 11.3372 18.8291 11.7679 18.9099 L 15.214 19.5479 C 15.467 19.5937 15.6797 19.7579 15.7928 19.9868 L 17.3354 23.1312 C 17.5293 23.5243 17.3732 24.0009 16.9855 24.2028 L 16.3905 24.5151 C 17.3839 24.822 18.4312 24.9808 19.5 24.9808 C 20.5688 24.9808 21.6161 24.822 22.6095 24.5151 L 22.0145 24.2028 C 21.6268 23.9982 21.4707 23.5243 21.6646 23.1312 L 23.2072 19.9841 C 23.3203 19.7552 23.5357 19.591 23.786 19.5452 L 27.2321 18.9072 C 27.6628 18.8264 28.0774 19.1037 28.1689 19.5317 L 28.309 20.1887 C 29.3993 18.5087 29.9835 16.5461 29.9835 14.4973 C 29.9835 14.4865 29.9835 14.4731 29.9835 14.4623 ZM 22.2703 17.5826 C 22.1626 17.9138 21.853 18.1399 21.503 18.1399 L 17.4916 18.1399 C 17.1416 18.1399 16.832 17.9164 16.7243 17.5826 L 15.4832 13.765 C 15.3755 13.4339 15.494 13.0677 15.7766 12.8631 L 19.0235 10.5047 C 19.3062 10.3001 19.6912 10.3001 19.9738 10.5047 L 23.218 12.8658 C 23.5006 13.0704 23.6191 13.4339 23.5114 13.7677 L 22.2703 17.5826 Z"/>
  </symbol>
  <symbol id="arrowIco" viewBox="0 0 15 7">
    <path d="M -0.1543 1.2522 C -0.4452 0.9658 -0.4452 0.5013 -0.1543 0.2149 C 0.1366 -0.0715 0.6082 0.1728 0.8992 0.4593 L 3.4948 3 L 10 3 L 10 0.9779 C 10 0.7074 9.8828 0.3776 10.125 0.25 C 10.3673 0.1223 10.719 -0.0268 10.9476 0.1232 L 14.2188 2.8732 C 14.426 3.0092 14.5504 3.2383 14.5504 3.4835 C 14.5504 3.7287 14.426 3.9578 14.2188 4.0938 L 10.9476 6.8548 C 10.6555 7.0247 10.6053 7.0171 10.3934 6.8913 C 10.1581 6.7516 10 6.5151 10 6.2446 L 10 4 L 3.7052 4 L 0.899 6.5406 C 0.6082 6.8271 0.1366 7.0497 -0.1544 6.7632 C -0.4453 6.4768 -0.4453 6.0123 -0.1544 5.7259 L 2.1327 3.489 L -0.1543 1.2522 ZM 11 5.874 L 13.4688 3.5313 L 11 1.104 L 11 5.874 Z"/>
  </symbol>
  <symbol id="pieChart" viewBox="0 0 30 30">
      <path fill="#bbb" class="path1" d="M15 3.75c6.213 0 11.25 5.037 11.25 11.25h-11.25v-11.25zM0 15c0 8.285 6.716 15 15 15s15-6.715 15-15c0-8.285-6.716-15-15-15s-15 6.715-15 15z"></path>
  </symbol>
	<symbol id="nodataIco" viewBox="0 0 100 88">
      <path d="M 77.46 36.0454 C 85.8871 36.0454 93.4944 39.7162 98.8509 45.4216 C 98.5238 34.9762 89.9537 26.6073 79.4236 26.6073 C 77.6525 11.6232 64.9013 0 49.4331 0 C 33.9651 0 21.2141 11.6232 19.4429 26.6073 C 8.7054 26.6073 0 35.2073 0 45.9394 C 0 56.6715 8.7043 65.3714 19.4418 65.3714 L 48.1195 65.3714 C 48.1195 49.201 61.2817 36.0454 77.46 36.0454 ZM 65.6258 84.6403 C 69.0675 86.7702 73.1231 88 77.46 88 C 89.8884 88 100 77.8938 100 65.4716 C 100 61.1373 98.7694 57.0847 96.6383 53.6454 L 65.6258 84.6403 ZM 77.46 42.9429 C 65.0314 42.9429 54.9202 53.0492 54.9202 65.4716 C 54.9202 70.3503 56.4787 74.8728 59.1258 78.5651 L 90.5597 47.1492 C 86.8653 44.5028 82.3418 42.9429 77.46 42.9429 Z"/>
  </symbol>
  <symbol id="doubleRightIco" viewBox="0 0 19 11">
    <path d="M14.078 1.121l-1.117-1.121-5.039 5.039 1.117 1.121 5.039-5.039zm3.363-1.121l-8.402 8.48-3.359-3.359-1.121 1.117 4.48 4.481 9.601-9.598-1.199-1.121zm-17.441 6.238l4.48 4.481 1.122-1.117-4.481-4.48-1.121 1.117zm0 0z"/>
  </symbol>
  <symbol id="linkIco" viewBox="0 0 16 8">
    <path d="M 12 8 L 8.8 8 L 8.8 6.4 L 12.1334 6.4 C 13.6 6.4 14.6666 5.4666 14.6666 3.9999 C 14.6666 2.5333 13.4667 1.6 12 1.6 L 8.8 1.6 L 8.8 0 L 12.1334 0 C 14.3334 0 16 1.8 16 4 C 16 6.2 14.2 8 12 8 ZM 4 3.2 L 12 3.2 L 12 4.8 L 4 4.8 L 4 3.2 ZM 1.3334 3.9999 C 1.3334 5.4666 2.5333 6.4 4 6.4 L 7.2 6.4 L 7.2 8 L 3.8666 8 C 1.6666 8 0 6.2 0 4 C 0 1.8 1.8 0 4 0 L 7.2 0 L 7.2 1.6 L 3.8666 1.6 C 2.4 1.6 1.3334 2.5331 1.3334 3.9999 Z"/>
  </symbol>
  <symbol id="flagIco" viewBox="0 0 14 16">
    <path d="M1 2c-.552 0-1 .433-1 .968v12.063c0 .535.447.969 1 .969.552 0 1-.434 1-.969v-4.031h5v-2h7l-1.909-4.11 1.909-3.89h-7v2h-5v-.032c0-.535-.448-.968-1-.968z"/>
  </symbol>
  <symbol id="phoneIco" viewBox="0 0 14 14">
    <path d="M 5.535 8.4438 C 6.5012 9.4208 7.4166 9.9337 8.0845 10.3075 L 8.3879 10.4775 L 9.5118 9.3429 C 9.6895 9.1636 9.941 9.061 10.202 9.061 C 10.4498 9.061 10.6751 9.1506 10.8374 9.314 L 12.916 11.4141 C 13.2729 11.7748 13.2612 12.3741 12.8892 12.7498 L 12.4113 13.2232 L 12.2955 13.3157 C 12.0521 13.5077 11.7787 13.6638 11.4832 13.7798 C 11.2095 13.8867 10.9382 13.9556 10.6544 13.9904 C 10.6324 13.9927 10.5527 14 10.4214 14 C 9.6536 14 6.8925 13.7405 3.5884 10.4054 C 0.8005 7.5914 -0.2269 5.526 0.0411 3.2763 C 0.0724 3.0024 0.1397 2.7294 0.2479 2.4423 C 0.3641 2.1407 0.5198 1.8641 0.71 1.6179 L 0.7574 1.5383 L 1.2681 1.0197 C 1.4462 0.8402 1.6976 0.737 1.9583 0.737 C 2.2057 0.737 2.4312 0.8271 2.5929 0.9905 L 4.6727 3.0897 C 5.0297 3.4507 5.0167 4.0509 4.6443 4.428 L 3.5188 5.5643 L 3.6848 5.8622 C 4.0563 6.5394 4.5647 7.4655 5.535 8.4438 ZM 6.9389 3.3395 L 6.72 3.2958 L 6.6935 3.076 C 6.6794 2.9515 6.6626 2.8282 6.6435 2.7044 L 6.5784 2.2869 L 6.9923 2.3569 C 8.1819 2.5554 9.2557 3.1089 10.0958 3.9573 C 11.0349 4.9059 11.6013 6.1213 11.7324 7.4734 L 11.7659 7.8208 L 11.3439 7.8062 C 11.2635 7.8056 11.2066 7.8062 11.1505 7.8018 L 10.8001 7.7508 L 10.775 7.5178 C 10.6559 6.4163 10.1846 5.4235 9.4144 4.6454 C 8.7433 3.9683 7.8872 3.5164 6.9389 3.3395 ZM 9.1477 7.5456 L 8.7012 7.52 L 8.6414 7.3041 C 8.5172 6.856 8.2799 6.4458 7.9553 6.1188 C 7.6157 5.7753 7.1879 5.5313 6.7186 5.4115 L 6.3638 5.319 L 6.5186 4.986 C 6.5596 4.8962 6.5959 4.7962 6.6266 4.6907 L 6.7086 4.4059 L 6.9943 4.4822 C 7.6154 4.6462 8.1837 4.9747 8.6364 5.4313 C 9.1131 5.9124 9.4473 6.5189 9.6038 7.1855 L 9.7012 7.5999 L 9.2813 7.5599 C 9.2382 7.556 9.1931 7.5509 9.1477 7.5456 ZM 13.0145 7.4953 C 12.8864 5.8079 12.171 4.2266 11.0001 3.0444 C 9.8104 1.8434 8.2259 1.1176 6.5383 1.001 L 6.3088 0.9866 L 6.2626 0.7576 C 6.2375 0.6266 6.2139 0.5007 6.1945 0.3777 L 6.1312 0 L 6.5109 0.0239 C 8.4666 0.1367 10.3028 0.9656 11.6812 2.3569 C 13.0162 3.7046 13.8309 5.503 13.9766 7.421 L 14 7.7252 L 13.5748 7.759 C 13.4734 7.7679 13.4038 7.7741 13.3336 7.7778 L 13.0362 7.7955 L 13.0145 7.4953 Z"/>
  </symbol>
  <symbol id="filterIco" viewBox="0 0 15 13">
    <path d="M13 11h1v1h-1v-1zm0-11v10h-1v3h3v-3h-1v-10h-1zm-6 6h1v1h-1v-1zm0-6v5h-1v3h1v5h1v-5h1v-3h-1v-5h-1zm-6 1h1v1h-1v-1zm0 2v10h1v-10h1v-3h-3v3h1z"/>
  </symbol>
  <symbol id="cancelReqIco" viewBox="0 0 23 12">
    <path d="M8.296 3.199v-3.199l5.602 5.602-5.602 5.597v-3.277c-4 0-6.796 1.277-8.796 4.078.797-4 3.199-8 8.796-8.801zm0 0zM21.5 1l-3 2.999-3-2.999-1 1 3 3-3 3 1 1 3-3 3 3 1-1-3-3 3-3-1-1z"/>
  </symbol>
  <symbol id="addFriendIco" viewBox="0 0 17 14">
    <path d="M12 3v3h-3v2h3v3h2v-3h3v-2h-3v-3h-2zm-10.293 7.26c-1.874.701-2.125 1.68-2.125 2.168 0 .487-.042 1.572-.042 1.572h11.461v-2.168c-.547-1.063-2.065-1.276-2.29-1.36-1.869-.699-2.393-1.301-2.393-2.563 0-.758.571-.51.821-1.898.104-.576.607-.009.704-1.323 0-.524-.275-.654-.275-.654s.14-.775.195-1.371c.068-.743-.418-2.663-3.012-2.663-2.593 0-3.08 1.92-3.012 2.663.055.596.194 1.371.194 1.371s-.275.13-.275.654c.096 1.314.6.748.704 1.323.251 1.387.821 1.14.821 1.898 0 1.262.393 1.652-1.476 2.351z"/>
  </symbol>
  <symbol id="removeFriendIco" viewBox="0 0 17 14">
    <path d="M11.5 6h-1.5v2h7v-2h-5.5zm-9.793 4.26c1.869-.699 1.476-1.089 1.476-2.351 0-.758-.571-.51-.821-1.898-.104-.576-.608-.009-.704-1.323 0-.524.275-.654.275-.654s-.14-.775-.194-1.371c-.068-.743.418-2.663 3.012-2.663 2.593 0 3.08 1.92 3.012 2.663-.055.596-.195 1.371-.195 1.371s.275.13.275.654c-.096 1.314-.6.748-.704 1.323-.251 1.387-.821 1.14-.821 1.898 0 1.262.525 1.865 2.393 2.563.225.084 1.743.297 2.29 1.36v2.168h-11.461s.042-1.086.042-1.572c0-.487.251-1.467 2.125-2.168z" />
  </symbol>
  <symbol id="unfollowIco" viewBox="0 0 22 14">
  <path d="M2.207 10.26c1.869-.699 2.476-1.089 2.476-2.351 0-.758-.571-.51-.821-1.898-.104-.576-.608-.009-.704-1.323 0-.524.275-.654.275-.654s-.14-.775-.194-1.371c-.068-.743.418-2.663 3.012-2.663 2.593 0 3.08 1.92 3.012 2.663-.055.596-.195 1.371-.195 1.371s.275.13.275.654c-.097 1.314-.6.748-.704 1.323-.251 1.387-.821 1.14-.821 1.898 0 1.262.025 1.865 1.893 2.563.225.084 1.743.297 2.29 1.36v2.168h-11.961s.042-1.086.042-1.572c0-.487.251-1.467 2.125-2.168zM20.727 3l-5.488 5.493-2.997-2.972-1.243 1.273 4.24 4.206 6.76-6.697-1.273-1.303z"/>
  </symbol>
  <symbol id="denyIco" viewBox="0 0 10 10">
  <path d="M8.75 0l-3.75 3.749-3.75-3.749-1.25 1.25 3.749 3.75-3.749 3.75 1.25 1.25 3.75-3.749 3.75 3.749 1.25-1.25-3.749-3.75 3.749-3.75-1.25-1.25z"/>
  </symbol>
  <symbol id="muteIco" viewBox="0 0 20 23">
  <path d="M 15 12 C 12.243 12 10 14.2429 10 17 C 10 19.7571 12.2429 22 15 22 C 17.7571 22 20 19.7571 20 17 C 20 14.2429 17.757 12 15 12 ZM 10.9158 17 C 10.9158 14.7479 12.7479 12.9158 15 12.9158 C 16.0146 12.9158 16.9436 13.2886 17.6587 13.9036 L 11.9036 19.6586 C 11.2887 18.9436 10.9158 18.0147 10.9158 17 ZM 15 21.0842 C 14.092 21.0842 13.2529 20.7861 12.574 20.2832 L 18.2831 14.5741 C 18.786 15.2531 19.0841 16.0923 19.0841 17.0001 C 19.0842 19.2521 17.2521 21.0842 15 21.0842 ZM 4 5 L 0.5333 5 C 0.2384 5 0 5.2192 0 5.4904 L 0 15.3416 C 0 15.4719 0.0559 15.7645 0.1563 15.8563 C 0.2566 15.948 0.3915 16 0.5333 16 L 4 16 L 4 5 ZM 14.1488 0.1972 C 13.6282 -0.0735 13.0122 -0.0647 12.5007 0.2187 L 12 0.3 L 6.2048 5 L 6 5 L 6 16 L 6.192 16 L 8.015 17.3724 C 8.005 17.2288 8 16.7136 8 16.5676 C 8 12.9335 11.1339 9.9876 15 9.9876 L 15 1.5488 C 15 0.9794 14.6815 0.4743 14.1488 0.1972 Z"/>
  </symbol>
  <symbol id="soundIco" viewBox="0 0 24 22">
  <path d="M 18.6951 17.9805 C 21.8185 17.1506 24.0313 14.4545 24.0313 11.4688 C 24.0313 8.4829 21.8185 5.8493 18.6951 5.0193 C 18.4056 4.9439 18.1047 5.0954 18.0215 5.3613 C 17.9382 5.6263 18.1042 5.9038 18.3937 5.9803 C 21.054 6.6868 22.75 8.9254 22.75 11.4688 C 22.75 14.0121 21.054 16.3131 18.3937 17.0195 C 18.1047 17.0961 17.9382 17.3735 18.0215 17.6385 C 18.0906 17.8575 18.3077 18 18.5444 18 C 18.5945 18 18.6451 17.9935 18.6951 17.9805 ZM 4 6 L 0.5333 6 C 0.2384 6 0 6.2332 0 6.5217 L 0 16.6957 C 0 16.8344 0.0559 16.7495 0.1563 16.8472 C 0.2566 16.9447 0.3915 17 0.5333 17 L 4 17 L 4 6 ZM 14.1488 0.5847 C 13.6282 0.2968 13.0122 0.3062 12.5007 0.6077 L 12 1 L 6.2048 6 L 6 6 L 6 17 L 6.192 17 L 12.4063 21.9844 C 12.433 22.0084 12.4618 22.244 12.4921 22.2617 C 12.7545 22.4166 13.0452 22.4944 13.3358 22.4944 C 13.6116 22.4939 13.8954 22.4246 14.1488 22.2847 C 14.6815 21.9905 15 21.4525 15 20.8468 L 15 2.0226 C 15 1.4169 14.6815 0.8795 14.1488 0.5847 Z"/>
  </symbol>
  <symbol id="backToTopIco" viewBox="0 0 28 21">
  <path d="M 27.6074 12.6335 C 28.0011 13.0022 27.9188 13.3411 27.4224 13.3909 C 26.925 13.4412 26.1069 13.3259 25.6072 13.1211 L 22.1429 11.6965 C 22.0168 11.7966 21.873 11.8767 21.7117 11.9255 L 15.2111 13.873 L 13.6775 17.7039 C 13.6644 17.7322 13.3541 18.5688 13.3398 18.5959 C 14.0544 19.5735 15.0643 20.8533 17.3429 20.4756 C 17.4844 20.4521 17.5061 20.8025 17.5216 20.9446 C 17.5308 21.0229 17.5037 21.0989 17.4545 21.155 C 17.4139 21.2014 17.3584 21.2344 17.2952 21.2449 C 14.8673 21.6521 13.3687 20.4519 12.5459 19.3901 C 12.2388 19.6458 11.8358 19.7627 11.439 19.6895 L 11.4375 19.6936 L 11.3926 19.6814 C 11.3717 19.6765 11.3507 19.6758 11.3296 19.6704 L 10.6577 19.4849 C 9.9644 19.9028 8.632 20.5488 7.3761 20.2751 C 5.557 19.8782 4.3119 17.5869 4.3119 17.5869 L 4.3278 17.5903 C 4.0685 17.3271 3.9708 16.9309 4.1163 16.5417 L 4.9225 14.3889 C 5.1333 13.8267 5.7296 13.4543 6.3027 13.5989 L 7.5121 13.9048 L 7.9757 13.397 L 4.9685 11.2188 C 4.7222 11.1245 4.2767 10.678 4.2214 10.4233 C 4.166 10.1677 4.2421 9.8977 4.4249 9.7009 L 4.8903 9.2004 C 5.0796 8.9971 5.0925 8.6797 5.3469 8.7095 L 12.9481 0.5359 C 13.3856 0.0652 14.1117 0.0376 14.5779 0.4727 L 27.6074 12.6335 ZM 6.4419 10.4521 L 9.5215 12.2524 C 9.7472 12.3391 9.6133 12.2534 9.6781 12.4863 C 9.7432 12.7197 9.6956 12.9727 9.5494 13.1741 L 8.7986 13.999 L 11.179 14.6013 C 11.1808 13.5781 11.3804 11.0144 9.2736 9.0337 L 6.4419 10.4521 ZM 18.3359 6.4241 C 17.8898 6.2209 17.1309 6.2966 16.6406 6.594 L 14.2683 8.0332 C 13.771 8.335 12.9893 8.3188 12.5232 7.9963 C 12.0557 7.6726 11.2814 7.6768 10.7935 8.0063 L 9.7295 8.7258 C 11.6563 10.6045 12.0293 13.2031 12.087 14.5164 L 13.1106 12.281 C 13.2755 11.9202 13.588 11.6499 13.9652 11.5386 L 20.3583 9.6648 L 19.5399 7.7319 C 19.3204 7.2117 18.781 6.6272 18.3359 6.4241 ZM 4.4192 13.8604 C 4.2778 15.5317 2.3276 16.532 0.9172 15.6421 C -0.4155 14.8008 -0.386 12.8813 0.9728 11.9854 C 2.4951 10.9797 4.5656 12.1167 4.4192 13.8604 Z"/>
  </symbol>
  <symbol id="yahooIco" viewBox="0 0 216 216">
    <path d="M108 0c-59.647 0-108 48.353-108 108s48.353 108 108 108 108-48.353 108-108-48.353-108-108-108zm20.667 140v5h-54v-5h17v-23.111l-32.061-39.889h-16.939v-7h57v7h-15.863l22.839 29.97 21.479-18.97h-12.456v-6h48.073l-4.622 6h-15.785l-32.667 26.85v25.15h18.002zm33.06 6.245l-8.156-.127.153-9.787 8.156.127-.153 9.787zm.254-16.311l-8.156-.127.509-32.623 16.991.265-9.344 32.485z"/>
  </symbol>
  <symbol id="outlookIco" viewBox="0 0 216 216">
    <path d="M108 0c-59.647 0-108 48.353-108 108s48.353 108 108 108 108-48.353 108-108-48.353-108-108-108zm15.667 73h41.295c.356 0 .141-.025.483.029l-41.778 35.429v-35.458zm-8 88.552c0 3.618-3.134 6.309-6.668 5.534l-59.819-13.104c-2.6-.57-4.514-2.873-4.514-5.534v-83.769c0-2.76 2.117-5.119 4.838-5.584l59.657-10.232c3.461-.593 6.505 2.073 6.505 5.584v107.105zm55-78.004v53.777c0 3.684-2.021 5.676-5.705 5.676h-41.295v-21.875c0-.076 46.688-40.351 46.688-40.351.387.844.312 1.782.312 2.773zm-81.135.035c-7.469-3.902-16.148-2.775-22.683 2.275-6.292 4.86-10.213 13.618-10.213 22.143s3.921 17.283 10.213 22.143c2.898 2.239 6.196 3.7 9.629 4.301 4.335.759 8.894.146 13.054-2.027 7.942-4.147 12.854-13.167 12.854-24.417 0-11.251-4.912-20.269-12.854-24.418zm-6.08 37.349c-3.806 2.503-9.001 2.398-12.916-.128-4.27-2.756-6.444-8.507-6.444-12.802s2.174-10.046 6.444-12.802c1.79-1.154 3.843-1.801 5.91-1.926 2.46-.149 4.943.44 7.007 1.796 3.607 2.37 5.477 6.738 5.477 12.932-.001 6.192-1.87 10.56-5.478 12.93z"/>
  </symbol>
  <symbol id="bodyMeasureIco" viewBox="0 0 234.000000 229.000000">
    <path d="M28.6 46.4c-2.9 2.3-2.8 5.3.4 8.9 3.4 3.9 5.8 5.5 27.2 18.1 8.1 4.8 15 9.1 15.3 9.6.4.6-7.7 1-21.5 1-19.2 0-22.6.2-25.1 1.7-2.2 1.3-2.9 2.5-2.9 4.9 0 5.8 3 6.3 38.7 6.3l25.2.1 3.5 3.1c6.2 5.4 7.6 11.2 7.6 31.7v17.7l-18.1 26c-20.4 29.3-21 30.4-21.5 35.6-.3 3.5 0 4.1 3.4 6.4 4.4 3 7.1 3.2 10.4.6 1.4-1.1 7.3-9 13.3-17.5 5.9-8.6 11.2-15.6 11.6-15.6.5 0 .9 8.8.9 19.5 0 24.5 0 24.5 9.1 24.5 5.7 0 7-.3 7.9-1.9.6-1.2 1-12 1-28 0-14.2.3-26.6.6-27.5 1.8-4.7 2.4 2.2 2.4 26.8 0 31.4-.2 30.6 8.8 30.6 4.3 0 5.4-.4 7.1-2.6 2-2.5 2.1-4 2.1-21.5 0-10.4.3-18.9.8-18.9.4 0 5.1 6.5 10.6 14.5 5.4 7.9 11.3 15.8 13.2 17.4 3.6 3.4 5.6 3.2 11.4-.9 2.3-1.7 2.7-2.5 2.4-6-.5-5.3 0-4.6-20.6-34.1l-17.8-25.7v-19.3c0-19.3 0-19.4 2.9-25.4 4.4-9.5 3.3-9.2 36.6-9.7 25.1-.3 29.4-.6 32.3-2.1 4.4-2.4 4.5-6.5.1-9-2.7-1.5-5.9-1.7-25-1.7-12 0-21.9-.3-21.9-.8 0-.4 8-5.4 17.8-11.1 20.9-12.4 23.8-14.3 26.2-18.4 1.5-2.4 1.7-3.5.8-5.1-3.2-6-2.4-6.4-65.7 31.5l-6.5 3.9h-17c-16.9 0-17.2-.1-22.1-2.9-10.1-5.6-55-32.4-56.5-33.6-2.1-1.7-7.8-2.4-9.4-1.1zM104.6 51c-5.2 5.5-6.6 8.5-6.6 13.6 0 4.5 2 8.3 6.5 12.2 4.2 3.8 7.1 4.6 13.1 3.9 7.5-.8 14.1-7.1 15.1-14.5.8-5.7-1.2-10.4-6.5-15.6-4.5-4.5-4.8-4.6-10.8-4.6-6.1 0-6.2.1-10.8 5z"/>
  </symbol>
</svg>
