<svg viewBox="0 0 40 30" xmlns="http://www.w3.org/2000/svg" width="40" height="30"><path d="M24.416 3.278c1.42-.204 2.76-.278 3.957-.278.633 0 1.267.02 1.883.064 1.423.097 2.574 1.202 2.676 2.57.108 1.456.122 3.427-.22 5.61L24.417 3.28zM8.286 18.755c-.34 2.184-.326 4.155-.218 5.612.102 1.367 1.253 2.472 2.677 2.57.615.042 1.248.063 1.882.063 1.196 0 2.54-.074 3.957-.277l-8.297-7.968zm24.118-5.912c-.688 2.963-2.09 6.17-4.797 8.95l-.033.032c-2.883 2.588-6.215 3.937-9.326 4.6l-9.652-9.268c.688-2.963 2.09-6.17 4.796-8.95l.034-.032c2.883-2.588 6.215-3.937 9.326-4.6l9.652 9.268zm-6.73.052l-.997-.958.776-.745c.272-.262.272-.686 0-.947-.273-.262-.714-.262-.987 0l-.776.745-.997-.958c-.273-.26-.714-.26-.987 0-.272.262-.272.686 0 .947l.998.957-1.14 1.095-.998-.958c-.272-.26-.714-.26-.986 0-.273.262-.273.686 0 .947l.997.96-1.14 1.094-.998-.958c-.273-.26-.715-.26-.987 0-.273.262-.273.686 0 .947l.997.958-1.14 1.096-.997-.958c-.273-.26-.714-.26-.987 0-.272.262-.272.686 0 .947l.997.958-.776.745c-.272.262-.272.686 0 .947.137.13.315.196.494.196.18 0 .358-.064.494-.195l.776-.745.998.958c.136.13.314.196.493.196.18 0 .358-.065.494-.196.273-.262.273-.686 0-.947l-.997-.957 1.14-1.095.998.958c.136.13.314.196.493.196.178 0 .357-.065.493-.196.274-.262.274-.686 0-.947l-.996-.96 1.14-1.094.997.958c.138.13.316.196.495.196.178 0 .357-.065.493-.196.273-.262.273-.686 0-.947l-.997-.958 1.14-1.096.998.958c.137.13.315.196.494.196.178 0 .357-.065.493-.196.272-.262.272-.686 0-.947z"/></svg>