<svg viewBox="0 0 40 30" xmlns="http://www.w3.org/2000/svg" width="40" height="30"><path d="M 26.6682 22.2757 C 23.4976 25.7356 18.3146 27 14.5204 27 C 12.9464 27 11.624 26.7799 10.7745 26.4088 C 12.8372 21.9078 13.2407 20.1857 15.5355 17.2463 L 17.4274 19.0815 L 18.0208 18.3262 L 16.1304 16.493 C 16.3142 16.2684 17.4552 15.088 17.6367 14.8745 L 19.5135 16.693 L 20.1077 15.938 L 18.2618 14.1475 C 18.426 13.9607 19.5452 12.8164 19.7093 12.6357 L 21.5757 14.4452 L 22.1698 13.6919 L 20.3593 11.9321 C 20.5762 11.7027 21.7489 10.5223 21.9636 10.3054 L 23.7786 12.0701 L 24.3713 11.3114 L 22.6436 9.631 C 22.8409 9.4409 23.9917 8.2938 24.1861 8.1163 L 25.8656 9.7513 L 26.4597 8.9963 L 24.8947 7.4681 C 29.0067 3.7981 30.2244 4.4127 30.2274 4.4105 C 31.6583 6.9262 31.4354 17.076 26.6682 22.2757 ZM 22.6165 5.3351 L 22.023 6.0934 L 23.1829 7.1771 C 22.9885 7.3647 21.8408 8.5131 21.6494 8.7019 L 20.5304 7.6542 L 19.9353 8.4097 L 20.98 9.3875 C 20.7661 9.6109 19.5949 10.7946 19.3847 11.024 L 18.3289 10.0339 L 17.7354 10.7905 L 18.7416 11.7294 C 18.5774 11.9154 17.4628 13.0622 17.3016 13.246 L 16.2668 12.2792 L 15.6726 13.0359 L 16.6826 13.9801 C 16.4987 14.2005 15.3577 15.3813 15.1807 15.6034 L 14.1806 14.6695 L 13.5849 15.4244 L 14.582 16.3585 C 10.2908 21.882 9.6282 25.3037 9.6282 25.3037 C 8.3636 22.3734 8.7305 12.7441 13.3311 7.7243 C 16.5011 4.2644 21.681 3 25.4738 3 C 27.0778 3 28.429 3.2279 29.2785 3.6096 C 26.6509 4.7 26.111 4.5111 23.8878 6.5288 L 22.6165 5.3351 Z"/></svg>