<svg viewBox="0 0 40 30" xmlns="http://www.w3.org/2000/svg" width="40" height="30"><path d="M 29.9369 21.7203 C 28.0768 19.6058 26.9377 16.8414 26.9377 13.8102 C 26.9377 11.3221 27.6997 9.008 29.0012 7.0889 C 30.8621 9.2039 32 11.9682 32 14.9999 C 32 17.4887 31.2379 19.8016 29.9369 21.7203 ZM 28.135 23.7974 C 25.9949 25.7775 23.1409 27 19.9998 27 C 17.0718 27 14.3877 25.9439 12.303 24.1956 C 14.3248 21.6725 15.5425 18.4777 15.5425 15.0005 C 15.5425 11.5229 14.3248 8.3294 12.302 5.8057 C 14.3877 4.0572 17.071 3 19.9998 3 C 22.6003 3 25.0032 3.84 26.97 5.2508 C 25.2362 7.6678 24.2051 10.6176 24.2051 13.8114 C 24.2051 17.6662 25.7053 21.1678 28.135 23.7974 ZM 10.4053 22.1767 C 8.9021 20.1722 8 17.6923 8 14.9999 C 8 12.3074 8.9021 9.8281 10.4053 7.8227 C 11.908 9.8276 12.8097 12.3074 12.8097 14.9999 C 12.8097 17.6923 11.908 20.1722 10.4053 22.1767 Z"/></svg>