<svg viewBox="0 0 40 30" xmlns="http://www.w3.org/2000/svg" width="40" height="30"><path d="M 31.0437 19.7015 C 30.4791 18.2434 29.7101 16.8516 28.7461 15.5631 C 25.9734 11.8638 21.929 9.4606 17.353 8.804 C 17.1526 8.7755 16.9536 8.7523 16.7576 8.7323 C 17.208 7.9384 17.7271 7.1908 18.3064 6.4964 C 21.0149 7.0211 22.8151 7.0781 23.8015 6.6693 C 23.8394 6.6546 27.4681 5.1926 29.7156 8.0024 L 29.7363 7.9878 C 31.1602 9.9605 31.9977 12.383 32 15.0015 C 32 16.668 31.6599 18.2588 31.0437 19.7015 ZM 23.4175 5.7419 C 22.9038 5.9549 21.7361 6.0852 19.0907 5.6223 C 19.9968 4.6888 21.0181 3.8702 22.134 3.189 C 23.9973 3.5254 25.7126 4.2869 27.1697 5.3793 C 25.6873 5.097 24.255 5.3932 23.4175 5.7419 ZM 17.9399 5.397 C 16.1892 4.9959 16.3328 3.77 16.3566 3.6281 C 16.3566 3.6281 17.7009 3 20.0007 3 C 20.1967 3 20.3948 3.0054 20.5923 3.0154 C 19.6244 3.7097 18.7336 4.5106 17.9399 5.397 ZM 15.6602 8.6544 C 15.5028 8.6505 15.344 8.6466 15.189 8.6459 C 12.8667 8.6459 10.7581 9.2515 8.9163 10.3979 C 10.124 7.4894 12.444 5.1618 15.3401 3.9381 C 15.3833 4.7058 15.8168 5.7427 17.2319 6.2364 C 16.6389 6.994 16.1145 7.8026 15.6602 8.6544 ZM 13.8508 14.5232 C 11.7722 14.7924 10.3053 15.6141 9.4955 16.9658 C 9.0442 17.7234 8.8523 18.5512 8.806 19.342 C 8.2854 17.9942 8 16.5299 8 15.0023 C 8 13.9484 8.135 12.9277 8.391 11.9572 C 10.2251 10.499 12.4756 9.6558 15.1711 9.6504 C 14.4932 11.1671 14.0389 12.8058 13.8508 14.5232 ZM 13.7712 15.5477 C 13.7605 15.8024 13.7521 16.0555 13.7528 16.3115 C 13.7528 20.3226 15.0547 23.9078 17.2775 26.6937 C 14.312 26.0056 11.7683 24.218 10.0994 21.7846 C 9.8402 20.8519 9.4862 18.937 10.3608 17.4796 C 10.9786 16.4489 12.1262 15.7978 13.7712 15.5477 ZM 14.7817 15.4537 C 16.834 15.4135 19.7856 16.2691 20.7828 21.2238 C 21.3158 23.8808 22.5375 25.5295 24.4286 26.1575 C 23.0574 26.7014 21.5625 27 20.0023 27 C 19.6005 27 19.2041 26.9776 18.8138 26.9413 C 16.2401 24.1825 14.7578 20.4367 14.7578 16.3077 C 14.7578 16.0215 14.7655 15.7368 14.7817 15.4537 ZM 21.767 21.0255 C 20.6201 15.3379 17.0276 14.4461 14.8689 14.4538 C 15.0725 12.7665 15.5476 11.1671 16.2524 9.6951 C 16.5648 9.7198 16.884 9.7538 17.208 9.8 C 23.584 10.7158 28.5702 15.2114 30.4182 20.9606 C 29.3516 22.8215 27.8021 24.3707 25.938 25.433 C 23.679 25.2749 22.3308 23.8415 21.767 21.0255 Z"/></svg>