<svg viewBox="0 0 40 30" xmlns="http://www.w3.org/2000/svg" width="40" height="30"><path d="M 16.1365 25.0256 C 16.3869 25.2664 16.3691 25.5071 16.0829 25.7479 L 14.9024 26.8315 C 14.652 27.0722 14.4016 27.0551 14.1511 26.7799 L 7.1755 19.608 C 6.9249 19.3328 6.9428 19.0748 7.2289 18.8341 L 8.4095 17.7506 C 8.6599 17.5098 8.9103 17.527 9.1608 17.8021 L 16.1365 25.0256 ZM 24.9905 11.4558 C 25.2408 11.6967 25.2408 11.9374 24.9905 12.1782 L 17.478 18.9373 C 17.1918 19.178 16.9234 19.178 16.6731 18.9373 L 14.9024 17.0797 C 14.6519 16.8047 14.6519 16.5467 14.9024 16.3058 L 22.4147 9.5468 C 22.7009 9.306 22.9692 9.3232 23.2196 9.5983 L 24.9905 11.4558 L 24.9905 11.4558 ZM 18.7122 22.7038 C 18.9625 22.9445 18.9447 23.1853 18.6584 23.4261 L 17.478 24.5096 C 17.1918 24.7504 16.9234 24.7504 16.6731 24.5096 L 9.751 17.2861 C 9.5007 17.0454 9.5007 16.8047 9.751 16.5638 L 10.9852 15.4803 C 11.2356 15.2395 11.486 15.2395 11.7364 15.4803 L 18.7122 22.7038 ZM 30.2491 11.7139 C 30.4994 11.9546 30.4994 12.1953 30.2491 12.4362 L 29.0149 13.5197 C 28.7645 13.7605 28.5141 13.7605 28.2637 13.5197 L 21.3416 6.2962 C 21.0909 6.0555 21.0909 5.8147 21.3416 5.5739 L 22.522 4.4904 C 22.8083 4.2496 23.0765 4.2496 23.327 4.4904 L 30.2491 11.7139 ZM 32.8246 9.392 C 33.0751 9.6672 33.0573 9.9252 32.7711 10.1659 L 31.5905 11.2495 C 31.3402 11.4903 31.0897 11.4731 30.8393 11.1979 L 23.8635 4.026 C 23.6132 3.7509 23.631 3.4929 23.9171 3.2521 L 25.0977 2.1685 C 25.348 1.9278 25.5985 1.9449 25.8489 2.2201 L 32.8246 9.392 L 32.8246 9.392 Z"/></svg>