<svg viewBox="0 0 40 30" xmlns="http://www.w3.org/2000/svg" width="40" height="30"><path d="M 28.8004 20.8651 C 27.2964 22.3867 24.9438 22.656 23.4967 23.3362 L 19.037 27 C 17.6362 26.1789 16.4107 25.2368 15.3323 24.1465 C 14.254 23.0557 13.3229 21.8165 12.511 20.3992 L 16.1334 15.8884 C 17.8177 9.637 19.7791 10.1748 20.5475 10.5575 C 20.5475 10.5575 20.5258 10.1993 20.7521 9.3374 C 21.2256 7.534 24.1597 4.8774 29.2717 10.0476 C 33.8988 14.7275 31.8839 17.7461 28.8004 20.8651 ZM 22.0462 20.0341 C 21.743 19.7278 21.2518 19.7267 20.9476 20.0324 L 19.6511 19.778 L 19.3998 18.4668 C 19.7017 18.1592 19.7013 17.6624 19.3978 17.3555 C 19.094 17.0481 18.6013 17.048 18.2974 17.3555 C 17.9935 17.6629 17.9935 18.1612 18.2974 18.4687 C 18.3694 18.5415 18.4521 18.5965 18.5403 18.6351 L 18.7246 19.5966 L 17.7738 19.4104 C 17.736 19.3209 17.6816 19.2374 17.6096 19.1647 C 17.3056 18.8572 16.8129 18.8572 16.509 19.1647 C 16.205 19.4721 16.2051 19.9704 16.509 20.2778 C 16.5776 20.347 16.6559 20.4 16.7392 20.4379 L 16.9159 21.4544 L 15.9105 21.2759 C 15.8731 21.1916 15.8209 21.1122 15.7524 21.0431 C 15.4484 20.7357 14.9557 20.7357 14.6517 21.0431 C 14.3478 21.3504 14.3478 21.8488 14.6517 22.1562 C 14.9557 22.4637 15.4484 22.4637 15.7524 22.1563 C 15.7549 22.1535 15.7572 22.1508 15.7596 22.148 L 17.0768 22.3821 L 17.308 23.7142 C 17.3054 23.7169 17.3025 23.7188 17.2999 23.7217 C 16.996 24.029 16.996 24.5274 17.2999 24.8349 C 17.6039 25.1422 18.0966 25.1423 18.4005 24.8349 C 18.7045 24.5274 18.7045 24.029 18.4006 23.7217 C 18.3321 23.6521 18.2536 23.5994 18.1702 23.5616 L 17.9939 22.5453 L 18.9989 22.7233 C 19.0365 22.8078 19.0886 22.8871 19.1571 22.9564 C 19.4611 23.2638 19.9537 23.2638 20.2576 22.9564 C 20.5616 22.6489 20.5616 22.1506 20.2576 21.8432 C 20.1858 21.7705 20.1029 21.7155 20.0148 21.6768 L 19.8307 20.7153 L 20.7815 20.9016 C 20.8192 20.9909 20.8737 21.0746 20.9456 21.1472 C 21.2495 21.4546 21.7421 21.4546 22.0462 21.1472 C 22.35 20.8398 22.35 20.3415 22.0462 20.0341 ZM 17.8329 21.6174 L 17.6015 20.2851 C 17.6036 20.2832 17.6057 20.2812 17.6074 20.2796 L 18.9041 20.5339 L 19.1555 21.8451 C 19.1535 21.8474 19.1519 21.8493 19.15 21.851 L 17.8329 21.6174 ZM 14.093 17.1664 L 13.2806 18.178 L 12.4904 17.1104 C 12.4911 17.1075 12.4922 17.1053 12.493 17.1024 L 13.7633 16.7368 L 14.093 17.1664 ZM 19.9912 9.1329 C 19.9506 9.288 19.9169 9.4294 19.889 9.5582 C 19.8391 9.555 19.7892 9.5533 19.7391 9.5533 C 19.6213 9.5533 19.505 9.563 19.3899 9.5804 C 17.0555 8.5653 14.6395 6.7049 14.6395 6.7049 C 14.6395 6.7049 16.6803 8.8587 13.8707 10.205 C 16.2436 9.2676 17.0226 11.3729 17.0226 11.3729 C 17.0226 11.3729 16.2678 12.6702 15.5516 15.0469 C 15.4682 15.1311 15.402 15.235 15.3624 15.3556 L 14.0923 15.7216 L 13.2822 14.6662 C 13.4142 14.2538 13.1917 13.8108 12.7844 13.676 C 12.3759 13.5408 11.9364 13.7659 11.8026 14.179 C 11.6688 14.5922 11.8914 15.0367 12.2997 15.1721 C 12.3964 15.2043 12.495 15.2154 12.5906 15.2092 L 13.1844 15.9827 L 12.2531 16.251 C 12.1796 16.189 12.0934 16.1389 11.9969 16.1069 C 11.5884 15.9714 11.1489 16.1967 11.015 16.6099 C 10.8812 17.0231 11.1038 17.4676 11.5123 17.603 C 11.6044 17.6337 11.6979 17.6447 11.7892 17.6406 L 12.4006 18.4667 L 11.4245 18.7671 C 11.3531 18.7088 11.2713 18.662 11.1791 18.6315 C 10.7706 18.4958 10.331 18.721 10.1973 19.1344 C 10.0634 19.5475 10.286 19.992 10.6944 20.1273 C 11.103 20.2627 11.5425 20.0377 11.6764 19.6245 C 11.6776 19.621 11.678 19.6174 11.6791 19.6141 L 12.2741 19.4312 L 11.5577 20.3233 L 11.8298 20.7982 C 11.9949 21.0863 12.1641 21.3663 12.3377 21.639 C 12.2886 21.6233 12.2394 21.6081 12.1906 21.5916 C 10.7413 21.1114 9.3572 20.4313 8 19.5383 L 9.2167 13.8591 C 9.1625 12.246 8.3375 10.0016 8.9996 7.9566 C 10.3576 3.7657 12.1098 0.5835 18.3282 2.6441 C 21.209 3.5988 22.5884 4.9789 23.1656 6.2887 C 21.4294 6.5713 20.3167 7.8936 19.9912 9.1329 Z"/></svg>