<svg viewBox="0 0 40 30" xmlns="http://www.w3.org/2000/svg" width="40" height="30"><path d="M 4.5459 22.8651 C 4.5459 22.8651 7.5109 23.2259 8.5049 23.2247 C 9.4198 23.2247 10.78 23.2632 12.8776 21.6837 C 12.8776 21.6837 13.1851 23.4584 14.9539 24.704 C 14.9539 24.704 15.5344 25.8277 16.1979 27 L 27.7415 27 C 27.7543 26.0856 27.7007 25.1328 27.5444 24.1646 C 27.5444 24.1646 30.0505 19.3813 28.6045 16.2905 C 28.6045 16.2905 32.926 15.1078 34.7914 10.5191 C 34.7914 10.5191 36.7554 8.7939 35.6763 7.7075 C 35.6763 7.7075 34.5 5.5881 31.1604 4.157 C 31.1604 4.157 28.9497 2.8767 28.6071 2.4324 C 28.6071 2.4324 27.6738 0.9531 24.2842 3.4667 C 24.2842 3.4667 23.6974 5.391 24.8264 6.2296 C 24.8264 6.2296 26.5435 6.5267 27.3271 4.9962 C 27.3271 4.9962 27.4742 4.8016 27.1838 4.7015 C 27.1838 4.7015 27.8181 4.7502 28.1647 4.11 C 28.1647 4.11 29.6387 4.7015 30.3242 6.478 C 31.0107 8.2546 30.9109 8.3991 31.306 8.6975 C 31.306 8.6975 28.2631 9.538 27.574 11.8533 C 27.574 11.8533 24.2816 12.3951 23.7434 14.4677 C 23.7434 14.4677 21.1416 14.8606 21.6824 12.3951 C 21.6824 12.3951 22.1248 11.8533 23.3176 11.9194 C 23.3176 11.9194 23.9148 11.9534 23.4812 10.8002 C 23.4429 10.6924 23.5835 10.5646 23.6628 10.3714 C 23.7369 10.1943 23.6653 10.1615 23.3356 9.8808 C 23.2283 9.7916 23.4238 9.5906 23.5068 9.3724 C 23.5555 9.2407 23.3356 8.7616 23.3356 8.7616 C 23.3356 8.7616 23.8496 8.3598 23.8265 8.1703 C 23.7728 7.7202 22.5837 7.4893 22.3855 7.0867 C 22.3076 6.9255 22.5863 6.5673 22.5493 6.3978 C 22.415 5.755 21.7552 4.4453 20.8706 3.9336 C 19.6597 3.2356 16.354 3.0135 14.9137 5.9394 C 14.525 6.729 14.8363 8.6424 15.1752 9.4576 C 15.4922 10.2307 16.9177 12.3123 16.9177 12.3123 C 16.985 12.5107 17.4402 15.407 14.9539 16.1262 C 14.9539 16.1262 12.6941 15.9938 11.0576 17.5078 C 11.0576 17.5078 8.2754 17.2767 7.5229 18.9202 C 7.5229 18.9202 7.3293 16.0593 9.1295 14.3187 C 9.1295 14.3187 10.1753 14.5806 10.6011 14.3187 C 10.6011 14.3187 10.9285 15.3864 11.6482 14.9762 C 11.6482 14.9762 12.1577 15.1226 12.2389 14.645 C 12.2389 14.645 12.99 14.5966 12.8438 13.8559 C 12.8438 13.8559 13.2196 12.8054 12.6147 12.5107 C 12.6147 12.5107 12.6436 11.5894 11.8267 11.6221 C 11.8267 11.6221 10.3389 11.7325 9.8469 11.6889 C 9.2056 11.6349 8.0767 11.8533 7.3906 13.0712 L 5.0024 16.424 C 5.0024 16.424 3.3333 18.6597 3.1042 20.8619 C 3.1069 20.8606 2.4185 22.5043 4.5459 22.8651 Z"/></svg>