<svg viewBox="0 0 40 30" xmlns="http://www.w3.org/2000/svg" width="40" height="30"><path d="M 28.0487 27 C 24.7621 27 22.0919 24.2183 22.0919 20.7763 C 22.0919 17.3354 24.7605 14.5531 28.0487 14.5531 C 31.3319 14.5531 34 17.3343 34 20.7763 C 34 24.2154 31.3319 27 28.0487 27 ZM 22.2534 6.5622 C 21.0488 6.5622 20.0704 5.5431 20.0687 4.2828 C 20.0687 3.026 21.0493 2 22.2534 2 C 23.4592 2 24.4391 3.0248 24.4391 4.2828 C 24.4391 5.5436 23.4586 6.5622 22.2534 6.5622 ZM 20.5247 6.3934 L 22.9208 10.3228 L 23.2692 10.215 C 24.5781 10.215 24.5781 12 23.2692 12 L 22.3463 12 C 22.0282 12.0069 21.6854 11.8421 21.4365 11.4305 L 20.0188 9.2079 L 17.0916 12.237 L 19.5 13.75 C 21.1875 14.5625 21 16.3139 21 16.3139 L 21 21.7379 C 21 22.4654 20.8226 22.875 20.125 22.875 C 19.4302 22.875 19 22.4631 19 21.7379 L 19 16.5971 L 13.2966 13.8636 C 12.7365 13.538 12.5909 12.9082 12.5909 12.1934 C 12.5909 11.7025 12.7639 11.2529 13.0612 10.9165 L 17.6798 6.0793 C 18.2489 5.4018 19.0509 5.5109 19.0503 5.5103 C 20.0161 5.5103 20.5247 6.3934 20.5247 6.3934 ZM 16.9087 20.7763 C 16.9087 24.2154 14.2433 27 10.9502 27 C 7.6697 27 5 24.2154 5 20.7763 C 5 17.3366 7.6697 14.5531 10.9502 14.5531 C 14.2412 14.5531 16.9087 17.3354 16.9087 20.7763 Z"/></svg>