<svg viewBox="0 0 40 30" xmlns="http://www.w3.org/2000/svg" width="40" height="30"><path d="M 33.6877 5.109 L 27.6452 16.5989 C 27.0913 18.1986 25.7288 20.5743 22.4266 21.8564 C 22.9031 21.0215 23.1791 20.0595 23.1791 19.0328 C 23.1791 15.8573 20.5695 13.2737 17.3618 13.2737 C 14.1541 13.2737 11.5445 15.8573 11.5445 19.0328 C 11.5445 20.1297 11.8612 21.1511 12.4005 22.0257 C 8.1086 20.518 6.5748 17.0336 6.0499 15.1111 C 5.8528 14.3886 6.2615 13.399 6.8832 12.9736 C 14.1642 7.9904 21.2864 10.6803 25.1208 12.9293 L 30.2065 2.9557 C 30.8072 2.003 32.0734 1.7145 33.035 2.3093 C 33.9964 2.9041 34.2885 4.1587 33.6877 5.109 ZM 17.3671 14.1214 C 20.2019 14.1214 22.4995 16.3965 22.5002 19.2036 C 22.5002 22.0105 20.2026 24.2855 17.3671 24.2855 C 14.5317 24.2855 12.2341 22.0098 12.2341 19.2036 C 12.2341 16.3958 14.5317 14.1214 17.3671 14.1214 ZM 13.7455 17.2267 C 13.3206 17.2267 12.9757 17.5681 12.9757 17.9889 C 12.9757 18.4096 13.3206 18.751 13.7455 18.751 C 14.1705 18.751 14.5153 18.4096 14.5153 17.9889 C 14.5153 17.5681 14.1705 17.2267 13.7455 17.2267 ZM 15.285 15.4763 C 14.8601 15.4763 14.5153 15.8176 14.5153 16.2384 C 14.5153 16.6591 14.8601 17.0005 15.285 17.0005 C 15.71 17.0005 16.0547 16.6591 16.0547 16.2384 C 16.0547 15.8176 15.71 15.4763 15.285 15.4763 ZM 19.5561 15.4763 C 19.1311 15.4763 18.7863 15.8176 18.7863 16.2384 C 18.7863 16.6591 19.1311 17.0005 19.5561 17.0005 C 19.9807 17.0005 20.3259 16.6591 20.3259 16.2384 C 20.3259 15.8176 19.9807 15.4763 19.5561 15.4763 ZM 21.0956 17.2267 C 20.6706 17.2267 20.3259 17.5681 20.3259 17.9889 C 20.3259 18.4096 20.6706 18.751 21.0956 18.751 C 21.5202 18.751 21.8654 18.4096 21.8654 17.9889 C 21.8654 17.5681 21.5202 17.2267 21.0956 17.2267 ZM 21.0956 21.1511 C 21.5202 21.1511 21.8654 20.8098 21.8654 20.389 C 21.8654 19.9683 21.5202 19.6269 21.0956 19.6269 C 20.6706 19.6269 20.3259 19.9683 20.3259 20.389 C 20.3259 20.8098 20.6706 21.1511 21.0956 21.1511 ZM 19.7372 23.0696 C 20.1622 23.0696 20.507 22.7283 20.507 22.3075 C 20.507 21.8868 20.1622 21.5454 19.7372 21.5454 C 19.3123 21.5454 18.9675 21.8868 18.9675 22.3075 C 18.9675 22.7283 19.3123 23.0696 19.7372 23.0696 ZM 19.0142 20.0642 C 19.4388 20.0642 19.7839 19.7228 19.7839 19.3021 C 19.7839 18.8813 19.4388 18.54 19.0142 18.54 C 18.5892 18.54 18.2444 18.8813 18.2444 19.3021 C 18.2444 19.7228 18.5892 20.0642 19.0142 20.0642 ZM 17.4205 20.0642 C 16.9955 20.0642 16.6508 20.4056 16.6508 20.8263 C 16.6508 21.2471 16.9955 21.5884 17.4205 21.5884 C 17.8455 21.5884 18.1903 21.2471 18.1903 20.8263 C 18.1903 20.4056 17.8455 20.0642 17.4205 20.0642 ZM 18.1903 17.8764 C 18.1903 17.4557 17.8455 17.1143 17.4205 17.1143 C 16.9955 17.1143 16.6508 17.4557 16.6508 17.8764 C 16.6508 18.2972 16.9955 18.6385 17.4205 18.6385 C 17.8455 18.6385 18.1903 18.2972 18.1903 17.8764 ZM 17.3671 23.8317 C 17.7921 23.8317 18.1368 23.4904 18.1368 23.0696 C 18.1368 22.6489 17.7921 22.3075 17.3671 22.3075 C 16.9421 22.3075 16.5974 22.6489 16.5974 23.0696 C 16.5974 23.4904 16.9421 23.8317 17.3671 23.8317 ZM 17.3671 16.2384 C 17.7921 16.2384 18.1368 15.897 18.1368 15.4763 C 18.1368 15.0555 17.7921 14.7142 17.3671 14.7142 C 16.9415 14.7142 16.5974 15.0555 16.5974 15.4763 C 16.5974 15.897 16.9421 16.2384 17.3671 16.2384 ZM 16.3915 19.3021 C 16.3915 18.8813 16.0464 18.54 15.6218 18.54 C 15.1968 18.54 14.852 18.8813 14.852 19.3021 C 14.852 19.7228 15.1968 20.0642 15.6218 20.0642 C 16.0464 20.0642 16.3915 19.7228 16.3915 19.3021 ZM 15.1043 23.0696 C 15.5293 23.0696 15.874 22.7283 15.874 22.3075 C 15.874 21.8868 15.5293 21.5454 15.1043 21.5454 C 14.6793 21.5454 14.3345 21.8868 14.3345 22.3075 C 14.3345 22.7283 14.6793 23.0696 15.1043 23.0696 ZM 13.7455 21.1511 C 14.1711 21.1511 14.5153 20.8098 14.5153 20.389 C 14.5153 19.9683 14.1705 19.6269 13.7455 19.6269 C 13.3206 19.6269 12.9757 19.9683 12.9757 20.389 C 12.9757 20.8098 13.3206 21.1511 13.7455 21.1511 ZM 17.2665 25.0159 C 18.3216 25.0159 19.3152 24.7506 20.1849 24.2855 L 20.2471 24.2855 C 20.2471 25.8085 18.8306 26.5137 18 26.7969 L 18 27.3226 C 18 27.697 17 27.697 17 27.3226 L 17 26.7678 C 14.7756 26.0526 14.9375 24.75 14.9375 24.75 L 14.9375 24.625 C 15.8065 25.0901 16.2108 25.0159 17.2665 25.0159 Z"/></svg>