<svg viewBox="0 0 40 30" xmlns="http://www.w3.org/2000/svg" width="40" height="30"><path d="M 19 13 L 19 14 L 20 14 L 20 15 L 19 15 L 19 16 L 18 16 L 18 15 L 17 15 L 17 14 L 18 14 L 18 13 L 19 13 ZM 18 9 L 19 9 L 19 10 L 20 10 L 20 11 L 19 11 L 19 12 L 18 12 L 18 11 L 17 11 L 17 10 L 18 10 L 18 9 ZM 29.9727 4.7848 C 30.0549 4.5656 29.9458 4.3185 29.7272 4.2343 C 29.5084 4.1494 29.2634 4.2593 29.1783 4.4792 L 27.9548 7.6791 C 27.7842 7.5797 27.5844 7.5131 27.3549 7.4896 C 25.0657 7.2612 22.7814 7.0209 20.5162 6.6425 C 20.2637 6.3389 19.9098 6.1447 19.5211 6.0473 C 20.5411 5.7017 21.2756 4.7349 21.2756 3.593 C 21.2756 2.1613 20.1221 1 18.6982 1 C 17.275 1 16.1207 2.1608 16.1207 3.593 C 16.1207 4.8295 16.9825 5.8619 18.1344 6.1212 C 18.0739 6.1424 18.0126 6.1357 17.9539 6.1622 C 17.5798 6.1636 17.265 6.7734 17.0275 7 L 16.573 7 L 12.9213 7 C 12.5803 7.0228 12.2402 7.0287 11.9003 7.0496 C 11.7299 6.989 11.5319 6.9178 11.3036 6.9419 C 10.9111 6.985 10.3579 6.9641 9.9963 7.1167 C 8.7251 7.6563 8.6119 9.3325 9.9963 9.8347 C 10.7228 10.0977 11.8328 9.8275 12.5662 9.7803 C 13.1234 9.7442 13.6799 9.6053 14.2371 9.566 L 14.2172 10 L 15.7742 10 L 15.0968 15.7259 L 11.943 20.0236 L 13.4319 20.2771 C 12.1044 21.983 10.696 23.6256 9.3583 25.3254 C 8.2494 26.7338 10.2188 28.8262 11.3402 27.4017 C 13.0112 25.2791 14.7813 23.2374 16.3995 21.0769 L 16.8147 21.0769 L 18.3585 19 L 20.2345 19 C 21.2437 19.9719 22.265 20.9287 23.2897 21.8822 L 22.6345 26.2283 C 22.3638 28.0061 25.0638 28.7694 25.3365 26.9779 L 26.1294 21.7764 C 26.3213 20.5145 25.1023 19.7852 24.2917 19.0223 L 22.9534 17.7572 L 23.7612 17.3032 L 20.9116 14.7123 L 21.4562 10.3151 L 26.1337 10.9408 L 26.3927 10.2096 L 27.3557 10.3068 C 28.5172 10.4232 28.9198 9.2889 28.5817 8.4225 L 29.9727 4.7848 Z"/></svg>