<svg viewBox="0 0 40 30" xmlns="http://www.w3.org/2000/svg" width="40" height="30"><path d="M 15 13 L 27 13 L 27 18 L 15 18 L 15 13 ZM 29.0001 7 L 29.0001 7 C 30.1046 7 31 8.1215 31 9.5051 L 31 21.4946 C 31 22.8782 30.1046 24 29.0001 24 L 29.0001 24 C 27.8955 24 27 22.8782 27 21.4946 L 27 9.5051 C 27 8.1215 27.8955 7 29.0001 7 ZM 38.0001 12.3685 L 38.0001 12.3685 C 39.1047 12.3685 40 12.7817 40 13.2914 L 40 17.7087 C 40 18.2184 39.1047 18.6317 38.0001 18.6317 L 38.0001 18.6317 C 36.8955 18.6317 36 18.2184 36 17.7087 L 36 13.2914 C 36 12.7817 36.8955 12.3685 38.0001 12.3685 ZM 3.0001 12.3685 L 3.0001 12.3685 C 4.1047 12.3685 5 12.7817 5 13.2914 L 5 17.7087 C 5 18.2184 4.1047 18.6317 3.0001 18.6317 L 3.0001 18.6317 C 1.8955 18.6317 1 18.2184 1 17.7087 L 1 13.2914 C 1 12.7817 1.8955 12.3685 3.0001 12.3685 ZM 33.5001 11 L 33.5001 11 C 34.3286 11 35 11.4868 35 12.0876 L 35 19.3331 C 35 19.9339 34.3286 20.4209 33.5001 20.4209 L 33.5001 20.4209 C 32.6716 20.4209 32 19.9339 32 19.3331 L 32 12.0876 C 32 11.4868 32.6716 11 33.5001 11 ZM 8.0001 10.5787 L 8.0001 10.5787 C 9.1047 10.5787 10 11.2281 10 12.0291 L 10 18.9705 C 10 19.7715 9.1047 20.4209 8.0001 20.4209 L 8.0001 20.4209 C 6.8955 20.4209 6 19.7715 6 18.9705 L 6 12.0291 C 6 11.2281 6.8955 10.5787 8.0001 10.5787 ZM 13.0001 7.8947 L 13.0001 7.8947 C 14.1046 7.8947 15 8.9572 15 10.268 L 15 21.6265 C 15 22.9373 14.1046 24 13.0001 24 L 13.0001 24 C 11.8955 24 11 22.9373 11 21.6265 L 11 10.268 C 11 8.9572 11.8955 7.8947 13.0001 7.8947 Z"/></svg>