<svg viewBox="0 0 40 30" xmlns="http://www.w3.org/2000/svg" width="40" height="30"><path d="M 9.0542 5.5396 C 8.1025 25.4515 19.9907 27 19.9907 27 C 32.5908 23.3064 30.9275 5.6333 30.9275 5.6333 C 23.0078 6.2535 19.9851 2 19.9851 2 C 16.7344 6.6007 9.0542 5.5396 9.0542 5.5396 ZM 14.4495 21.0846 L 14.4495 21.0846 L 14.5054 21.0842 C 14.5054 21.0892 14.5002 21.0942 14.4983 21.0989 C 14.4823 21.0935 14.4661 21.09 14.4495 21.0846 ZM 27.1008 8.2798 C 27.1062 8.2964 27.1101 8.3134 27.1154 8.3304 C 27.1108 8.3319 27.1067 8.3367 27.1008 8.3367 L 27.1008 8.2798 ZM 24.686 18.6401 C 22.0276 21.3312 18.2493 22.1782 14.8716 21.21 C 14.8835 21.1679 14.8962 21.1259 14.8958 21.0811 C 14.8955 21.0352 14.9052 17.1225 17.0422 13.7336 C 17.116 13.8041 17.1871 13.8788 17.2542 13.9595 C 17.5474 14.3112 18.0593 13.8215 17.7671 13.4715 C 17.6677 13.3521 17.5574 13.2446 17.4438 13.142 C 17.6333 12.8799 17.8367 12.6228 18.0557 12.3721 C 18.1445 12.4543 18.2306 12.5406 18.3103 12.6361 C 18.6035 12.9879 19.1152 12.4982 18.8232 12.1486 C 18.7357 12.0434 18.6404 11.9476 18.5417 11.8553 C 18.7294 11.6689 18.9242 11.4911 19.1249 11.3209 C 19.2207 11.4077 19.3132 11.499 19.3987 11.6014 C 19.6919 11.9529 20.2037 11.4634 19.9117 11.1136 C 19.8409 11.0292 19.7654 10.951 19.6875 10.8749 C 21.6379 9.4517 24.1238 8.7314 27.1013 8.7314 C 27.1451 8.7314 27.1848 8.718 27.2251 8.7062 C 28.1818 12.1248 27.3452 15.9494 24.686 18.6401 ZM 16.8645 10.7238 C 19.2252 8.3344 22.469 7.3998 25.5316 7.8974 C 22.943 8.1245 20.7429 8.9298 18.96 10.2998 C 18.9106 10.2661 18.8619 10.2322 18.8123 10.1989 C 18.4496 9.9584 18.1021 10.493 18.3971 10.7618 C 18.2009 10.9348 18.0081 11.1129 17.823 11.3014 C 17.7898 11.2788 17.7574 11.2561 17.7239 11.2338 C 17.3474 10.9838 16.9817 11.5721 17.3406 11.8281 C 17.1227 12.0798 16.9189 12.3367 16.7286 12.598 C 16.7085 12.5845 16.6885 12.5701 16.6682 12.5568 C 16.2876 12.3039 15.9155 12.9087 16.2942 13.1605 C 16.3051 13.1681 16.3157 13.1756 16.327 13.1827 C 14.8044 15.55 14.2793 18.123 14.0989 19.6727 C 13.5422 16.5216 14.4585 13.1586 16.8645 10.7238 Z"/></svg>