<svg viewBox="0 0 40 30" xmlns="http://www.w3.org/2000/svg" width="40" height="30"><path d="M 32.593 11.2273 L 29.2885 14.5044 C 29.0445 14.7437 28.7319 14.8662 28.4193 14.8662 C 28.1285 14.8662 27.8351 14.7612 27.5966 14.5452 L 24.7171 11.9481 L 20.9025 16.2903 L 24.5306 18.2542 C 24.8624 18.4323 25.1065 18.7474 25.208 19.1268 C 25.3094 19.5032 25.2574 19.9089 25.0626 20.2444 L 21.5306 26.3347 C 21.281 26.7636 20.8477 27 20.4063 27 C 20.1703 27 19.9318 26.9329 19.7151 26.7899 C 19.0954 26.3814 18.9034 25.5176 19.2846 24.858 L 22.0652 20.0635 L 17.6392 17.6589 L 16.7097 17.1541 C 15.9417 16.7427 15.7855 15.657 16.2955 14.9655 C 16.3203 14.9333 16.3449 14.9012 16.3723 14.8691 C 18.1191 12.879 19.866 10.8917 21.6129 8.9015 C 21.3632 8.6213 19.9894 7.0368 19.7151 6.7128 L 15.4893 7.778 C 15.3905 7.8043 15.2919 7.8159 15.1931 7.8159 C 14.6144 7.8159 14.0934 7.3957 13.9536 6.7712 C 13.7919 6.0446 14.2141 5.3121 14.8997 5.1399 L 19.8605 3.8881 C 19.9811 3.8589 20.0936 3.8414 20.2061 3.8414 C 20.5159 3.8414 20.7984 3.9727 21.1027 4.3054 C 22.186 5.4872 28.3835 11.6912 28.3864 11.6884 L 30.8599 9.2399 C 31.1039 8.9978 31.4165 8.8782 31.7264 8.8782 C 32.0665 8.8782 32.4065 9.024 32.6588 9.3101 C 33.1387 9.8586 33.1085 10.7166 32.593 11.2273 ZM 27.41 8.1515 C 25.8138 8.1515 24.5197 6.7744 24.5197 5.0758 C 24.5197 3.3771 25.8138 2 27.41 2 C 29.0064 2 30.3004 3.3771 30.3004 5.0758 C 30.3004 6.7744 29.0064 8.1515 27.41 8.1515 ZM 16.3339 17.939 L 17.1127 18.3622 L 14.7818 21.4904 C 14.5843 21.7531 14.3074 21.9312 13.9975 21.9954 L 8.5677 23.1042 C 8.4855 23.1218 8.4005 23.1305 8.3182 23.1305 C 7.6984 23.1305 7.1445 22.6636 7.0238 21.9924 C 6.8867 21.2308 7.3557 20.4954 8.0714 20.3495 L 13.0212 19.3398 L 15.2205 16.3895 C 15.3577 17.0695 15.7581 17.6298 16.3339 17.939 Z"/></svg>