<svg viewBox="0 0 40 30" xmlns="http://www.w3.org/2000/svg" width="40" height="30"><path d="M 31.0173 19.3648 C 30.3874 20.8536 29.4855 22.1917 28.3386 23.3386 C 27.189 24.4855 25.8536 25.3874 24.3648 26.0173 C 22.8249 26.6689 21.1853 27 19.5 27 C 17.8147 27 16.1778 26.6689 14.6352 26.0173 C 13.1464 25.3874 11.8083 24.4855 10.6614 23.3386 C 9.5145 22.1917 8.6126 20.8564 7.9827 19.3648 C 7.3311 17.8249 7 16.188 7 14.5 C 7 12.8147 7.3311 11.1751 7.9827 9.6352 C 8.6126 8.1464 9.5145 6.8083 10.6614 5.6614 C 11.8083 4.5145 13.1464 3.6126 14.6352 2.9827 C 16.1751 2.3311 17.812 2 19.5 2 C 21.188 2 22.8249 2.3311 24.3648 2.9827 C 25.8536 3.6126 27.1917 4.5145 28.3386 5.6614 C 29.4855 6.811 30.3874 8.1464 31.0173 9.6352 C 31.6689 11.1751 32 12.812 32 14.5 C 32 16.1853 31.6689 17.8222 31.0173 19.3648 ZM 29.9835 14.4623 L 29.5151 14.9362 C 29.2054 15.2484 28.7074 15.2565 28.387 14.9576 L 25.8322 12.5616 C 25.6464 12.3866 25.5521 12.1335 25.5818 11.8804 L 25.9802 8.3994 C 26.0286 7.9633 26.4163 7.6483 26.8524 7.686 L 27.5175 7.7452 C 27.3263 7.519 27.1244 7.301 26.9117 7.0883 C 25.7971 5.9737 24.4752 5.1418 23.0349 4.6276 L 23.323 5.2361 C 23.5114 5.6318 23.3499 6.1057 22.9568 6.3049 L 19.8339 7.8906 C 19.6077 8.0063 19.3385 8.0063 19.1096 7.8932 L 15.9732 6.3318 C 15.5828 6.1379 15.4159 5.6641 15.6016 5.2684 L 15.8843 4.6572 C 14.4736 5.1741 13.1813 5.9953 12.0883 7.0883 C 11.8756 7.301 11.6737 7.5217 11.4826 7.7479 L 12.1476 7.6887 C 12.5837 7.651 12.9714 7.9659 13.0198 8.4022 L 13.4183 11.8832 C 13.4479 12.1362 13.3536 12.3893 13.1678 12.5643 L 10.613 14.9604 C 10.2926 15.2592 9.7918 15.2511 9.4849 14.9388 L 9.0165 14.465 C 9.0165 14.4758 9.0165 14.4893 9.0165 14.5 C 9.0165 16.5515 9.6007 18.5114 10.691 20.1913 L 10.8311 19.5345 C 10.9225 19.1064 11.3372 18.8291 11.7679 18.9099 L 15.214 19.5479 C 15.467 19.5937 15.6797 19.7579 15.7928 19.9868 L 17.3354 23.1312 C 17.5293 23.5243 17.3732 24.0009 16.9855 24.2028 L 16.3905 24.5151 C 17.3839 24.822 18.4312 24.9808 19.5 24.9808 C 20.5688 24.9808 21.6161 24.822 22.6095 24.5151 L 22.0145 24.2028 C 21.6268 23.9982 21.4707 23.5243 21.6646 23.1312 L 23.2072 19.9841 C 23.3203 19.7552 23.5357 19.591 23.786 19.5452 L 27.2321 18.9072 C 27.6628 18.8264 28.0774 19.1037 28.1689 19.5317 L 28.309 20.1887 C 29.3993 18.5087 29.9835 16.5461 29.9835 14.4973 C 29.9835 14.4865 29.9835 14.4731 29.9835 14.4623 ZM 22.2703 17.5826 C 22.1626 17.9138 21.853 18.1399 21.503 18.1399 L 17.4916 18.1399 C 17.1416 18.1399 16.832 17.9164 16.7243 17.5826 L 15.4832 13.765 C 15.3755 13.4339 15.494 13.0677 15.7766 12.8631 L 19.0235 10.5047 C 19.3062 10.3001 19.6912 10.3001 19.9738 10.5047 L 23.218 12.8658 C 23.5006 13.0704 23.6191 13.4339 23.5114 13.7677 L 22.2703 17.5826 Z"/></svg>