<svg viewBox="0 0 40 30" xmlns="http://www.w3.org/2000/svg" width="40" height="30"><path d="M 19.9268 18.5104 C 17.9486 18.7726 15.6022 19.2775 14.4706 20.1678 C 14.4402 20.2966 14.4001 20.4233 14.3405 20.5424 C 12.4325 20.3426 11.2715 19.5866 10.7594 19.1626 L 11.4946 18.4242 C 11.7612 18.1561 12.0967 18.0051 12.4462 17.9566 C 13.2954 16.7647 13.7736 14.4369 14.0193 12.4955 C 13.6342 9.8871 14.5513 6.984 16.7189 4.8074 C 20.1416 1.3681 25.3782 1.0438 28.4138 4.084 C 31.4497 7.1239 31.1353 12.3759 27.7112 15.8147 C 25.5098 18.026 22.5608 18.9421 19.9268 18.5104 ZM 16.0166 16.5384 C 15.5107 16.0327 15.1067 15.4604 14.7854 14.8502 C 14.5273 16.0757 14.1573 17.2985 13.6294 18.2227 C 13.728 18.2878 13.8213 18.3621 13.9084 18.4493 L 14.0109 18.5517 C 14.1212 18.6627 14.2083 18.7852 14.2832 18.9141 C 15.2009 18.3779 16.4204 18.0015 17.6458 17.7391 C 17.0581 17.4228 16.5068 17.0295 16.0166 16.5384 ZM 7.1658 22.7718 C 7.6951 23.2245 8.8521 24.0027 10.7546 24.2734 L 9.671 25.3607 C 7.6946 25.1807 6.498 24.4045 5.9738 23.9716 C 5.976 23.9684 5.978 23.9657 5.9812 23.9634 L 7.1658 22.7718 ZM 9.1582 25.8759 L 8.5256 26.512 C 7.8677 27.1724 6.7866 27.1614 6.1118 26.4861 L 6.0103 26.3843 C 5.4819 25.8548 5.365 25.0764 5.6541 24.4457 C 6.2166 24.9047 7.3519 25.6198 9.1582 25.8759 ZM 7.5685 22.3685 L 8.7625 21.1694 C 9.2914 21.6226 10.4486 22.4009 12.3501 22.6708 L 11.2672 23.7593 C 9.2886 23.5783 8.0923 22.8016 7.5685 22.3685 ZM 9.165 20.7653 L 10.3579 19.5662 C 10.8867 20.0198 12.0442 20.7971 13.9458 21.0671 L 12.8629 22.1555 C 10.8853 21.9753 9.688 21.1984 9.165 20.7653 Z"/>
		<path d="M 33.1046 21.9653 C 31.1904 23.9557 27.678 24.2881 25.6875 22.375 C 23.6973 20.4607 23.9819 17.025 25.8948 15.0345 C 26.8779 14.0104 28.193 13.4966 29.5106 13.5 C 29.2672 13.9762 28.9591 14.4105 28.592 14.7959 C 28.3829 15.0153 28.1558 15.2119 27.9158 15.42 C 27.6792 15.6246 27.4349 15.8372 27.2098 16.0713 C 26.5927 16.7135 26.2618 17.5582 26.2802 18.4482 C 26.2982 19.3394 26.6609 20.1692 27.3031 20.7865 C 27.9281 21.3878 28.7467 21.7163 29.6116 21.7163 C 29.6344 21.7163 29.6572 21.7152 29.6798 21.7152 C 30.5709 21.697 31.4008 21.3344 32.0179 20.6921 C 32.2441 20.4568 32.4453 20.2056 32.6409 19.9612 C 32.8398 19.7123 33.0272 19.4781 33.2377 19.261 C 33.6082 18.8779 34.0299 18.5538 34.4957 18.2913 C 34.5504 19.6066 34.0889 20.941 33.1046 21.9653 ZM 32.7864 18.8256 C 32.5557 19.0643 32.3497 19.3212 32.151 19.5701 C 31.9552 19.8134 31.7714 20.0442 31.5656 20.2579 C 31.0641 20.7797 30.389 21.074 29.6663 21.0889 C 28.942 21.1025 28.257 20.8342 27.7351 20.3329 C 27.2134 19.8317 26.9191 19.1564 26.9041 18.4334 C 26.8905 17.7093 27.1587 17.0239 27.6602 16.5022 C 27.8669 16.2884 28.0898 16.0952 28.3248 15.8906 C 28.5659 15.6814 28.8149 15.4655 29.0444 15.2256 C 29.5138 14.7334 29.8958 14.1684 30.1823 13.5455 C 31.194 13.6841 32.1713 14.1332 32.9624 14.8959 C 33.7546 15.6575 34.2412 16.6169 34.4197 17.6218 C 33.8093 17.9321 33.259 18.3368 32.7864 18.8256 Z" stroke="#ffffff" stroke-width="1"/></svg>