<svg viewBox="0 0 40 30" xmlns="http://www.w3.org/2000/svg" width="40" height="30"><path d="M 35.9462 23.2606 L 35.4531 25.6763 C 35.3042 26.4077 34.5669 27 33.8074 27 L 3.879 27 C 3.1195 27 2.7886 26.4643 3.1412 25.804 L 3.5852 24.9708 C 3.938 24.3098 4.8018 23.9827 5.5149 24.2399 L 7.4124 24.9228 C 8.1254 25.1788 9.1802 25.0037 9.7678 24.531 L 11.2457 23.3397 C 11.8335 22.8671 12.8912 22.6815 13.6089 22.9266 L 14.7926 23.3311 C 15.5105 23.576 16.6807 23.5956 17.4066 23.3743 L 19.0159 22.8832 C 19.7422 22.6625 20.9099 22.6879 21.6246 22.9409 L 22.0259 23.1941 C 22.0159 23.1288 22.0006 23.0635 22 22.9982 L 22 17.7889 L 17.9688 15.4063 L 15.6875 19.4063 C 15.6875 19.4063 15.208 19.784 14.0625 20.0313 L 10.0625 21.0938 C 9.4688 21.0625 9.0938 21.0313 8.7815 20.6149 C 8.3474 20.0361 8.6997 19.2015 9.3521 18.8745 C 9.4557 18.8254 9.5618 18.7873 9.67 18.7635 L 13.7332 17.7524 L 18.4259 8.6938 L 16.644 9.1347 L 14.4694 13.4161 C 14.3433 13.683 14.1025 13.8917 13.7921 13.9697 C 13.2393 14.1089 12.6746 13.7813 12.5337 13.241 C 12.4565 12.9464 12.5203 12.6517 12.6798 12.4189 L 15.0259 7.8168 C 15.1525 7.5521 15.3945 7.3423 15.7041 7.2645 L 20.5289 6.0488 C 20.8821 5.9592 21.2385 6.0181 21.5298 6.1822 L 25.3958 8.424 L 27.2909 5.2843 C 27.4321 5.0896 27.6401 4.9417 27.8916 4.8787 C 28.4633 4.7348 29.0439 5.0734 29.1906 5.6327 C 29.2549 5.8771 29.2258 6.1215 29.1257 6.3342 L 26.8457 10.1464 C 26.1526 11.2968 25.1997 10.7098 25.1997 10.7098 L 22.8271 9.3253 L 20.7539 13.4127 L 23.3475 14.9819 C 23.3475 14.9819 24.0508 15.3558 24 16.4703 L 24 22.8381 L 25.9922 20.924 C 26.5464 20.4138 28.5758 20 29.3359 20 L 30.3677 20 C 31.1274 20 32.03 19.465 32.3848 18.8052 L 32.8228 18.0696 C 33.1765 17.4092 33.7537 17.4075 34.1111 18.0657 L 35.568 20.746 C 35.926 21.4034 36.0945 22.5297 35.9462 23.2606 ZM 23.0999 5.9615 C 22.0039 6.2382 20.8857 5.59 20.6035 4.5129 C 20.3223 3.436 20.9834 2.3405 22.0793 2.0637 C 23.1764 1.7875 24.2947 2.4346 24.5767 3.5128 C 24.8589 4.5886 24.1963 5.6859 23.0999 5.9615 Z"/></svg>