<svg viewBox="0 0 40 30" xmlns="http://www.w3.org/2000/svg" width="40" height="30"><path d="M 31 27 L 31 18 L 34 18 L 34 27 L 31 27 ZM 27 23 L 23 23 L 23 26.1553 C 23 27.0279 22.6146 26.9557 21.754 26.9557 C 20.8976 26.9557 20 26.1636 20 26.1636 L 20 23 L 19 23 L 19 25.6092 C 19 26.4889 18.49 27 17.625 27 C 16.7573 27 16 27.0279 16 26.1483 L 16 23 L 12 23 L 12 27 L 8 27 L 8 18 L 12 18 L 12 21 L 16 21 L 16 13.1812 L 9.3369 5.7004 C 9.3369 5.7004 9.702 5.6962 9.6985 5.692 C 9.2437 5.235 9.2437 4.4896 9.6985 4.0278 C 10.1508 3.5702 10.8841 3.573 11.3375 4.0278 C 11.3389 4.0362 11.3402 3.5692 11.3458 3.5706 L 15.6876 8 L 24 8 L 24.1162 8.0164 L 24.3125 8 L 28.4619 4.0408 C 28.4653 4.0393 28.4673 4.038 28.4695 4.0292 C 28.9217 3.5747 29.6572 3.5715 30.108 4.0292 C 30.5611 4.4903 30.8281 5.6049 30.375 6.0625 C 30.3723 6.0667 29.814 6.8125 29.8125 6.8125 L 23 13 L 23 21 L 27 21 L 27 18 L 30 18 L 30 27 L 27 27 L 27 23 ZM 20 17 L 19 17 L 19 21 L 20 21 L 20 17 ZM 19.9887 7.7341 C 18.473 7.7341 17.3168 6.3192 17.3168 4.7841 C 17.3168 3.2461 18.5492 2 20.0649 2 C 21.5827 2 22.8146 3.2461 22.8146 4.7833 C 22.8146 6.3192 21.5065 7.7341 19.9887 7.7341 ZM 5 18 L 9 18 L 9 27 L 5 27 L 5 18 Z"/></svg>